<svg width="238" height="254" viewBox="0 0 238 254" fill="none" xmlns="http://www.w3.org/2000/svg">
<path d="M125.78 152.18C197.11 152.18 237.33 123.18 237.33 79.65C237.33 44.83 211.2 0.76001 121.43 0.76001H0.0300293V9.97H1.96003C43.54 10.33 48.36 17.29 48.36 51.37V202.88C48.36 236.95 43.54 243.88 1.96003 244.26H0.0300293V253.5H146.16V244.24H144.16C99.47 244.24 94.61 237.68 94.61 202.86V152.16L125.78 152.18ZM94.62 40.5C94.62 15.41 91.03 13.93 122.62 13.93C172.77 13.93 189.3 37.86 189.3 81.73C189.3 122.65 170.77 139.06 118.6 139.06H94.6V40.5H94.62Z" fill="#2A9D3F"/>
</svg>
