<?xml version="1.0" encoding="utf-8"?>
<!-- Generator: Adobe Illustrator 24.3.0, SVG Export Plug-In . SVG Version: 6.00 Build 0)  -->
<svg version="1.1" id="Layer_1" xmlns="http://www.w3.org/2000/svg" xmlns:xlink="http://www.w3.org/1999/xlink" x="0px" y="0px"
	 viewBox="0 0 56 33" style="enable-background:new 0 0 56 33;" xml:space="preserve">
<style type="text/css">
	.st0{clip-path:url(#SVGID_2_);}
	.st1{fill:#FFFFFF;}
	.st2{fill:url(#SVGID_3_);}
	.st3{fill:url(#SVGID_4_);}
	.st4{fill:url(#SVGID_5_);}
	.st5{fill:url(#SVGID_6_);}
	.st6{fill:url(#SVGID_7_);}
</style>
<g>
	<defs>
		<path id="SVGID_1_" d="M0,2.6c0-1.1,0.9-2,2-2h52c1.1,0,2,0.9,2,2v28c0,1.1-0.9,2-2,2H2c-1.1,0-2-0.9-2-2V2.6z"/>
	</defs>
	<clipPath id="SVGID_2_">
		<use xlink:href="#SVGID_1_"  style="overflow:visible;"/>
	</clipPath>
	<g class="st0">
		<path class="st1" d="M48.5,26.1c0,3.6-2.9,6.5-6.5,6.5H7V7.1c0-3.6,2.9-6.5,6.5-6.5h35.1V26.1z"/>
		
			<linearGradient id="SVGID_3_" gradientUnits="userSpaceOnUse" x1="34.8561" y1="15.6222" x2="46.2687" y2="15.6222" gradientTransform="matrix(1 0 0 -1 0 34)">
			<stop  offset="0" style="stop-color:#007940"/>
			<stop  offset="0.2285" style="stop-color:#00873F"/>
			<stop  offset="0.7433" style="stop-color:#40A737"/>
			<stop  offset="1" style="stop-color:#5CB531"/>
		</linearGradient>
		<path class="st2" d="M37.1,19.6h2.7c0.1,0,0.3,0,0.3,0c0.5-0.1,0.9-0.6,0.9-1.2c0-0.6-0.4-1.1-0.9-1.2c-0.1,0-0.2,0-0.3,0h-2.7
			V19.6z"/>
		
			<linearGradient id="SVGID_4_" gradientUnits="userSpaceOnUse" x1="34.8558" y1="17.3874" x2="46.2589" y2="17.3874" gradientTransform="matrix(1 0 0 -1 0 34)">
			<stop  offset="0" style="stop-color:#007940"/>
			<stop  offset="0.2285" style="stop-color:#00873F"/>
			<stop  offset="0.7433" style="stop-color:#40A737"/>
			<stop  offset="1" style="stop-color:#5CB531"/>
		</linearGradient>
		<path class="st3" d="M39.5,2.8c-2.5,0-4.6,2.1-4.6,4.6v4.8h6.5c0.2,0,0.3,0,0.5,0c1.5,0.1,2.6,0.8,2.6,2.2c0,1-0.7,1.9-2.1,2.1
			v0.1c1.5,0.1,2.6,0.9,2.6,2.2c0,1.4-1.3,2.3-2.9,2.3h-7.2v9.4h6.8c2.5,0,4.6-2.1,4.6-4.6V2.8H39.5z"/>
		
			<linearGradient id="SVGID_5_" gradientUnits="userSpaceOnUse" x1="34.8558" y1="19.3303" x2="46.2689" y2="19.3303" gradientTransform="matrix(1 0 0 -1 0 34)">
			<stop  offset="0" style="stop-color:#007940"/>
			<stop  offset="0.2285" style="stop-color:#00873F"/>
			<stop  offset="0.7433" style="stop-color:#40A737"/>
			<stop  offset="1" style="stop-color:#5CB531"/>
		</linearGradient>
		<path class="st4" d="M40.7,14.7c0-0.6-0.4-1-0.9-1.1c-0.1,0-0.2,0-0.3,0h-2.4v2.2h2.4c0.1,0,0.2,0,0.3,0
			C40.3,15.7,40.7,15.3,40.7,14.7z"/>
		
			<linearGradient id="SVGID_6_" gradientUnits="userSpaceOnUse" x1="9.3057" y1="17.4001" x2="20.895" y2="17.4001" gradientTransform="matrix(1 0 0 -1 0 34)">
			<stop  offset="0" style="stop-color:#1F286F"/>
			<stop  offset="0.4751" style="stop-color:#004E94"/>
			<stop  offset="0.8261" style="stop-color:#0066B1"/>
			<stop  offset="1" style="stop-color:#006FBC"/>
		</linearGradient>
		<path class="st5" d="M13.9,2.8c-2.5,0-4.6,2.1-4.6,4.6v11.4c1.3,0.6,2.6,1,4,1c1.6,0,2.5-1,2.5-2.3v-5.4h4v5.4
			c0,2.1-1.3,3.8-5.7,3.8c-2.7,0-4.7-0.6-4.7-0.6v9.7h6.8c2.5,0,4.6-2.1,4.6-4.6V2.8H13.9z"/>
		
			<linearGradient id="SVGID_7_" gradientUnits="userSpaceOnUse" x1="22.02" y1="17.3747" x2="33.276" y2="17.3747" gradientTransform="matrix(1 0 0 -1 0 34)">
			<stop  offset="0" style="stop-color:#6C2C2F"/>
			<stop  offset="0.1735" style="stop-color:#882730"/>
			<stop  offset="0.5731" style="stop-color:#BE1833"/>
			<stop  offset="0.8585" style="stop-color:#DC0436"/>
			<stop  offset="1" style="stop-color:#E60039"/>
		</linearGradient>
		<path class="st6" d="M26.7,2.8c-2.5,0-4.6,2.1-4.6,4.6v6c1.2-1,3.2-1.6,6.5-1.5c1.8,0.1,3.6,0.6,3.6,0.6v2c-0.9-0.5-2.1-0.9-3.5-1
			c-2.5-0.2-4,1-4,3.2c0,2.2,1.5,3.4,4,3.2c1.4-0.1,2.6-0.6,3.5-1v2c0,0-1.9,0.5-3.6,0.6c-3.3,0.2-5.3-0.5-6.5-1.5v10.7h6.8
			c2.5,0,4.6-2.1,4.6-4.6V2.8H26.7z"/>
	</g>
</g>
</svg>
