<svg width="775" height="174" viewBox="0 0 775 174" xmlns="http://www.w3.org/2000/svg" xmlns:xlink="http://www.w3.org/1999/xlink"><title>Slice 1</title><defs><path id="a" d="M0 .761h774.646V173.94H0V.761z"/><path id="c" d="M0 .761h774.646V173.94H0"/></defs><g fill="none" fill-rule="evenodd"><mask id="b" fill="#fff"><use xlink:href="#a"/></mask><path d="M405.302 93.59v3.921l-.323 3.598-1.309 6.533-.984 2.946-.978 2.943-1.3 2.612-1.64 2.29-1.639 2.286-1.631 1.631-1.955 1.632-1.971 1.317-2.286.977-2.617.972-2.278.336-2.947.327-2.94-.327-2.949-.658-2.284-1.304-1.632-1.64-1.639-1.955-.97-2.289-.662-2.614-.332-2.944.663-5.883.653-2.936.978-2.298.978-2.29 1.632-2.281 1.638-1.959 2.286-1.954 2.286-1.643 2.948-1.637 2.932-1.304 3.27-1.312 3.603-.973 4.247-.982 9.152-1.639v8.501zm34.971 12.093v7.516l-.653 4.253-.977 3.604-.978 2.926-1.308 1.963-1.649 1.639-1.623.656-1.962.317h-1.292l-.994-.317-.977-.656-.662-1.308-.646-1.632-.324-2.294-.339-6.528V77.905l-.314-7.843-.331-3.602-.655-3.263-.654-3.271-1.309-2.947-1.623-2.932-2.301-2.294-2.286-2.29-2.932-1.963-3.603-1.3-3.602-1.644-4.24-.977-4.248-.654-4.58-.646h-8.82l-3.924.327-3.262.651-3.272.98-3.279.973-2.618 1.318-2.617 1.303-2.607 1.632-1.963 1.639-1.955 1.632-1.64 1.962-1.308 1.955-.977 2.29-.662 2.289-.647 2.291v2.289l.332 2.613.645 2.285.976 1.963 1.641 1.967 1.64 1.3 2.286.982 2.286.658 2.617.327h.313l2.634-.327 1.955-.335 2.286-.979 1.639-1.307 1.3-1.299 1.317-1.641.646-1.955.331-1.966-.331-1.959-.646-1.967-1.317-1.631-1.3-1.309-1.309-.976-1.639-.99-2.932-1.628-1.648-.985.654-.981.994-1.296 1.624-1.313 2.286-1.308 2.301-1.309 3.263-.658 3.594-.646 3.926-.331 4.885.331 4.257.981 1.639.659 1.64.65 1.3.977 1.317 1.3.977 1.317.961 1.627.67 1.64.655 1.963.654 4.57.323 5.238v8.489l-7.511.985-6.882 1.309-6.518 1.305-5.887 1.307-5.233 1.632-4.903 1.963-4.572 1.966-3.925 1.959-3.594 2.29-2.932 2.285-2.624 2.62-1.963 2.601-1.64 2.953-1.292 2.932-.662 3.278-.324 3.263.324 2.623.331 2.28.654 2.285.645 2.294 1.318 1.963 1.299 1.955 1.31 1.641 1.962 1.311 1.954 1.627 2.286.977 2.286.99 2.633.977 2.931.651 2.932.326 3.28.328 3.593.323 5.217-.323 5.235-.981 4.587-1.301 4.248-1.967 3.603-2.621 3.594-3.258 2.932-3.599 2.616-4.248.332 2.609.646 2.289.654 2.294.672 1.632.967 1.964 1.3 1.311 2.303 2.281 2.617 1.636 2.932 1.305 2.616.654h6.211l2.932-.328 2.625-.653 2.278-.652 1.97-.98 1.955-1.309 1.639-1.303 1.308-1.645.977-1.958.987-1.955.985-1.963.315-2.294.976-5.229v-9.475h-6.534z" fill="#2CA047" mask="url(#b)"/><path d="M498.458 45.869v4.911h.977l7.197.65 2.617.645 2.287.659 1.63.973 1.308 1.317.652 1.955.325 1.962-.325 2.617-.652 2.935-.985 2.949-1.3 2.62-18.957 39.22-21.58-46.743-1.964-3.598-.322-1.305v-2.94l.654-.989.654-.973 1.631-.659 1.64-.645 2.617-.328 7.512-.322h.986v-4.911h-58.177v4.911h.977l5.225.322 4.248.973 1.64.659 1.624.973 2.616 1.963 1.971 2.298 1.955 2.932 1.64 3.27 1.623 3.594 30.731 65.704-4.902 10.131-4.579 7.843-2.286 3.593-2.286 2.945-2.285 2.613-2.618 1.958-2.285 1.636-2.617 1.312-2.616.656-2.949.326-1.954-.326-.977-.329 1.623-1.311 1.64-1.633 1.638-2.289.655-1.304.324-1.309.663-1.63v-1.969l-.35-2.616-.637-2.285-1.299-2.286-1.649-1.963-1.963-1.308-2.285-1.3-2.608-.654-2.941-.335-2.947.335-2.948.972-2.61 1.305-2.293 1.64-1.624 1.962-1.308 2.621-.977 2.936-.331 2.945.331 1.957.315 1.636.331 1.96.654 1.629.985 1.64.979 1.309 1.308 1.301 1.307 1.316 3.264 1.951 3.594 1.635 4.248.99 4.579.326 4.589-.326 3.916-.99 3.918-1.635 3.925-2.283 3.593-2.611 3.264-3.604 3.263-3.921 2.948-4.897 2.947-5.231 38.889-77.794 2.286-4.248 2.617-3.921 2.948-3.275 2.932-2.613 3.279-1.955 3.593-1.962 3.917-.981 4.257-.973h.97v-4.911h-48.04" fill="#2CA047" mask="url(#b)"/><path d="M773.014 126.599l-3.27-.323-3.264-.331-2.617-.974-2.617-1.316-2.606-1.628-2.618-1.966-5.242-5.23-33.325-33.986.646-.662 11.113-11.428 26.484-26.149 1.632 2.278 1.962 2.947 1.308 2.949 1.641 2.927 1.29 3.602.979 3.591 1.638 7.855h4.912V21.356h-47.394v4.571l8.167 1.963 3.592.982 3.273 1.304 3.271 1.639 2.94 1.632 2.938 1.639 2.285 1.959-25.821 25.817-11.443 11.776-.648.654-1.308-1.634-15.7-16.022-2.601-2.612-.663-1.317v-1.632l.332-.322.984-.323 1.303-.328 1.97-.322h8.165v-4.911h-54.906v4.911h1.302l3.602.322 2.948.328 2.286.977 1.953.972 1.632 1.317 1.31 1.305 3.599 3.925 27.125 27.449 1.629 1.643-44.121 42.487h10.774l38.575-36.926 19.95 20.579 2.285 2.618 1.954 1.962.978 1.962.329 1.63-.329.988-.325.653-.978.651-1.629.323-3.927.654h-8.827v5.233h62.755v-5.233h-1.632M282.731 21.029v-7.523l.331-2.282.324-.977.331-.663.646-.65.985-.33 2.61-.647 3.601-.327h9.796l4.258.651 3.925.653 3.594.973 2.94 1.317 2.94 1.308 2.294 1.964 2.277 1.957 1.639 2.287 1.64 2.616 1.301 2.936.985 2.943.654 3.276.654 3.59.324 3.922v7.846l-.324 3.594-.654 3.271-.654 2.936-1.309 2.621-1.309 2.286-1.622 2.285-1.971 1.631-2.293 1.644-2.618 1.627-2.94.991-3.262.976-3.594.651-4.249.653-4.256.327h-16.994V21.029zm15.693 57.203l6.865-.327 6.202-.662 5.881-.655 5.233-1.296 5.234-1.312 4.572-1.632 4.256-2.286 3.925-2.298 3.263-2.289 3.263-2.936 2.293-2.94 2.287-3.272 1.647-3.593.962-3.594.985-3.93v-7.515l-.655-3.267-.645-3.593-1.309-3.6-1.639-3.266-2.286-3.271-2.609-3.263-3.271-2.939-3.593-2.944-4.257-2.618-4.903-2.285-5.217-1.963-6.219-1.632-6.551-.981-7.502-.985-8.175-.327H234.36v4.907h.978l7.187.322 5.566.659 2.286.322 1.954.986 1.632.647 1.315.98.979 1.317.985 1.631.645 1.632.341 1.963.645 4.571.331 5.889v78.774l-.331 5.876-.645 4.906-.341 1.959-.645 1.636-.985 1.318-.979 1.294-1.315.98-1.632.988-1.954.653-2.286.651-5.566.654-7.187.323h-.978v4.579h74.524v-4.579h-.986l-7.519-.323-5.888-.654-2.6-.323-1.972-.655-1.631-.989-1.64-.974-.977-1.303-.977-1.317-.646-1.959-.662-1.959-.655-4.579V78.232h15.693zm345.808-30.077V2.396H528.851v4.575h.983l6.534.332 5.565.654 1.963.647 1.955.658 1.31.985 1.307.977.978 1.308.985 1.31.653 1.626.317 1.967.653 4.898v88.904l-.653 4.906-.317 1.959-.653 1.636-.985 1.318-.978 1.294-1.307 1.305-1.31.663-1.955.653-1.963.651-5.565.654-6.534.323h-.983v4.579H645.54V78.232h-4.579l-.645 5.883-.985 5.557-1.3 5.225-1.972 4.572-1.963 4.257-2.285 3.916-2.609 3.272-2.941 2.944-3.279 2.608-3.593 1.967-3.918 1.954-4.581 1.313-4.569 1.304-4.902.651-5.566.663h-10.781l-3.925-.336-1.31-.327-1.292-.651-.67-.654-.968-.65-.332-.981-.323-1.309-.322-3.267V68.096l2.283-.332h3.595l3.264.332 2.948.659 2.94.645 2.277.982 2.285.98 2.301 1.632 1.634 1.644 1.63 1.626 1.639 2.287 1.302 2.294 1.971 5.883.653 3.267.646 7.185h4.574V34.101h-4.574v3.922l-.646 3.266-.653 2.948-.988 2.937-.983 2.289-1.302 2.29-1.639 1.954-1.63 1.639-1.963 1.633-2.287 1.312-2.294.973-2.608.662-2.94.651-3.272.323-7.186.33h-.977V16.453l.322-2.947.655-.974.331-.98.637-.651.996-.654 1.953-.663 3.269-.322 4.249-.328 5.889.328 5.549.322 4.909.663 4.895.977 4.256 1.308 3.926 1.632 3.263 1.963 3.263 2.281 2.941 2.29 2.624 2.944 2.285 3.27 1.954 3.599 1.639 3.917 1.64 4.253 1.302 4.576.983 4.898h4.572" fill="#2CA047"/><mask id="d" fill="#fff"><use xlink:href="#c"/></mask><path d="M48.928 46.171l-11.952 40.15c8.03-12.324 13.88-20.635 17.554-24.931 5.416-6.287 9.882-10.395 13.399-12.326 3.516-1.928 7.05-2.893 10.599-2.893 4.045 0 6.971 1.213 8.776 3.641 1.804 2.427 2.707 5.105 2.707 8.03 0 3.051-.84 7.532-2.52 13.446L83.29 86.321c8.091-12.449 13.912-20.729 17.459-24.838 5.48-6.349 10.241-10.643 14.289-12.884 2.799-1.619 5.788-2.428 8.963-2.428 3.298 0 6.052 1.105 8.262 3.314 2.211 2.211 3.316 5.088 3.316 8.637 0 3.985-.933 9.151-2.8 15.5l-10.366 34.829c-1.556 5.168-2.333 8.498-2.333 9.991 0 .499.199.966.606 1.401.405.436.855.653 1.355.653.683 0 1.273-.217 1.773-.653 2.242-1.805 4.606-4.45 7.097-7.936.56-.748 1.4-1.899 2.521-3.456l3.175 2.054c-4.296 8.03-9.012 13.913-14.145 17.648-5.139 3.735-9.885 5.603-14.241 5.603-3.797 0-6.851-1.042-9.152-3.129-2.305-2.084-3.454-4.529-3.454-7.328 0-2.677.778-6.725 2.333-12.14l10.55-36.417c1.434-5.042 2.148-8.183 2.148-9.43 0-.434-.218-.855-.652-1.261-.437-.404-.874-.607-1.305-.607-.812 0-1.62.187-2.429.561-1.183.623-3.004 2.241-5.464 4.856-2.458 2.613-5.99 7.298-10.598 14.052-4.606 6.755-7.795 12.031-9.571 15.827-1.773 3.797-3.531 8.716-5.274 14.753l-5.696 19.236H46.033l17.461-60.975c.935-3.298 1.4-5.57 1.4-6.815 0-.435-.202-.841-.606-1.215-.405-.373-.826-.56-1.26-.56-2.305 0-5.946 3.02-10.925 9.058-7.596 9.338-14.506 20.574-20.729 33.708l-7.564 26.799H0l17.554-60.04c1.742-5.914 2.615-10.116 2.615-12.607 0-.994-.251-1.85-.748-2.567-.499-.715-1.307-1.275-2.427-1.681-1.121-.404-3.268-.606-6.443-.606l.934-3.549 31.84-5.508h5.603" fill="#C3C3BE" mask="url(#d)"/><path d="M142.112 54.573l28.761-8.402c2.301 2.863 3.921 5.57 4.855 8.123 1.68 4.42 2.863 10.52 3.547 18.301 1.308 15.314 2.21 31.655 2.71 49.023 6.661-8.778 14.286-20.387 22.875-34.83 2.614-4.357 3.922-8.465 3.922-12.326 0-2.427-1.508-4.729-4.528-6.909-3.019-2.179-4.902-3.875-5.651-5.089-.747-1.214-1.118-2.785-1.118-4.716 0-3.111 1.133-5.819 3.407-8.123 2.273-2.302 5.026-3.454 8.265-3.454 3.422 0 6.395 1.306 8.914 3.921 2.523 2.615 3.785 5.696 3.785 9.245 0 4.171-1.168 9.01-3.504 14.519-2.332 5.509-7.797 14.955-16.386 28.338-11.019 17.121-21.82 31.935-32.402 44.447-6.785 7.969-12.262 13.711-16.433 17.228-4.172 3.516-8.496 6.302-12.977 8.357-2.679 1.182-5.324 1.774-7.941 1.774-3.546 0-6.582-1.246-9.102-3.734-2.523-2.49-3.781-5.449-3.781-8.871 0-3.424 1.137-6.319 3.407-8.684 2.273-2.367 4.936-3.549 7.984-3.549 3.797 0 7.285 1.991 10.457 5.977 2.117 2.676 3.859 4.014 5.23 4.014 1.43 0 2.832-.405 4.203-1.213 1.868-.996 4.48-3.301 7.843-6.909.372-7.783.56-13.666.56-17.649 0-5.352-.251-12.886-.747-22.596l-1.589-35.576c-.559-6.536-1.958-11.236-4.199-14.1-1.743-2.115-4.016-3.174-6.817-3.174-1.059 0-2.243.093-3.55.28v-3.643" fill="#C3C3BE" mask="url(#d)"/></g></svg>