<?xml version="1.0" encoding="utf-8"?>
<!-- Generator: Adobe Illustrator 24.3.0, SVG Export Plug-In . SVG Version: 6.00 Build 0)  -->
<svg version="1.1" id="Layer_1" xmlns="http://www.w3.org/2000/svg" xmlns:xlink="http://www.w3.org/1999/xlink" x="0px" y="0px"
	 viewBox="0 0 56 33" style="enable-background:new 0 0 56 33;" xml:space="preserve">
<style type="text/css">
	.st0{clip-path:url(#SVGID_2_);}
	.st1{fill:#FFFFFF;}
	.st2{fill:#004A98;}
	.st3{fill:#231F20;}
</style>
<g>
	<defs>
		<path id="SVGID_1_" d="M0,2.6c0-1.1,0.9-2,2-2h52c1.1,0,2,0.9,2,2v28c0,1.1-0.9,2-2,2H2c-1.1,0-2-0.9-2-2V2.6z"/>
	</defs>
	<clipPath id="SVGID_2_">
		<use xlink:href="#SVGID_1_"  style="overflow:visible;"/>
	</clipPath>
	<g class="st0">
		<path class="st1" d="M55,29.7c0,0.8-0.4,1.5-1.1,2.1c-0.7,0.5-1.6,0.8-2.5,0.8H5.6c-0.9,0-1.8-0.3-2.5-0.8C2.4,31.2,2,30.5,2,29.7
			V3.5c0-0.4,0.1-0.8,0.3-1.1C2.5,2,2.7,1.7,3.1,1.4C3.4,1.2,3.8,1,4.2,0.8c0.4-0.1,0.9-0.2,1.4-0.2h45.8c0.5,0,0.9,0.1,1.4,0.2
			c0.4,0.1,0.8,0.4,1.2,0.6s0.6,0.6,0.8,0.9C54.9,2.7,55,3.1,55,3.5V29.7z"/>
		<path class="st2" d="M2.6,3.7v25.8c0,0.7,0.4,1.4,1,1.9c0.6,0.5,1.4,0.8,2.3,0.8h45.3c0.9,0,1.7-0.3,2.3-0.8c0.6-0.5,1-1.2,1-1.9
			V3.7c0-0.7-0.4-1.4-1-1.9c-0.6-0.5-1.4-0.8-2.3-0.8H5.9C5,1.1,4.2,1.4,3.6,1.8S2.6,3,2.6,3.7z M5.9,32.6c-1,0-2-0.3-2.7-0.9
			C2.4,31.1,2,30.3,2,29.5V3.7c0-0.8,0.4-1.6,1.1-2.2c0.7-0.6,1.7-0.9,2.7-0.9h45.3c1,0,2,0.3,2.7,0.9C54.6,2.1,55,2.9,55,3.7v25.8
			c0,0.8-0.4,1.6-1.1,2.2c-0.7,0.6-1.7,0.9-2.7,0.9H5.9z"/>
		<path class="st3" d="M12.7,22.9c0,0.6,0.4,0.7,0.8,0.7c1.6,0,2.2-1.2,2.2-2.4c0-1.4-0.9-2.5-2.4-2.5c-0.3,0-0.5,0-0.6,0V22.9z
			 M12,19.3c0-0.7-0.4-0.6-0.7-0.7v-0.2c0.3,0,0.6,0,0.9,0c0.3,0,0.7,0,1.3,0c1.9,0,3,1.3,3,2.7c0,0.8-0.4,2.7-3.1,2.7
			c-0.4,0-0.7,0-1.1,0c-0.3,0-0.7,0-1,0v-0.2c0.5,0,0.7-0.1,0.7-0.6L12,19.3z"/>
		<path class="st3" d="M17.6,19.1c-0.1,0-0.2,0-0.3-0.1c-0.1-0.1-0.1-0.2-0.1-0.3c0-0.1,0-0.2,0.1-0.3c0.1-0.1,0.2-0.1,0.3-0.1
			c0.1,0,0.2,0,0.3,0.1c0.1,0.1,0.1,0.2,0.1,0.3c0,0.1,0,0.2-0.1,0.3C17.8,19.1,17.7,19.1,17.6,19.1z M16.8,23.6h0.1
			c0.2,0,0.4,0,0.4-0.3v-2.1c0-0.3-0.1-0.4-0.4-0.5v-0.1c0.4-0.1,0.8-0.3,0.8-0.3c0,0,0.1,0,0.1,0c0,0,0.1,0,0.1,0.1v3
			c0,0.3,0.2,0.3,0.4,0.3h0.1v0.2c-0.3,0-0.5,0-0.8,0c-0.3,0-0.5,0-0.8,0V23.6z"/>
		<path class="st3" d="M19.1,21.3c0-0.3-0.1-0.4-0.4-0.5v-0.1c0.3-0.1,0.7-0.2,1-0.4c0,0,0,0,0,0.1v0.5c0.4-0.3,0.8-0.6,1.3-0.6
			c0.6,0,0.9,0.5,0.9,1.1v2c0,0.3,0.2,0.3,0.4,0.3h0.1v0.2c-0.3,0-0.5,0-0.8,0c-0.3,0-0.5,0-0.8,0v-0.2h0.1c0.2,0,0.4,0,0.4-0.3v-2
			c0-0.4-0.3-0.7-0.7-0.7c-0.2,0-0.6,0.2-0.9,0.4v2.3c0,0.3,0.2,0.3,0.4,0.3h0.1v0.2c-0.3,0-0.5,0-0.8,0c-0.3,0-0.5,0-0.8,0v-0.2
			h0.1c0.2,0,0.4,0,0.4-0.3L19.1,21.3z"/>
		<path class="st3" d="M24.3,21.4c0.2,0,0.2-0.1,0.2-0.2c0-0.4-0.2-0.7-0.7-0.7c-0.5,0-0.8,0.3-0.9,0.9H24.3z M22.9,21.7
			c0,0.1,0,0.3,0,0.4c0,0.7,0.5,1.3,1.1,1.3c0.4,0,0.7-0.2,1-0.5l0.1,0.1c-0.3,0.5-0.8,0.9-1.4,0.9c-1.2,0-1.4-1.2-1.4-1.7
			c0-1.5,1-1.9,1.5-1.9c0.6,0,1.3,0.4,1.3,1.2c0,0,0,0.1,0,0.1l-0.1,0H22.9z"/>
		<path class="st3" d="M25.3,23.6h0.2c0.2,0,0.4,0,0.4-0.3v-2.2c0-0.2-0.3-0.3-0.4-0.3v-0.1c0.5-0.2,0.8-0.4,0.9-0.4
			c0,0,0.1,0,0.1,0.1v0.7h0c0.2-0.3,0.5-0.8,1-0.8c0.1,0,0.1,0,0.2,0c0.1,0,0.1,0,0.1,0.1c0,0,0.1,0.1,0.1,0.1c0,0.1,0,0.1,0,0.2
			c0,0,0,0.1,0,0.1c0,0,0,0.1-0.1,0.1c0,0-0.1,0.1-0.1,0.1c0,0-0.1,0-0.1,0c-0.2,0-0.2-0.2-0.5-0.2c-0.2,0-0.3,0.1-0.4,0.2
			c-0.1,0.1-0.2,0.3-0.2,0.4v1.8c0,0.3,0.2,0.3,0.4,0.3h0.4v0.2c-0.4,0-0.7,0-1.1,0c-0.3,0-0.6,0-0.9,0V23.6z"/>
		<path class="st3" d="M28.2,22.7c0.1,0.5,0.4,0.9,0.9,0.9c0.4,0,0.6-0.3,0.6-0.5c0-0.9-1.6-0.6-1.6-1.8c0-0.4,0.3-1,1.2-1
			c0.3,0,0.6,0.1,0.9,0.2l0.1,0.8H30c-0.1-0.5-0.3-0.8-0.8-0.8c-0.3,0-0.6,0.2-0.6,0.5c0,0.9,1.7,0.6,1.7,1.8c0,0.5-0.4,1-1.3,1
			c-0.3,0-0.6-0.1-0.9-0.3l-0.1-0.9L28.2,22.7z"/>
		<path class="st3" d="M37.1,19.8H37c-0.1-0.9-0.8-1.3-1.6-1.3c-0.9,0-2.1,0.6-2.1,2.4c0,1.6,1.1,2.7,2.2,2.7c0.4,0,0.7-0.1,1-0.4
			c0.3-0.2,0.5-0.6,0.5-0.9l0.2,0L37,23.5c-0.3,0.2-1.2,0.4-1.7,0.4c-1.8,0-2.9-1.2-2.9-2.9c0-1.6,1.4-2.7,2.9-2.7
			c0.6,0,1.2,0.2,1.8,0.4L37.1,19.8z"/>
		<path class="st3" d="M37.4,23.6h0.1c0.2,0,0.4,0,0.4-0.3v-4.3c0-0.5-0.1-0.5-0.4-0.6v-0.1c0.3-0.1,0.5-0.2,0.8-0.3
			c0.1,0,0.1-0.1,0.2-0.1c0,0,0.1,0,0.1,0.1v5.3c0,0.3,0.2,0.3,0.4,0.3H39v0.2c-0.3,0-0.5,0-0.8,0c-0.3,0-0.5,0-0.8,0V23.6z"/>
		<path class="st3" d="M42.2,23.4c0,0.1,0.1,0.1,0.2,0.1c0.1,0,0.2,0,0.3,0v0.2c-0.4,0.1-0.7,0.1-1.1,0.2l0,0v-0.6
			c-0.5,0.4-0.8,0.6-1.3,0.6c-0.4,0-0.8-0.3-0.8-0.9v-2c0-0.2,0-0.4-0.5-0.4v-0.1c0.3,0,0.9-0.1,1-0.1s0.1,0.1,0.1,0.2v2
			c0,0.2,0,0.9,0.7,0.9c0.3,0,0.6-0.2,0.9-0.5V21c0-0.2-0.4-0.2-0.6-0.3v-0.1c0.7,0,1.1-0.1,1.2-0.1c0.1,0,0.1,0.1,0.1,0.1
			L42.2,23.4z"/>
		<path class="st3" d="M43.7,22.9c0,0.2,0.1,0.4,0.2,0.5c0.1,0.1,0.3,0.2,0.5,0.2c0.8,0,1.1-0.8,1.1-1.5c0-0.8-0.6-1.5-1.2-1.5
			c-0.3,0-0.5,0.2-0.7,0.4V22.9z M43.7,20.8c0.3-0.3,0.7-0.6,1.1-0.6c0.9,0,1.4,0.8,1.4,1.6c0,1-0.7,2-1.8,2c-0.4,0-0.7-0.1-1-0.3
			l-0.2,0.2L43,23.7c0.1-0.5,0.1-0.9,0.1-1.4v-3.3c0-0.5-0.1-0.5-0.4-0.6v-0.1c0.3-0.1,0.5-0.2,0.8-0.3c0.1,0,0.1-0.1,0.2-0.1
			c0,0,0.1,0,0.1,0.1V20.8z"/>
		<path class="st3" d="M11.3,28.2L11.3,28.2c0.2,0,0.4,0,0.4-0.2v-2.2c0-0.2-0.2-0.2-0.3-0.2h-0.1v-0.1c0.2,0,0.4,0,0.6,0
			s0.4,0,0.6,0v0.1h-0.1c-0.1,0-0.3,0-0.3,0.2V28c0,0.2,0.2,0.2,0.3,0.2h0.1v0.1c-0.2,0-0.4,0-0.6,0c-0.2,0-0.4,0-0.6,0V28.2z"/>
		<path class="st3" d="M12.5,28.4L12.5,28.4L12.5,28.4c-0.2-0.1-0.4-0.1-0.4-0.3v-2.2c0-0.2,0.2-0.3,0.3-0.3h0v-0.1
			c-0.2,0-0.4,0-0.6,0c-0.2,0-0.4,0-0.6,0v0.1h0c0.1,0,0.3,0,0.3,0.3V28c0,0.2-0.2,0.3-0.3,0.3h0v0.1c0.2,0,0.4,0,0.6,0
			S12.3,28.3,12.5,28.4L12.5,28.4z M12.5,28.4c-0.2,0-0.4,0-0.6,0c-0.2,0-0.4,0-0.6,0h0v-0.2h0.1c0.2,0,0.3,0,0.3-0.2v-2.2
			c0-0.2-0.1-0.2-0.3-0.2h-0.1v-0.2h0c0.2,0,0.4,0,0.6,0s0.4,0,0.6,0h0v0.2h-0.1c-0.2,0-0.3,0-0.3,0.2V28c0,0.2,0.1,0.2,0.3,0.2h0.1
			L12.5,28.4L12.5,28.4z"/>
		<path class="st3" d="M15.3,27.5L15.3,27.5l0-1.6c0-0.1,0-0.1,0-0.2c0,0,0-0.1-0.1-0.1c0,0-0.1-0.1-0.1-0.1c0,0-0.1,0-0.1,0h-0.1
			v-0.1c0.2,0,0.4,0,0.6,0c0.2,0,0.3,0,0.5,0v0.1h-0.1c-0.2,0-0.4,0-0.4,0.5V28c0,0.1,0,0.3,0,0.4h-0.2L13.3,26v1.7
			c0,0.4,0.1,0.5,0.4,0.5h0.1v0.1c-0.2,0-0.4,0-0.5,0c-0.2,0-0.4,0-0.6,0v-0.1h0.1c0.3,0,0.4-0.2,0.4-0.5V26c0,0,0-0.1,0-0.1
			c0,0,0-0.1-0.1-0.1s-0.1-0.1-0.1-0.1c0,0-0.1,0-0.1,0h-0.1v-0.1c0.2,0,0.3,0,0.5,0c0.1,0,0.2,0,0.4,0L15.3,27.5z"/>
		<path class="st3" d="M15.3,27.5L15.3,27.5L15.3,27.5z M15.4,28.4h0.1c0-0.1,0-0.3,0-0.4v-1.9c0-0.5,0.2-0.5,0.4-0.5h0v-0.1
			c-0.2,0-0.3,0-0.5,0c-0.2,0-0.4,0-0.6,0v0.1H15c0.1,0,0.1,0,0.2,0c0,0,0.1,0.1,0.1,0.1c0,0,0.1,0.1,0.1,0.1s0,0.1,0,0.2v1.6v0l0,0
			l-1.8-2.1c-0.1,0-0.2,0-0.4,0c-0.2,0-0.3,0-0.5,0v0.1h0c0.1,0,0.1,0,0.1,0c0,0,0.1,0,0.1,0.1s0.1,0.1,0.1,0.1c0,0,0,0.1,0,0.2v1.8
			c0,0.3-0.1,0.5-0.4,0.5h0v0.1c0.2,0,0.4,0,0.5,0c0.2,0,0.3,0,0.5,0v-0.1h-0.1c-0.3,0-0.4-0.1-0.4-0.5V26L15.4,28.4z M15.6,28.4
			h-0.2l-2.1-2.4v1.7c0,0.4,0.1,0.5,0.4,0.5h0.1v0.2h0c-0.2,0-0.4,0-0.5,0c-0.2,0-0.4,0-0.6,0h0v-0.2h0.1c0.3,0,0.3-0.2,0.4-0.5V26
			c0,0,0-0.1,0-0.1c0,0,0-0.1-0.1-0.1c0,0-0.1-0.1-0.1-0.1c0,0-0.1,0-0.1,0h-0.1v-0.2h0c0.2,0,0.3,0,0.5,0c0.1,0,0.2,0,0.4,0
			l1.8,2.1V26c0-0.3-0.2-0.4-0.3-0.4h-0.1v-0.2h0c0.2,0,0.4,0,0.6,0c0.2,0,0.3,0,0.5,0h0v0.2h-0.1c-0.2,0-0.3,0-0.3,0.5V28
			C15.6,28.1,15.6,28.3,15.6,28.4L15.6,28.4L15.6,28.4z"/>
		<path class="st3" d="M16.6,25.7c-0.3,0-0.3,0.1-0.4,0.4h-0.1c0-0.1,0-0.2,0-0.4c0-0.1,0-0.2,0-0.4h0.1c0,0.1,0.1,0.1,0.2,0.1h2.1
			c0.1,0,0.2,0,0.2-0.1l0.1,0c0,0.1,0,0.2,0,0.3c0,0.1,0,0.2,0,0.3l-0.1,0c0-0.2,0-0.4-0.3-0.4h-0.7v2.2c0,0.3,0.1,0.4,0.3,0.4h0.1
			v0.1c-0.2,0-0.4,0-0.7,0c-0.2,0-0.5,0-0.7,0v-0.1h0.1c0.2,0,0.3,0,0.3-0.4v-2.2H16.6z"/>
		<path class="st3" d="M18.2,28.4c-0.2,0-0.4,0-0.7,0c-0.2,0-0.5,0-0.7,0h0v-0.2h0.1c0.2,0,0.3,0,0.3-0.3v-2.2h-0.7v0h0.7v2.2
			c0,0.3-0.1,0.4-0.4,0.4h-0.1v0.1c0.2,0,0.4,0,0.7,0C17.8,28.3,18,28.4,18.2,28.4l0-0.1h-0.1c-0.2,0-0.4-0.1-0.4-0.4v-2.2h0.7
			c0.3,0,0.3,0.2,0.3,0.4l0.1,0c0-0.1,0-0.2,0-0.3c0-0.1,0-0.2,0-0.3l-0.1,0c0,0.1-0.1,0.1-0.2,0.1h-2.1c-0.1,0-0.2,0-0.2-0.1h-0.1
			c0,0.1,0,0.2,0,0.3c0,0.1,0,0.2,0,0.3h0.1c0.1-0.3,0.1-0.4,0.4-0.4v0c-0.3,0-0.3,0.1-0.4,0.4v0h-0.2v0c0-0.1,0-0.2,0-0.4
			c0-0.1,0-0.2,0-0.4v0h0.1v0c0,0.1,0.1,0.1,0.2,0.1h2.1c0.1,0,0.2,0,0.2-0.1v0h0l0.1,0v0c0,0.1,0,0.2,0,0.3s0,0.2,0,0.3v0h0
			l-0.1,0.1v0c0-0.2,0-0.4-0.3-0.4h-0.7v2.2c0,0.3,0.1,0.3,0.3,0.3h0.1L18.2,28.4L18.2,28.4z"/>
		<path class="st3" d="M19.1,28.2L19.1,28.2c0.2,0,0.4,0,0.4-0.2v-2.2c0-0.2-0.2-0.2-0.3-0.2h-0.1v-0.1c0.2,0,0.7,0,1,0
			c0.3,0,0.8,0,1,0c0,0.2,0,0.5,0,0.6l-0.1,0c0-0.3-0.1-0.5-0.5-0.5H20v1.1h0.5c0.2,0,0.3-0.1,0.3-0.4h0.1c0,0.2,0,0.3,0,0.5
			c0,0.2,0,0.3,0,0.5l-0.1,0c0-0.2,0-0.4-0.3-0.4H20v1c0,0.3,0.2,0.3,0.5,0.3c0.5,0,0.7,0,0.8-0.5l0.1,0c-0.1,0.2-0.1,0.4-0.1,0.7
			c-0.3,0-0.7,0-1.1,0c-0.4,0-0.9,0-1.1,0L19.1,28.2z"/>
		<path class="st3" d="M21.2,28.4c0-0.2,0.1-0.4,0.1-0.6l-0.1,0c-0.1,0.5-0.4,0.5-0.8,0.5c-0.3,0-0.5,0-0.5-0.3v-1h0.5
			c0.3,0,0.3,0.2,0.3,0.4l0.1,0c0-0.2,0-0.3,0-0.5c0-0.2,0-0.3,0-0.5h-0.1c0,0.2-0.1,0.4-0.3,0.4h-0.5v-1.1h0.6
			c0.4,0,0.5,0.2,0.5,0.5l0.1,0c0-0.1,0-0.3,0-0.4c0-0.1,0-0.1,0-0.2c-0.3,0-0.7,0-1,0c-0.3,0-0.7,0-1,0v0.1h0c0.1,0,0.3,0,0.3,0.3
			V28c0,0.2-0.2,0.3-0.3,0.3h0v0.1c0.2,0,0.7,0,1.1,0S21,28.3,21.2,28.4L21.2,28.4z M21.3,28.4c-0.3,0-0.7,0-1.1,0
			c-0.4,0-0.9,0-1.1,0h0v-0.2h0.1c0.2,0,0.3,0,0.3-0.2v-2.2c0-0.2-0.1-0.2-0.3-0.2h-0.1v-0.2h0c0.2,0,0.7,0,1,0s0.8,0,1,0h0v0
			c0,0.1,0,0.1,0,0.2c0,0.1,0,0.3,0,0.4v0h0l-0.1,0v0c0-0.3-0.1-0.5-0.5-0.5H20v1.1h0.5c0.2,0,0.3-0.1,0.3-0.4v0h0.2v0
			c0,0.2,0,0.3,0,0.5c0,0.2,0,0.3,0,0.5v0h0l-0.1,0v0c0-0.3,0-0.4-0.3-0.4H20v0.9c0,0.3,0.2,0.3,0.5,0.3c0.5,0,0.7,0,0.8-0.5v0h0
			l0.1,0v0C21.4,27.9,21.3,28.1,21.3,28.4L21.3,28.4L21.3,28.4z"/>
		<path class="st3" d="M22.5,26.9h0.2c0.4,0,0.6-0.2,0.6-0.7c0-0.1,0-0.2,0-0.2c0-0.1-0.1-0.1-0.1-0.2c-0.1-0.1-0.1-0.1-0.2-0.1
			c-0.1,0-0.2,0-0.2,0c-0.1,0-0.2,0-0.2,0V26.9z M22,25.9c0-0.3-0.2-0.3-0.3-0.3h-0.1v-0.1c0.1,0,0.4,0,0.6,0c0.2,0,0.4,0,0.7,0
			c0.5,0,1,0.1,1,0.7c0,0.4-0.2,0.6-0.6,0.7L24,28c0,0.1,0.1,0.1,0.2,0.2c0.1,0,0.2,0.1,0.2,0.1v0.1c-0.1,0-0.3,0-0.4,0
			s-0.3,0-0.4,0c-0.3-0.4-0.6-0.9-0.9-1.4h-0.3v0.9c0,0.3,0.2,0.3,0.3,0.3h0.1v0.1c-0.2,0-0.5,0-0.7,0c-0.2,0-0.4,0-0.6,0v-0.1h0.1
			c0.2,0,0.3-0.1,0.3-0.2V25.9z"/>
		<path class="st3" d="M22.7,26.8c0.4,0,0.6-0.1,0.6-0.6c0-0.1,0-0.2,0-0.2c0-0.1-0.1-0.1-0.1-0.2s-0.1-0.1-0.2-0.1
			c-0.1,0-0.2,0-0.2,0c-0.1,0-0.1,0-0.2,0v1.2L22.7,26.8z M22.5,26.9L22.5,26.9l0-1.3h0c0.1,0,0.2,0,0.2,0c0.1,0,0.2,0,0.2,0
			c0.1,0,0.1,0.1,0.2,0.1c0.1,0.1,0.1,0.1,0.1,0.2c0,0.1,0,0.2,0,0.2c0,0.5-0.2,0.7-0.6,0.7L22.5,26.9z M22.5,27h0.3v0
			c0.3,0.5,0.5,0.9,0.8,1.3c0.1,0,0.3,0,0.4,0c0.1,0,0.3,0,0.4,0v-0.1c-0.1,0-0.2,0-0.2-0.1c-0.1,0-0.1-0.1-0.2-0.2l-0.7-1.1h0
			c0.3-0.1,0.6-0.4,0.6-0.7c0-0.6-0.4-0.7-1-0.7c-0.2,0-0.4,0-0.7,0c-0.2,0-0.5,0-0.6,0v0.1h0.1c0.1,0,0.3,0,0.3,0.3V28
			c0,0.2-0.2,0.2-0.3,0.2h-0.1v0.1c0.2,0,0.4,0,0.6,0c0.2,0,0.5,0,0.7,0v-0.1h-0.1c-0.2,0-0.4,0-0.4-0.4L22.5,27L22.5,27z
			 M24.4,28.4c-0.1,0-0.3,0-0.4,0c-0.1,0-0.3,0-0.4,0C23.3,28,23,27.5,22.7,27h-0.2v0.9c0,0.3,0.1,0.3,0.3,0.3h0.1v0.2h0
			c-0.2,0-0.5,0-0.7,0c-0.2,0-0.4,0-0.6,0h0v-0.2h0.1c0.1,0,0.3-0.1,0.3-0.2v-2.1c0-0.3-0.1-0.3-0.3-0.3h-0.1v-0.2h0
			c0.1,0,0.4,0,0.6,0c0.2,0,0.4,0,0.7,0c0.5,0,1,0.1,1,0.8c0,0.4-0.2,0.6-0.6,0.7L24,28c0,0.1,0.1,0.1,0.2,0.2
			c0.1,0,0.1,0.1,0.2,0.1h0L24.4,28.4L24.4,28.4z"/>
		<path class="st3" d="M27.2,27.5L27.2,27.5V26c0-0.1,0-0.1,0-0.2c0,0,0-0.1-0.1-0.1c0,0-0.1-0.1-0.1-0.1c0,0-0.1,0-0.1,0h-0.1v-0.1
			c0.2,0,0.4,0,0.6,0c0.2,0,0.3,0,0.5,0v0.1h-0.1c-0.2,0-0.4,0-0.4,0.5V28c0,0.1,0,0.3,0,0.4h-0.2L25.1,26v1.7
			c0,0.4,0.1,0.5,0.4,0.5h0.1v0.1c-0.2,0-0.4,0-0.5,0s-0.4,0-0.6,0v-0.1h0.1c0.3,0,0.4-0.2,0.4-0.5V26c0,0,0-0.1,0-0.1
			c0,0,0-0.1-0.1-0.1c0,0-0.1-0.1-0.1-0.1c0,0-0.1,0-0.1,0h-0.1v-0.1c0.2,0,0.3,0,0.5,0c0.1,0,0.2,0,0.4,0L27.2,27.5z"/>
		<path class="st3" d="M27.2,27.5L27.2,27.5L27.2,27.5z M27.3,28.4h0.1c0-0.1,0-0.3,0-0.4v-1.9c0-0.5,0.2-0.5,0.4-0.5h0v-0.1
			c-0.2,0-0.3,0-0.5,0c-0.2,0-0.4,0-0.6,0v0.1h0.1c0.1,0,0.1,0,0.2,0c0,0,0.1,0.1,0.1,0.1c0,0,0.1,0.1,0.1,0.1c0,0.1,0,0.1,0,0.2
			v1.6v0l0,0l-1.8-2.1c-0.1,0-0.2,0-0.4,0c-0.2,0-0.3,0-0.5,0v0.1h0c0.1,0,0.1,0,0.1,0c0,0,0.1,0,0.1,0.1c0,0,0.1,0.1,0.1,0.1
			s0,0.1,0,0.2v1.8c0,0.3-0.1,0.5-0.4,0.5h0v0.1c0.2,0,0.4,0,0.5,0c0.2,0,0.3,0,0.5,0v-0.1h-0.1c-0.3,0-0.4-0.1-0.4-0.5V26
			L27.3,28.4z M27.4,28.4h-0.2l-2.1-2.4v1.7c0,0.4,0.1,0.5,0.4,0.5h0.1v0.2h0c-0.2,0-0.4,0-0.5,0c-0.2,0-0.4,0-0.6,0h0v-0.2h0.1
			c0.3,0,0.3-0.2,0.4-0.5V26c0,0,0-0.1,0-0.1c0,0,0-0.1-0.1-0.1c0,0-0.1-0.1-0.1-0.1c0,0-0.1,0-0.1,0h-0.1v-0.2h0c0.2,0,0.3,0,0.5,0
			c0.1,0,0.2,0,0.4,0l1.8,2.1V26c0-0.3-0.2-0.4-0.3-0.4h-0.1v-0.2h0c0.2,0,0.4,0,0.6,0c0.2,0,0.3,0,0.5,0h0v0.2h-0.1
			c-0.2,0-0.3,0-0.3,0.5V28C27.4,28.1,27.4,28.3,27.4,28.4L27.4,28.4L27.4,28.4z"/>
		<path class="st3" d="M29.1,25.9L29.1,25.9l-0.4,1.2h0.8L29.1,25.9z M28.5,27.8c0,0.1-0.1,0.2-0.1,0.3c0,0.1,0.2,0.1,0.3,0.1h0v0.1
			c-0.2,0-0.3,0-0.5,0c-0.2,0-0.3,0-0.4,0v-0.1h0c0.1,0,0.2,0,0.2-0.1c0.1,0,0.1-0.1,0.1-0.2l0.7-1.9c0.1-0.2,0.1-0.3,0.2-0.5
			c0.1,0,0.3-0.1,0.4-0.2c0,0,0,0,0,0c0,0,0,0,0,0c0,0,0,0,0,0c0,0,0,0.1,0,0.1l0.8,2.2c0,0.1,0.1,0.3,0.2,0.4
			c0,0.1,0.1,0.1,0.1,0.1c0,0,0.1,0,0.2,0h0v0.1c-0.2,0-0.4,0-0.6,0s-0.4,0-0.6,0v-0.1h0c0.1,0,0.3,0,0.3-0.1c0-0.1,0-0.2-0.1-0.3
			l-0.2-0.5h-0.9L28.5,27.8z"/>
		<path class="st3" d="M29,25.9L29,25.9L29,25.9z M28.7,27.1h0.7L29.1,26L28.7,27.1z M28.6,27.1l0.4-1.2h0v0v0h0l0.4,1.2H28.6z
			 M29.5,28.3c0.2,0,0.4,0,0.6,0c0.2,0,0.4,0,0.5,0v-0.1c-0.1,0-0.1,0-0.2,0s-0.1-0.1-0.1-0.1c-0.1-0.1-0.1-0.3-0.2-0.4l-0.8-2.2
			c0,0,0-0.1,0-0.1c0,0,0,0,0,0c-0.1,0.1-0.2,0.1-0.4,0.2c0,0.2-0.1,0.4-0.2,0.5L28.2,28c0,0.1-0.1,0.2-0.1,0.2
			c-0.1,0.1-0.1,0.1-0.2,0.1v0.1c0.1,0,0.3,0,0.4,0c0.1,0,0.3,0,0.5,0v-0.1h0c-0.1,0-0.3,0-0.3-0.2c0-0.1,0.1-0.2,0.1-0.3h0h0
			l0.1-0.4h1l0.2,0.5c0,0.1,0.1,0.2,0.1,0.3C29.8,28.2,29.6,28.3,29.5,28.3L29.5,28.3L29.5,28.3z M30.6,28.4c-0.2,0-0.4,0-0.6,0
			c-0.2,0-0.4,0-0.6,0h0v-0.2h0.1c0.1,0,0.2,0,0.2-0.1c0-0.1,0-0.2-0.1-0.3l-0.2-0.5h-0.9l-0.1,0.4c0,0.1-0.1,0.2-0.1,0.3
			c0,0.1,0.2,0.1,0.3,0.1h0.1v0.2h0c-0.2,0-0.3,0-0.5,0c-0.2,0-0.3,0-0.4,0h0v-0.2h0c0.1,0,0.2,0,0.2-0.1c0.1,0,0.1-0.1,0.1-0.2
			l0.7-1.9c0.1-0.2,0.1-0.4,0.2-0.5c0.1,0,0.3-0.1,0.4-0.2c0,0,0,0,0,0c0,0,0,0,0,0c0,0,0,0,0,0c0,0,0,0.1,0,0.1l0.8,2.2
			c0,0.1,0.1,0.3,0.2,0.4c0,0.1,0.1,0.1,0.1,0.1c0,0,0.1,0,0.2,0h0L30.6,28.4L30.6,28.4z"/>
		<path class="st3" d="M30.8,25.7c-0.3,0-0.3,0.1-0.4,0.4h-0.1c0-0.1,0-0.2,0-0.4c0-0.1,0-0.2,0-0.4h0.1c0,0.1,0.1,0.1,0.2,0.1h2.1
			c0.1,0,0.2,0,0.2-0.1l0.1,0c0,0.1,0,0.2,0,0.3c0,0.1,0,0.2,0,0.3l-0.1,0c0-0.2,0-0.4-0.3-0.4H32v2.2c0,0.3,0.1,0.4,0.3,0.4h0.1
			v0.1c-0.2,0-0.4,0-0.7,0c-0.2,0-0.5,0-0.7,0v-0.1h0.1c0.2,0,0.3,0,0.3-0.4v-2.2H30.8z"/>
		<path class="st3" d="M32.4,28.4c-0.2,0-0.4,0-0.7,0c-0.2,0-0.5,0-0.7,0h0v-0.2h0.1c0.2,0,0.3,0,0.3-0.3v-2.2h-0.7v0h0.7v2.2
			c0,0.3-0.1,0.4-0.4,0.4h-0.1v0.1c0.2,0,0.4,0,0.7,0C32,28.3,32.3,28.4,32.4,28.4l0-0.1h-0.1c-0.2,0-0.4,0-0.4-0.4v-2.2h0.7
			c0.3,0,0.3,0.2,0.3,0.4l0.1,0c0-0.1,0-0.2,0-0.3c0-0.1,0-0.2,0-0.3l-0.1,0c0,0.1-0.1,0.1-0.2,0.1h-2.1c-0.1,0-0.2,0-0.2-0.1h-0.1
			c0,0.1,0,0.2,0,0.3c0,0.1,0,0.2,0,0.3h0.1c0.1-0.3,0.1-0.4,0.4-0.4v0c-0.3,0-0.3,0.1-0.4,0.4v0h-0.2v0c0-0.1,0-0.2,0-0.4
			c0-0.1,0-0.2,0-0.4v0h0.1v0c0,0.1,0.1,0.1,0.2,0.1h2.1c0.1,0,0.2,0,0.2-0.1v0h0l0.1,0v0c0,0.1,0,0.2,0,0.3c0,0.1,0,0.2,0,0.3v0h0
			L33,26.1v0c0-0.2,0-0.4-0.3-0.4H32v2.2c0,0.3,0.1,0.3,0.3,0.3h0.1L32.4,28.4L32.4,28.4z"/>
		<path class="st3" d="M33.3,28.2L33.3,28.2c0.2,0,0.4,0,0.4-0.2v-2.2c0-0.2-0.2-0.2-0.3-0.2h-0.1v-0.1c0.2,0,0.4,0,0.6,0
			c0.2,0,0.5,0,0.6,0v0.1h-0.1c-0.1,0-0.3,0-0.3,0.2V28c0,0.2,0.2,0.2,0.3,0.2h0.1v0.1c-0.2,0-0.4,0-0.6,0c-0.2,0-0.4,0-0.6,0V28.2z
			"/>
		<path class="st3" d="M34.6,28.4L34.6,28.4L34.6,28.4c-0.2-0.1-0.4-0.1-0.4-0.3v-2.2c0-0.2,0.2-0.3,0.3-0.3h0v-0.1
			c-0.2,0-0.4,0-0.6,0c-0.2,0-0.4,0-0.6,0v0.1h0c0.1,0,0.3,0,0.3,0.3V28c0,0.2-0.2,0.3-0.3,0.3h0v0.1c0.2,0,0.4,0,0.6,0
			C34.1,28.3,34.4,28.3,34.6,28.4L34.6,28.4z M34.6,28.4c-0.2,0-0.4,0-0.6,0c-0.2,0-0.4,0-0.6,0h0v-0.2h0.1c0.1,0,0.3,0,0.3-0.2
			v-2.2c0-0.2-0.1-0.2-0.3-0.2h-0.1v-0.2h0c0.2,0,0.4,0,0.6,0s0.4,0,0.6,0h0v0.2h-0.1c-0.2,0-0.3,0-0.3,0.2V28
			c0,0.2,0.1,0.2,0.3,0.2h0.1L34.6,28.4L34.6,28.4z"/>
		<path class="st3" d="M36.3,28.2c0.8,0,0.9-0.7,0.9-1.3s-0.3-1.3-1-1.3c-0.7,0-0.9,0.7-0.9,1.2C35.3,27.5,35.6,28.2,36.3,28.2
			L36.3,28.2z M36.2,25.4c0.9,0,1.6,0.6,1.6,1.4c0,0.2,0,0.4-0.1,0.6c-0.1,0.2-0.2,0.4-0.3,0.5c-0.1,0.2-0.3,0.3-0.5,0.3
			s-0.4,0.1-0.6,0.1c-0.9,0-1.5-0.6-1.5-1.5c0-0.2,0-0.4,0.1-0.6c0.1-0.2,0.2-0.4,0.3-0.5c0.1-0.1,0.3-0.3,0.5-0.3
			C35.8,25.4,36,25.4,36.2,25.4"/>
		<path class="st3" d="M35.2,26.8c0-0.6,0.2-1.2,0.9-1.2c0.7,0,1,0.8,1,1.4c0,0.6-0.1,1.3-0.9,1.3v0c0.8,0,0.9-0.7,0.9-1.3
			c0-0.6-0.3-1.3-1-1.3C35.5,25.6,35.3,26.2,35.2,26.8c0,0.7,0.4,1.4,1,1.4v0C35.6,28.3,35.2,27.5,35.2,26.8L35.2,26.8z M34.7,26.9
			c0-0.2,0-0.4,0.1-0.6c0.1-0.2,0.2-0.4,0.3-0.5c0.1-0.1,0.3-0.3,0.5-0.3c0.2-0.1,0.4-0.1,0.6-0.1v0c-0.2,0-0.4,0-0.6,0.1
			c-0.2,0.1-0.3,0.2-0.5,0.3c-0.1,0.1-0.2,0.3-0.3,0.5C34.7,26.5,34.7,26.7,34.7,26.9c0,0.9,0.7,1.5,1.5,1.5c0.2,0,0.4,0,0.6-0.1
			c0.2-0.1,0.4-0.2,0.5-0.3c0.1-0.1,0.3-0.3,0.3-0.5s0.1-0.4,0.1-0.6c0-0.9-0.7-1.4-1.5-1.4v0c0.9,0,1.6,0.6,1.6,1.5
			c0,0.2,0,0.4-0.1,0.6c-0.1,0.2-0.2,0.4-0.3,0.5c-0.1,0.2-0.3,0.3-0.5,0.4c-0.2,0.1-0.4,0.1-0.6,0.1C35.3,28.5,34.7,27.8,34.7,26.9
			"/>
		<path class="st3" d="M40.5,27.5L40.5,27.5l0-1.6c0-0.1,0-0.1,0-0.2c0,0,0-0.1-0.1-0.1c0,0-0.1-0.1-0.1-0.1c0,0-0.1,0-0.1,0h-0.1
			v-0.1c0.2,0,0.4,0,0.6,0c0.2,0,0.3,0,0.5,0v0.1h-0.1c-0.2,0-0.4,0-0.4,0.5V28c0,0.1,0,0.3,0,0.4h-0.2L38.5,26v1.7
			c0,0.4,0.1,0.5,0.4,0.5H39v0.1c-0.2,0-0.4,0-0.5,0c-0.2,0-0.4,0-0.6,0v-0.1h0.1c0.3,0,0.4-0.2,0.4-0.5V26c0,0,0-0.1,0-0.1
			c0,0,0-0.1-0.1-0.1s-0.1-0.1-0.1-0.1c0,0-0.1,0-0.1,0h-0.1v-0.1c0.2,0,0.3,0,0.5,0c0.1,0,0.2,0,0.4,0L40.5,27.5z"/>
		<path class="st3" d="M40.5,27.5L40.5,27.5L40.5,27.5z M40.6,28.4h0.1c0-0.1,0-0.3,0-0.4v-1.9c0-0.5,0.2-0.5,0.4-0.5h0v-0.1
			c-0.2,0-0.3,0-0.5,0c-0.2,0-0.4,0-0.6,0v0.1h0.1c0.1,0,0.1,0,0.2,0c0,0,0.1,0.1,0.1,0.1c0,0,0.1,0.1,0.1,0.1c0,0.1,0,0.1,0,0.2
			v1.6v0l0,0l-1.8-2.1c-0.1,0-0.2,0-0.4,0c-0.2,0-0.3,0-0.5,0v0.1h0c0.1,0,0.1,0,0.1,0c0,0,0.1,0,0.1,0.1c0,0,0.1,0.1,0.1,0.1
			c0,0,0,0.1,0,0.2v1.8c0,0.3-0.1,0.5-0.4,0.5h0v0.1c0.2,0,0.4,0,0.5,0c0.2,0,0.3,0,0.5,0v-0.1h-0.1c-0.3,0-0.4-0.1-0.4-0.5V26
			L40.6,28.4z M40.8,28.4h-0.2l-2.1-2.4v1.7c0,0.4,0.1,0.5,0.4,0.5H39v0.2h0c-0.2,0-0.4,0-0.5,0c-0.2,0-0.4,0-0.6,0h0v-0.2h0.1
			c0.3,0,0.3-0.2,0.4-0.5V26c0,0,0-0.1,0-0.1c0,0,0-0.1-0.1-0.1c0,0-0.1-0.1-0.1-0.1c0,0-0.1,0-0.1,0h-0.1v-0.2h0c0.2,0,0.3,0,0.5,0
			c0.1,0,0.2,0,0.4,0l1.8,2.1V26c0-0.3-0.2-0.4-0.3-0.4h-0.1v-0.2h0c0.2,0,0.4,0,0.6,0c0.2,0,0.3,0,0.5,0h0v0.2h-0.1
			c-0.2,0-0.3,0-0.3,0.5V28C40.8,28.1,40.8,28.3,40.8,28.4L40.8,28.4L40.8,28.4z"/>
		<path class="st3" d="M42.4,25.9L42,27.1h0.8L42.4,25.9z M41.8,27.8c0,0.1-0.1,0.2-0.1,0.3c0,0.1,0.2,0.1,0.3,0.1h0v0.1
			c-0.2,0-0.3,0-0.5,0c-0.2,0-0.3,0-0.4,0v-0.1h0c0.1,0,0.2,0,0.2-0.1c0.1,0,0.1-0.1,0.1-0.2l0.7-1.9c0.1-0.2,0.1-0.3,0.2-0.5
			c0.1,0,0.3-0.1,0.4-0.2c0,0,0,0,0,0c0,0,0,0,0,0c0,0,0,0.1,0,0.1l0.8,2.2c0,0.1,0.1,0.3,0.2,0.4c0,0.1,0.1,0.1,0.1,0.1
			c0,0,0.1,0,0.2,0h0v0.1c-0.2,0-0.4,0-0.6,0c-0.2,0-0.4,0-0.6,0v-0.1h0c0.1,0,0.3,0,0.3-0.1c0-0.1,0-0.2-0.1-0.3l-0.2-0.5H42
			L41.8,27.8z"/>
		<path class="st3" d="M42.4,25.9L42.4,25.9L42.4,25.9z M42.1,27.1h0.7L42.4,26L42.1,27.1z M42,27.1l0.4-1.2h0v0v0h0l0.4,1.2H42z
			 M42.8,28.3c0.2,0,0.4,0,0.6,0c0.2,0,0.4,0,0.5,0v-0.1h0c-0.1,0-0.1,0-0.2,0c-0.1,0-0.1-0.1-0.1-0.1c-0.1-0.1-0.1-0.3-0.2-0.4
			l-0.8-2.2l0-0.1h0c0,0,0,0,0,0c-0.1,0.1-0.2,0.1-0.4,0.2c0,0.2-0.1,0.4-0.2,0.5L41.5,28c0,0.1-0.1,0.2-0.1,0.2
			c-0.1,0.1-0.1,0.1-0.2,0.1v0.1c0.1,0,0.3,0,0.4,0c0.1,0,0.3,0,0.5,0v-0.1h0c-0.1,0-0.3,0-0.3-0.2c0-0.1,0.1-0.2,0.1-0.3h0h0
			l0.1-0.4h1l0.2,0.5c0,0.1,0.1,0.2,0.1,0.3C43.1,28.3,43,28.3,42.8,28.3L42.8,28.3L42.8,28.3z M44,28.4c-0.2,0-0.4,0-0.6,0
			c-0.2,0-0.4,0-0.6,0h0v-0.2h0.1c0.1,0,0.2,0,0.2-0.1c0-0.1,0-0.2-0.1-0.3l-0.2-0.5H42l-0.1,0.4c0,0.1-0.1,0.2-0.1,0.3
			c0,0.1,0.2,0.1,0.3,0.1h0.1v0.2h0c-0.2,0-0.3,0-0.5,0c-0.2,0-0.3,0-0.4,0h0v-0.2h0c0.1,0,0.2,0,0.2-0.1s0.1-0.1,0.1-0.2l0.7-1.9
			c0.1-0.2,0.1-0.4,0.2-0.5c0.1,0,0.3-0.1,0.4-0.2c0,0,0,0,0,0c0,0,0,0,0,0c0,0,0,0,0,0l0,0.1l0.8,2.2c0,0.1,0.1,0.3,0.2,0.4
			c0,0.1,0.1,0.1,0.1,0.1c0,0,0.1,0,0.2,0h0L44,28.4L44,28.4z"/>
		<path class="st3" d="M45,28c0,0.2,0.1,0.2,0.2,0.2c0.2,0,0.4,0,0.5,0c0.1,0,0.2,0,0.2-0.1c0.1,0,0.1-0.1,0.2-0.2
			c0.1-0.1,0.1-0.2,0.1-0.3h0.1c0,0.2-0.1,0.5-0.2,0.7c-0.4,0-0.7,0-1.1,0c-0.4,0-0.7,0-1.1,0v-0.1h0.1c0.2,0,0.3,0,0.3-0.3v-2.1
			c0-0.2-0.2-0.2-0.3-0.2h-0.1v-0.1c0.2,0,0.4,0,0.6,0s0.4,0,0.6,0v0.1h-0.1c-0.2,0-0.3,0-0.3,0.2L45,28z"/>
		<path class="st3" d="M46.3,28.4c0-0.2,0.1-0.4,0.1-0.7h-0.1c0,0.1-0.1,0.2-0.1,0.3c-0.1,0.1-0.2,0.2-0.4,0.2c-0.1,0-0.2,0-0.3,0
			s-0.2,0-0.2,0c-0.1,0-0.3-0.1-0.3-0.3v-2.2c0-0.2,0.1-0.2,0.3-0.2h0.1v-0.1c-0.2,0-0.4,0-0.6,0c-0.2,0-0.4,0-0.6,0v0.1h0
			c0.1,0,0.3,0,0.3,0.3V28c0,0.3-0.2,0.3-0.3,0.3h0v0.1c0.4,0,0.7,0,1.1,0C45.6,28.3,45.9,28.3,46.3,28.4L46.3,28.4z M46.3,28.4
			c-0.4,0-0.7,0-1.1,0c-0.4,0-0.7,0-1.1,0h0v-0.2h0.1c0.2,0,0.3,0,0.3-0.3v-2.1c0-0.2-0.1-0.2-0.3-0.2h-0.1v-0.2h0
			c0.2,0,0.4,0,0.6,0s0.4,0,0.6,0h0v0.2h-0.1c-0.2,0-0.3,0-0.3,0.2V28c0,0.2,0.1,0.2,0.2,0.2c0.1,0,0.2,0,0.2,0c0.1,0,0.2,0,0.3,0
			c0.1,0,0.1,0,0.2-0.1c0.1,0,0.1-0.1,0.2-0.1c0.1-0.1,0.1-0.2,0.1-0.3v0h0.2v0C46.4,27.9,46.4,28.1,46.3,28.4L46.3,28.4L46.3,28.4z
			"/>
		<path class="st3" d="M46.3,25.8L46.3,25.8c0.1,0,0.1,0,0.1-0.1c0,0,0,0,0,0c0,0,0,0,0,0c0,0,0,0,0,0c0,0,0,0,0,0h0V25.8z M46.2,26
			L46.2,26C46.2,26,46.3,26,46.2,26l0.1-0.4c0,0,0-0.1-0.1-0.1v0h0.2c0.1,0,0.1,0,0.1,0.1c0,0,0,0.1,0,0.1c0,0,0,0-0.1,0l0.1,0.1
			c0,0,0.1,0.1,0.1,0.1v0h-0.1c0,0-0.1-0.1-0.2-0.2h0V26c0,0,0,0,0.1,0v0L46.2,26z M46.4,26.1c0.1,0,0.1,0,0.2-0.1
			c0.1,0,0.1-0.1,0.1-0.2c0-0.1,0-0.1,0-0.2c0-0.1,0-0.1-0.1-0.2c0-0.1-0.1-0.1-0.2-0.1c-0.1,0-0.1,0-0.2,0s-0.1,0.1-0.2,0.1
			c0,0.1-0.1,0.1-0.1,0.2c0,0.1,0,0.2,0.1,0.3C46.2,26.1,46.3,26.1,46.4,26.1z M46.4,25.3c0.1,0,0.2,0,0.2,0.1s0.1,0.1,0.2,0.2
			c0,0.1,0,0.2,0,0.3c0,0.1-0.1,0.2-0.1,0.2c-0.1,0.1-0.1,0.1-0.2,0.1c-0.1,0-0.2,0-0.2,0c-0.1,0-0.1-0.1-0.2-0.2
			c0-0.1-0.1-0.2-0.1-0.2c0-0.1,0-0.1,0-0.2c0-0.1,0.1-0.1,0.1-0.1c0,0,0.1-0.1,0.1-0.1C46.3,25.3,46.4,25.3,46.4,25.3z"/>
		<path class="st1" d="M20.8,10.7c0-1.4,0.4-2.8,1.2-3.9c0.8-1.2,1.8-2.1,3.1-2.6c1.3-0.5,2.7-0.7,4-0.4c1.3,0.3,2.6,0.9,3.5,1.9
			c1,1,1.6,2.2,1.9,3.6c0.3,1.4,0.1,2.8-0.4,4.1c-0.5,1.3-1.4,2.4-2.6,3.2c-1.1,0.8-2.5,1.2-3.9,1.2c-0.9,0-1.8-0.2-2.7-0.5
			c-0.8-0.4-1.6-0.9-2.3-1.5c-0.6-0.7-1.2-1.4-1.5-2.3C21,12.6,20.8,11.6,20.8,10.7z"/>
		<path class="st2" d="M27.8,17.9c-4,0-7.2-3.3-7.2-7.3c0-4.4,3.3-7.4,7.2-7.4h1.9c3.9,0,7.5,3,7.5,7.4c0,4-3.6,7.3-7.5,7.3
			L27.8,17.9z M27.8,3.9c-1.3,0-2.6,0.4-3.7,1.1c-1.1,0.7-1.9,1.8-2.4,3c-0.5,1.2-0.6,2.6-0.4,3.9c0.3,1.3,0.9,2.5,1.8,3.4
			s2.1,1.6,3.4,1.8c1.3,0.3,2.6,0.1,3.8-0.4c1.2-0.5,2.2-1.4,3-2.5s1.1-2.4,1.1-3.7c0-1.8-0.7-3.5-1.9-4.7
			C31.2,4.6,29.5,3.9,27.8,3.9L27.8,3.9z M26.3,14.5V6.6c-0.8,0.3-1.5,0.9-1.9,1.6c-0.5,0.7-0.7,1.5-0.7,2.4c0,0.9,0.3,1.7,0.7,2.4
			C24.8,13.7,25.5,14.2,26.3,14.5z M32,10.6c0-0.9-0.3-1.7-0.7-2.4c-0.5-0.7-1.2-1.3-1.9-1.6v7.9c0.8-0.3,1.5-0.9,1.9-1.6
			C31.7,12.3,32,11.4,32,10.6z"/>
	</g>
</g>
</svg>
