<?xml version="1.0" encoding="utf-8"?>
<!-- Generator: Adobe Illustrator 24.3.0, SVG Export Plug-In . SVG Version: 6.00 Build 0)  -->
<svg version="1.1" id="Layer_1" xmlns="http://www.w3.org/2000/svg" xmlns:xlink="http://www.w3.org/1999/xlink" x="0px" y="0px"
	 viewBox="0 0 56 33" style="enable-background:new 0 0 56 33;" xml:space="preserve">
<style type="text/css">
	.st0{fill:#00AE4D;}
</style>
<path class="st0" d="M46.8,9.4c-3.4,0-6.2,1.4-7.2,4c-1-2.5-3.8-4-7.2-4c-3,0-5.6,1.1-6.8,3.2c-1.2-2-3.7-3.2-6.8-3.2
	c-4.3,0-7.6,2.3-7.6,6.2c0,1,0.2,1.9,0.6,2.7c0,0-0.1,0-0.2,0.1c-0.2,0.1-0.4,0.2-0.7,0.2c-0.6,0.2-1.3,0.3-2,0.3
	c-2,0-3.7-1.2-3.7-3.1c0-2,1.5-3.3,3.5-3.3c0.7,0,1.3,0,1.9,0.3c0,0,0.7-1.5,1.8-2.3c-0.2-0.1-0.5-0.2-0.7-0.3
	c-1-0.5-2.2-0.7-3.5-0.7c-4.3,0-7.6,2.3-7.6,6.2c0,3.9,3.3,6.2,7.6,6.2c1.2,0,2.4-0.2,3.5-0.5c0.4-0.1,1.4-0.4,2.1-0.8
	c1.3,0.8,3,1.3,5,1.3c3,0,5.6-1.1,6.8-3.2c1.2,2,3.8,3.2,6.8,3.2c3,0,5.5-1.1,6.8-3.2v6.3h4.7v-3.6c0.9,0.3,1.9,0.4,3,0.4
	c4.3,0,7.6-2.3,7.6-6.2C54.5,11.6,51.2,9.4,46.8,9.4z M18.9,18.9c-2.1,0-2.9-1.6-2.9-3.3s0.8-3.3,2.9-3.3c2.1,0,2.9,1.6,2.9,3.3
	S21,18.9,18.9,18.9z M32.5,18.9c-2.1,0-2.9-1.6-2.9-3.3s0.8-3.3,2.9-3.3s2.9,1.6,2.9,3.3S34.5,18.9,32.5,18.9z M46.8,18.9
	c-2.1,0-2.9-1.6-2.9-3.3s0.8-3.3,2.9-3.3s2.9,1.6,2.9,3.3S48.9,18.9,46.8,18.9z"/>
</svg>
