<?xml version="1.0" encoding="utf-8"?>
<!-- Generator: Adobe Illustrator 24.3.0, SVG Export Plug-In . SVG Version: 6.00 Build 0)  -->
<svg version="1.1" id="Layer_1" xmlns="http://www.w3.org/2000/svg" xmlns:xlink="http://www.w3.org/1999/xlink" x="0px" y="0px"
	 viewBox="0 0 56 33" style="enable-background:new 0 0 56 33;" xml:space="preserve">
<style type="text/css">
	.st0{fill:#ED1C24;}
	.st1{fill:#FFFFFF;}
</style>
<path class="st0" d="M52.9,17.1H3v9.7h49.9V17.1z"/>
<path class="st1" d="M16.9,21.5h0.9c0.5,0,0.9-0.1,0.9-0.5c0-0.4-0.5-0.5-0.9-0.5h-0.9V21.5z M16.9,23.4H18c0.4,0,0.9-0.1,0.9-0.5
	c0-0.4-0.4-0.5-0.9-0.5h-1.1V23.4z M15,19.6h3.2c1.5,0,2.5,0.4,2.5,1.2c0,0.5-0.6,0.9-1.3,1c0.8,0.1,1.5,0.5,1.5,1.1
	c0,0.6-0.5,1.3-2.4,1.3H15L15,19.6L15,19.6z"/>
<path class="st1" d="M23.6,22.4h1.4l-0.6-1.5L23.6,22.4z M23.5,19.6h2l2.3,4.7h-2l-0.4-0.9h-2.2l-0.4,0.9h-1.5L23.5,19.6z"/>
<path class="st1" d="M28.6,19.6h1.8l2.4,2.5v-2.5h1.4v4.7h-1.4l-2.7-2.7v2.7h-1.5V19.6z"/>
<path class="st1" d="M35.4,19.6h1.9v1.9l1.9-1.9H41l-1.6,1.6l2.1,3.2h-2l-1.3-2l-0.8,0.8v1.2h-1.9V19.6z"/>
<path class="st0" d="M3,14.9h1V6.4H3V5.8h5.7v0.5h-1v8.5h1v0.5H3V14.9z"/>
<path class="st0" d="M47.8,15.3c0.6,0,1-0.5,1-1.7V7.7c0-1.2-0.3-1.7-1-1.7c-0.6,0-1,0.5-1,1.7v5.9C46.8,14.7,47.1,15.3,47.8,15.3z
	 M44,7.1c0.9-1,2.3-1.5,3.8-1.5c3.1,0,5.2,2.2,5.2,5c0,2.8-2.1,5.1-5.2,5.1c-1.3,0-2.5-0.4-3.5-1.2c-1.1-0.9-1.8-2.4-1.8-3.9
	C42.6,9.4,43.1,8,44,7.1z"/>
<path class="st0" d="M39.4,5.8v0.5h0c1,0,1.2,0.2,1.2,1.1v3.5L37,5.8h-4.7v0.5h0c0.2,0,0.6,0,0.7,0.3c0.1,0,0.2,0.2,0.3,0.4v6.8
	c0,0.8,0,1.1-1.1,1.1h0v0.5h3v-0.5h0c-1,0-1.1-0.2-1.1-1.1V7.9l5.4,7.6h1.9v-8c0-0.8,0.1-1.1,1.2-1.1h0.1V5.8H39.4z"/>
<path class="st0" d="M23.8,11.7l1.1-3.3l1.2,3.3H23.8z M31.2,14.9l-3.3-9h-2.6l-2.8,8c-0.2,0.5-0.4,0.8-0.8,1
	c-0.1,0-0.3,0.1-0.4,0.1h-0.4L17,8.4c0,0,1.2-1.2,1.3-1.3c0.4-0.4,1-0.6,1.5-0.7c0.2,0,0.4,0,0.7,0V5.8h-4.4v0.5h0.4
	c0.2,0,0.6,0,0.8,0.3c0.1,0.2,0,0.5-0.2,0.7l-3.1,3.1V6.4H15V5.8H9.5v0.5h1v8.5h-1v0.5H15v-0.5h-0.9v-4.3l2.5,4.3h-1v0.5h8.3v-0.5
	h-0.1c0,0-0.2,0-0.3,0c-0.7-0.2-0.5-0.7-0.4-1.1l0.5-1.4h2.8l0.9,2.5h-0.8v0.5h5.3v-0.5H31.2z"/>
</svg>
