<?xml version="1.0" encoding="utf-8"?>
<!-- Generator: Adobe Illustrator 24.3.0, SVG Export Plug-In . SVG Version: 6.00 Build 0)  -->
<svg version="1.1" id="Layer_1" xmlns="http://www.w3.org/2000/svg" xmlns:xlink="http://www.w3.org/1999/xlink" x="0px" y="0px"
	 viewBox="0 0 56 33" style="enable-background:new 0 0 56 33;" xml:space="preserve">
<style type="text/css">
	.st0{clip-path:url(#SVGID_2_);}
	.st1{fill:#7673C0;}
	.st2{fill:#EB001B;}
	.st3{fill:#00A1DF;}
</style>
<g>
	<defs>
		<path id="SVGID_1_" d="M0,2.6c0-1.1,0.9-2,2-2h52c1.1,0,2,0.9,2,2v28c0,1.1-0.9,2-2,2H2c-1.1,0-2-0.9-2-2V2.6z"/>
	</defs>
	<clipPath id="SVGID_2_">
		<use xlink:href="#SVGID_1_"  style="overflow:visible;"/>
	</clipPath>
	<g class="st0">
		<path d="M19.4,32.4v-2.1c0-0.2,0-0.4-0.1-0.5c-0.1-0.2-0.2-0.3-0.3-0.4c-0.1-0.1-0.3-0.2-0.4-0.3C18.4,29,18.2,29,18,29
			c-0.2,0-0.5,0-0.7,0.1c-0.2,0.1-0.4,0.3-0.5,0.5c-0.1-0.2-0.3-0.3-0.5-0.5C16.2,29,15.9,29,15.7,29c-0.2,0-0.4,0-0.6,0.1
			c-0.2,0.1-0.3,0.2-0.4,0.4V29H14v3.4h0.7v-1.9c0-0.1,0-0.2,0-0.3c0-0.1,0.1-0.2,0.2-0.3c0.1-0.1,0.2-0.2,0.3-0.2
			c0.1,0,0.2-0.1,0.3-0.1c0.5,0,0.7,0.3,0.7,0.9v1.9h0.7v-1.9c0-0.1,0-0.2,0-0.3c0-0.1,0.1-0.2,0.2-0.3c0.1-0.1,0.2-0.2,0.3-0.2
			c0.1,0,0.2-0.1,0.3-0.1c0.5,0,0.7,0.3,0.7,0.9v1.9H19.4z M23.5,30.7V29h-0.7v0.4c-0.1-0.2-0.3-0.3-0.5-0.4S21.9,29,21.7,29
			c-0.5,0-0.9,0.2-1.3,0.5c-0.3,0.3-0.5,0.8-0.5,1.3c0,0.5,0.2,0.9,0.5,1.3c0.3,0.3,0.8,0.5,1.3,0.5c0.2,0,0.4,0,0.6-0.1
			c0.2-0.1,0.3-0.2,0.5-0.4v0.4h0.7L23.5,30.7z M20.8,30.7c0-0.2,0.1-0.4,0.2-0.6c0.1-0.2,0.3-0.3,0.5-0.3c0.2-0.1,0.4-0.1,0.6,0
			c0.2,0,0.4,0.1,0.5,0.3c0.1,0.1,0.2,0.3,0.3,0.5c0,0.2,0,0.4-0.1,0.6c-0.1,0.2-0.2,0.3-0.4,0.4s-0.4,0.2-0.6,0.2
			c-0.1,0-0.3,0-0.4-0.1s-0.2-0.1-0.3-0.2c-0.1-0.1-0.2-0.2-0.2-0.4C20.8,31,20.8,30.9,20.8,30.7L20.8,30.7z M39.3,29
			c0.2,0,0.5,0,0.7,0.1c0.2,0.1,0.4,0.2,0.6,0.4c0.2,0.2,0.3,0.4,0.4,0.6c0.2,0.5,0.2,1,0,1.4c-0.1,0.2-0.2,0.4-0.4,0.6
			c-0.2,0.2-0.4,0.3-0.6,0.4c-0.5,0.2-1,0.2-1.5,0c-0.2-0.1-0.4-0.2-0.6-0.4c-0.2-0.2-0.3-0.4-0.4-0.6c-0.2-0.5-0.2-1,0-1.4
			c0.1-0.2,0.2-0.4,0.4-0.6c0.2-0.2,0.4-0.3,0.6-0.4C38.8,29,39,29,39.3,29L39.3,29z M39.3,29.7c-0.1,0-0.3,0-0.4,0.1
			c-0.1,0.1-0.2,0.1-0.3,0.2c-0.1,0.1-0.2,0.2-0.2,0.4c-0.1,0.3-0.1,0.6,0,0.9c0,0.1,0.1,0.3,0.2,0.4c0.1,0.1,0.2,0.2,0.3,0.2
			c0.3,0.1,0.6,0.1,0.8,0c0.1,0,0.3-0.1,0.4-0.2c0.1-0.1,0.2-0.2,0.2-0.4c0.1-0.3,0.1-0.6,0-0.9c0-0.1-0.1-0.3-0.2-0.4
			c-0.1-0.1-0.2-0.2-0.4-0.2C39.6,29.7,39.4,29.7,39.3,29.7L39.3,29.7z M27.5,30.7c0-1.1-0.7-1.8-1.6-1.8c-0.5,0-0.9,0.2-1.2,0.5
			c-0.3,0.3-0.5,0.8-0.5,1.3c0,0.5,0.2,0.9,0.5,1.2c0.3,0.3,0.8,0.5,1.3,0.5c0.5,0,1-0.2,1.4-0.5L27,31.5c-0.3,0.2-0.6,0.3-1,0.4
			c-0.2,0-0.5-0.1-0.7-0.2C25.2,31.5,25,31.3,25,31h2.5C27.5,30.9,27.5,30.8,27.5,30.7z M25,30.4c0-0.2,0.1-0.4,0.3-0.6
			c0.2-0.2,0.4-0.2,0.6-0.2c0.1,0,0.2,0,0.3,0.1c0.1,0,0.2,0.1,0.3,0.2c0.1,0.1,0.1,0.2,0.2,0.3c0,0.1,0.1,0.2,0.1,0.3L25,30.4z
			 M30.6,29.9c-0.3-0.2-0.7-0.3-1.1-0.3c-0.4,0-0.6,0.1-0.6,0.4c0,0.2,0.3,0.3,0.6,0.3l0.4,0c0.7,0.1,1.2,0.4,1.2,1
			c0,0.6-0.6,1.1-1.5,1.1c-0.5,0-1-0.1-1.5-0.4l0.4-0.6c0.3,0.2,0.7,0.4,1.1,0.4c0.5,0,0.8-0.1,0.8-0.4c0-0.2-0.2-0.3-0.6-0.4
			l-0.4,0c-0.8-0.1-1.2-0.4-1.2-1c0-0.7,0.6-1.1,1.4-1.1c0.5,0,1,0.1,1.4,0.4L30.6,29.9z M34.2,29.7H33v1.5c0,0.4,0.1,0.6,0.5,0.6
			c0.2,0,0.5-0.1,0.7-0.2l0.2,0.6c-0.3,0.2-0.6,0.3-0.9,0.3c-0.9,0-1.2-0.5-1.2-1.3v-1.5h-0.7V29h0.7v-1H33v1h1.2V29.7z M36.7,29
			c0.2,0,0.4,0,0.5,0.1L37,29.8c-0.1-0.1-0.3-0.1-0.5-0.1c-0.5,0-0.7,0.3-0.7,0.9v1.9h-0.7v-3.4h0.7v0.4c0.1-0.2,0.2-0.3,0.4-0.4
			C36.4,29,36.6,29,36.7,29L36.7,29z M41.8,31.9c0,0,0.1,0,0.1,0c0,0,0.1,0,0.1,0.1c0,0,0.1,0.1,0.1,0.1c0,0,0,0.1,0,0.1
			s0,0.1,0,0.1c0,0,0,0.1-0.1,0.1c0,0-0.1,0.1-0.1,0.1c0,0-0.1,0-0.1,0c-0.1,0-0.1,0-0.2-0.1c-0.1,0-0.1-0.1-0.1-0.1
			c0,0,0-0.1,0-0.1c0,0,0-0.1,0-0.1c0,0,0-0.1,0.1-0.1c0,0,0.1-0.1,0.1-0.1C41.7,31.9,41.8,31.9,41.8,31.9L41.8,31.9z M41.8,32.5
			c0,0,0.1,0,0.1,0c0,0,0.1,0,0.1-0.1c0,0,0.1-0.1,0.1-0.1c0,0,0-0.1,0-0.1c0,0,0-0.1-0.1-0.1c0,0-0.1-0.1-0.1-0.1c0,0-0.1,0-0.1,0
			c0,0-0.1,0-0.1,0c0,0-0.1,0-0.1,0.1c0,0-0.1,0.1-0.1,0.2c0,0.1,0,0.1,0.1,0.2c0,0,0.1,0,0.1,0.1C41.8,32.5,41.8,32.5,41.8,32.5
			L41.8,32.5z M41.9,32.1C41.9,32.1,41.9,32.1,41.9,32.1c0.1,0,0.1,0,0.1,0.1c0,0,0,0,0,0c0,0,0,0,0,0c0,0,0,0,0,0c0,0,0,0-0.1,0
			l0.1,0.1h-0.1l-0.1-0.1h0v0.1h-0.1v-0.3L41.9,32.1z M41.8,32.2L41.8,32.2L41.8,32.2c0.1,0.1,0.1,0.1,0.1,0.1c0,0,0,0,0,0s0,0,0,0
			c0,0,0,0,0,0s0,0,0,0C41.9,32.2,41.9,32.2,41.8,32.2L41.8,32.2z"/>
		<path class="st1" d="M33,3.3H22v20H33V3.3z"/>
		<path class="st2" d="M22.7,13.3c0-1.9,0.4-3.8,1.3-5.6s2.1-3.3,3.6-4.4c-1.9-1.5-4.1-2.4-6.5-2.6c-2.4-0.3-4.8,0.2-6.9,1.2
			c-2.1,1-3.9,2.7-5.2,4.7C7.7,8.6,7,10.9,7,13.3c0,2.4,0.7,4.7,1.9,6.7c1.3,2,3.1,3.6,5.2,4.7c2.1,1,4.5,1.5,6.9,1.2
			c2.4-0.3,4.6-1.2,6.5-2.6c-1.5-1.2-2.7-2.7-3.6-4.4S22.7,15.2,22.7,13.3z"/>
		<path class="st3" d="M46.8,21.2v-0.4H47v-0.1h-0.4v0.1h0.2L46.8,21.2L46.8,21.2z M47.6,21.2v-0.5h-0.1l-0.1,0.4l-0.1-0.4H47v0.5
			h0.1v-0.4l0.1,0.3h0.1l0.1-0.3L47.6,21.2L47.6,21.2z"/>
		<path class="st3" d="M48,13.3c0,2.4-0.7,4.7-1.9,6.7c-1.3,2-3.1,3.6-5.2,4.7c-2.1,1-4.5,1.5-6.9,1.2c-2.4-0.3-4.6-1.2-6.5-2.6
			c1.5-1.2,2.7-2.7,3.6-4.4c0.8-1.7,1.3-3.6,1.3-5.6s-0.4-3.8-1.3-5.6C30.2,6,29,4.5,27.5,3.3c1.9-1.5,4.1-2.4,6.5-2.6
			c2.4-0.3,4.8,0.2,6.9,1.2c2.1,1,3.9,2.7,5.2,4.7C47.3,8.6,48,10.9,48,13.3L48,13.3z"/>
	</g>
</g>
</svg>
