<svg width="192" height="64" viewBox="0 0 192 64" fill="none" xmlns="http://www.w3.org/2000/svg">
<path d="M73.7882 38.1733V38.9004C73.7882 44.138 72.3268 46.1642 70.5697 46.1642C69.258 46.1642 68.7002 45.4122 68.7002 41.709V28.3859C68.7002 24.492 68.522 21.5604 66.2587 19.2188C64.2218 17.1515 60.0089 15.9646 55.6178 15.9521H55.5465C48.1187 15.9521 43.462 19.7801 43.462 24.1926C43.462 26.6876 45.2744 28.4251 47.8709 28.4251H47.9404C50.2804 28.4251 52.1035 26.9353 52.1035 25.0391C52.1035 22.9345 50.0665 21.9276 48.8511 21.3252C48.6586 21.2272 48.427 21.1114 48.2488 21.0098C48.6355 19.9851 50.7758 18.2707 54.8212 18.2707C59.8253 18.2707 61.529 20.345 61.529 25.6753V28.6212C47.2151 30.4852 40.4253 34.4059 40.4253 40.793C40.4253 45.6403 44.1677 48.604 50.7294 48.604C56.0009 48.604 59.7612 46.4333 61.9674 42.1884C62.5128 47.3796 65.7491 48.5327 68.2511 48.5327C74.5972 48.5327 76.0693 45.1092 76.0693 39.3904V38.1715L73.7882 38.1733ZM61.529 33.9069C61.529 41.1262 58.3337 45.8613 53.228 45.8613C50.1075 45.8613 48.5481 43.9705 48.5481 41.0888C48.5481 35.2203 52.2906 32.0927 61.529 30.9308V33.9069Z" fill="white"/>
<path d="M94.1097 17.2123V18.9338L94.4661 18.9499C98.3458 19.153 100.014 19.652 100.014 21.787C100.014 23.0523 99.5059 24.412 98.8679 25.7076C98.8679 25.7076 93.657 36.4199 92.2171 39.4014C91.5969 38.0666 84.6859 23.0808 84.6859 23.0808C84.1762 21.9402 83.8786 21.4769 83.8786 20.7747C83.8786 19.4346 84.8587 19.0229 89.0913 18.9481H89.4637V17.2176H69.096V18.9552H69.4666C74.7417 19.0229 75.6809 21.2719 77.3329 24.8772L88.0452 47.7986C86.6319 50.8585 85.9619 52.147 84.718 54.1109C82.5473 57.5896 80.4623 59.3645 77.7891 59.3645C77.0763 59.3645 76.8428 59.2469 76.7751 59.2059C76.922 59.0222 77.081 58.8483 77.2509 58.6855C77.9495 57.9959 79.0081 56.9444 79.0081 55.198C79.0081 52.5729 77.0478 50.7427 74.2427 50.7427C71.1989 50.7427 68.9944 52.8812 68.9944 55.8217C68.9944 59.4911 72.0739 61.9575 76.6575 61.9575C80.7385 61.9575 84.1245 59.655 86.9474 54.9752C87.3038 54.3853 87.6371 53.7562 87.9685 53.0862L101.513 25.884C103.685 21.607 106.483 19.4685 110.569 18.9463L110.901 18.9017V17.2087L94.1097 17.2123Z" fill="white"/>
<path d="M24.1974 29.0025C36.9092 29.0025 44.0768 23.8344 44.0768 16.0769C44.0768 9.87158 39.4202 2.01782 23.4222 2.01782H1.78735V3.65914H2.1313C9.54131 3.7233 10.4003 4.96365 10.4003 11.0371V38.0378C10.4003 44.1095 9.54131 45.3445 2.1313 45.4122H1.78735V47.0589H27.8293V45.4086H27.4729C19.5086 45.4086 18.6425 44.2396 18.6425 38.0342V28.999L24.1974 29.0025ZM18.6443 9.09992C18.6443 4.62861 18.0045 4.36486 23.6342 4.36486C32.5715 4.36486 35.5173 8.62945 35.5173 16.4476C35.5173 23.74 32.2151 26.6644 22.9178 26.6644H18.6408V9.09992H18.6443Z" fill="white"/>
<path d="M145.046 18.996V2.01782H104.713V3.64489H105.05C112.105 3.70726 112.891 4.95117 112.891 11.0282V38.0449C112.891 44.1219 112.109 45.3676 105.05 45.4318H104.713V47.0589H145.559V28.5249H143.955C142.827 40.2548 137.288 44.6138 126.109 44.6708C120.672 44.6976 121.119 44.1576 121.119 38.4513V24.9322C121.315 24.9322 121.939 24.8787 121.939 24.8787C128.834 24.8787 131.657 27.7105 132.19 35.1954H133.717V13.14H132.199C131.78 20.2916 128.736 22.6244 121.469 22.6244H121.112V9.88227C121.112 4.90128 121.06 4.34526 125.485 4.34526C138.138 4.34526 141.938 9.27279 143.604 18.996H145.046Z" fill="white"/>
<path d="M190.115 45.2768C186.638 45.2768 184.969 44.0293 182.308 41.2225C182.308 41.2225 173.415 32.2406 170.649 29.4035L170.877 29.179C171.246 28.8225 176.5 23.4245 183.994 16.0609C185.856 18.2867 187.023 21.2967 187.736 25.2013H189.39V8.62769H172.809V10.2833C176.824 11.0139 179.891 12.2275 182.131 14.1754C174.958 21.2415 169.479 26.8729 169.095 27.2436L168.855 27.4557L168.406 26.9709C167.884 26.4363 162.901 21.3502 162.901 21.3502C162.883 21.3351 162.867 21.319 162.851 21.302C162.193 20.6177 161.723 20.1223 161.723 19.6001C161.723 18.7447 164.676 18.9978 165.807 18.9978H166.215V17.2121H147.042V18.9942L147.443 19.0031C151.41 19.0726 151.561 20.1187 153.536 22.1592C153.536 22.1592 161.283 29.956 163.017 31.7131L163.605 32.2959C160.778 35.0118 149.501 45.8399 148.225 47.0607H151.998C153.178 45.9344 162.723 36.8314 165.462 34.1867C167.244 36.0633 172.374 41.3151 172.374 41.3151C173.597 42.5733 174.301 43.4323 174.301 44.1202C174.301 45.0807 172.923 45.275 169.667 45.275H168.709V47.0571H190.596V45.2768H190.115Z" fill="white"/>
</svg>
