<svg width="96" height="32" viewBox="0 0 96 32" fill="none" xmlns="http://www.w3.org/2000/svg">
<path d="M36.8941 19.0866V19.4502C36.8941 22.069 36.1634 23.0821 35.2848 23.0821C34.629 23.0821 34.3501 22.7061 34.3501 20.8545V14.193C34.3501 12.246 34.261 10.7802 33.1294 9.60938C32.1109 8.57575 30.0044 7.98231 27.8089 7.97607H27.7732C24.0593 7.97607 21.731 9.89006 21.731 12.0963C21.731 13.3438 22.6372 14.2126 23.9355 14.2126H23.9702C25.1402 14.2126 26.0517 13.4676 26.0517 12.5196C26.0517 11.4672 25.0333 10.9638 24.4256 10.6626C24.3293 10.6136 24.2135 10.5557 24.1244 10.5049C24.3177 9.99253 25.3879 9.13533 27.4106 9.13533C29.9127 9.13533 30.7645 10.1725 30.7645 12.8377V14.3106C23.6076 15.2426 20.2126 17.2029 20.2126 20.3965C20.2126 22.8202 22.0839 24.302 25.3647 24.302C28.0005 24.302 29.8806 23.2167 30.9837 21.0942C31.2564 23.6898 32.8745 24.2663 34.1256 24.2663C37.2986 24.2663 38.0346 22.5546 38.0346 19.6952V19.0857L36.8941 19.0866ZM30.7645 16.9535C30.7645 20.5631 29.1669 22.9306 26.614 22.9306C25.0537 22.9306 24.2741 21.9852 24.2741 20.5444C24.2741 17.6102 26.1453 16.0464 30.7645 15.4654V16.9535Z" fill="#2A9D3F"/>
<path d="M47.0548 8.60615V9.46691L47.2331 9.47493C49.1729 9.57651 50.0069 9.82601 50.0069 10.8935C50.0069 11.5261 49.753 12.206 49.434 12.8538C49.434 12.8538 46.8285 18.2099 46.1085 19.7007C45.7985 19.0333 42.3429 11.5404 42.3429 11.5404C42.0881 10.9701 41.9393 10.7384 41.9393 10.3874C41.9393 9.7173 42.4294 9.51146 44.5456 9.47404H44.7319V8.60882H34.548V9.4776H34.7333C37.3708 9.51146 37.8404 10.636 38.6664 12.4386L44.0226 23.8993C43.316 25.4293 42.9809 26.0735 42.359 27.0554C41.2737 28.7948 40.2311 29.6823 38.8946 29.6823C38.5381 29.6823 38.4214 29.6235 38.3875 29.603C38.461 29.5111 38.5405 29.4242 38.6255 29.3428C38.9747 28.9979 39.504 28.4722 39.504 27.599C39.504 26.2865 38.5239 25.3713 37.1214 25.3713C35.5994 25.3713 34.4972 26.4406 34.4972 27.9108C34.4972 29.7455 36.0369 30.9787 38.3287 30.9787C40.3692 30.9787 42.0623 29.8275 43.4737 27.4876C43.6519 27.1927 43.8185 26.8781 43.9843 26.5431L50.7563 12.942C51.8425 10.8035 53.2414 9.73423 55.2846 9.47315L55.4504 9.45087V8.60437L47.0548 8.60615Z" fill="#2A9D3F"/>
<path d="M12.0987 14.5013C18.4546 14.5013 22.0384 11.9172 22.0384 8.03844C22.0384 4.93579 19.7101 1.00891 11.7111 1.00891H0.893677V1.82957H1.06565C4.77066 1.86165 5.20014 2.48182 5.20014 5.51854V19.0189C5.20014 22.0547 4.77066 22.6722 1.06565 22.7061H0.893677V23.5294H13.9147V22.7043H13.7364C9.75432 22.7043 9.32127 22.1198 9.32127 19.0171V14.4995L12.0987 14.5013ZM9.32216 4.54996C9.32216 2.31431 9.00227 2.18243 11.8171 2.18243C16.2858 2.18243 17.7587 4.31472 17.7587 8.22378C17.7587 11.87 16.1075 13.3322 11.4589 13.3322H9.32038V4.54996H9.32216Z" fill="#2A9D3F"/>
<path d="M72.5229 9.49799V1.00891H52.3566V1.82244H52.525C56.0527 1.85363 56.4456 2.47559 56.4456 5.51408V19.0225C56.4456 22.061 56.0544 22.6838 52.525 22.7159H52.3566V23.5294H72.7795V14.2625H71.9776C71.4136 20.1274 68.6442 22.3069 63.0546 22.3354C60.336 22.3488 60.5596 22.0788 60.5596 19.2256V12.4661C60.6576 12.4661 60.9695 12.4394 60.9695 12.4394C64.417 12.4394 65.8284 13.8552 66.0948 17.5977H66.8585V6.56998H66.0993C65.8899 10.1458 64.368 11.3122 60.7343 11.3122H60.556V4.94114C60.556 2.45064 60.5302 2.17263 62.7427 2.17263C69.0692 2.17263 70.9689 4.63639 71.802 9.49799H72.5229Z" fill="#2A9D3F"/>
<path d="M95.0577 22.6384C93.3192 22.6384 92.4843 22.0146 91.154 20.6112C91.154 20.6112 86.7076 16.1203 85.3247 14.7018L85.4387 14.5895C85.6232 14.4113 88.25 11.7123 91.9969 8.03043C92.928 9.14336 93.5117 10.6484 93.8681 12.6007H94.695V4.31384H86.4046V5.14163C88.4122 5.50697 89.9457 6.11377 91.0657 7.0877C87.4792 10.6207 84.7393 13.4365 84.5477 13.6218L84.4274 13.7278L84.2028 13.4855C83.9418 13.2182 81.4504 10.6751 81.4504 10.6751C81.4416 10.6675 81.4333 10.6595 81.4254 10.651C81.0966 10.3089 80.8614 10.0611 80.8614 9.80007C80.8614 9.37236 82.3379 9.49889 82.9037 9.49889H83.1077V8.60605H73.5209V9.49711L73.7214 9.50156C75.7048 9.53631 75.7806 10.0594 76.7679 11.0796C76.7679 11.0796 80.6413 14.978 81.5083 15.8566L81.8023 16.1479C80.3891 17.5059 74.7505 22.92 74.1125 23.5303H75.9989C76.5888 22.9672 81.3613 18.4157 82.7308 17.0933C83.6219 18.0316 86.1872 20.6576 86.1872 20.6576C86.7985 21.2867 87.1504 21.7161 87.1504 22.0601C87.1504 22.5404 86.4617 22.6375 84.8337 22.6375H84.3543V23.5285H95.2982V22.6384H95.0577Z" fill="#2A9D3F"/>
</svg>
