<svg id="Lager_1" data-name="Lager 1" xmlns="http://www.w3.org/2000/svg" viewBox="0 0 1080 1080"><defs><style>.cls-1{fill:#fff;}</style></defs><title>Rityta 1</title><path class="cls-1" d="M413.55,584.14v4.08c0,29.39-8.2,40.76-18.06,40.76-7.36,0-10.49-4.22-10.49-25V529.22c0-21.85-1-38.3-13.7-51.44-11.43-11.6-35.07-18.26-59.71-18.33h-.4c-41.68,0-67.81,21.48-67.81,46.24,0,14,10.17,23.75,24.74,23.75h.39c13.13,0,23.36-8.36,23.36-19,0-11.81-11.43-17.46-18.25-20.84-1.08-.55-2.38-1.2-3.38-1.77,2.17-5.75,14.18-15.37,36.88-15.37,28.08,0,37.64,11.64,37.64,41.55v16.53C264.44,541,226.34,563,226.34,598.84c0,27.2,21,43.83,57.82,43.83,29.58,0,50.68-12.18,63.06-36,3.06,29.13,21.22,35.6,35.26,35.6,35.61,0,43.87-19.21,43.87-51.3v-6.84ZM344.76,560.2c0,40.51-17.93,67.08-46.58,67.08-17.51,0-26.26-10.61-26.26-26.78,0-32.93,21-50.48,72.84-57V560.2Z"/><path class="cls-1" d="M527.58,466.52v9.66l2,.09c21.77,1.14,31.13,3.94,31.13,15.92,0,7.1-2.85,14.73-6.43,22,0,0-29.24,60.11-37.32,76.84-3.48-7.49-42.26-91.58-42.26-91.58-2.86-6.4-4.53-9-4.53-12.94,0-7.52,5.5-9.83,29.25-10.25l2.09,0v-9.71H387.22v9.75h2.08c29.6.38,34.87,13,44.14,33.23l60.11,128.62c-7.93,17.17-11.69,24.4-18.67,35.42h0C462.7,693.09,451,703.05,436,703.05c-4,0-5.31-.66-5.69-.89a29.93,29.93,0,0,1,2.67-2.92c3.92-3.87,9.86-9.77,9.86-19.57,0-14.73-11-25-26.74-25-17.08,0-29.45,12-29.45,28.5,0,20.59,17.28,34.43,43,34.43,22.9,0,41.9-12.92,57.74-39.18,2-3.31,3.87-6.84,5.73-10.6l76-152.64c12.19-24,27.89-36,50.82-38.93l1.86-.25v-9.5Z"/><path class="cls-1" d="M135.28,532.68c71.33,0,111.55-29,111.55-72.53,0-34.82-26.13-78.89-115.9-78.89H9.53v9.21l1.93,0c41.58.36,46.4,7.32,46.4,41.4V583.38c0,34.07-4.82,41-46.4,41.38l-1.93,0V634H155.66v-9.26h-2c-44.69,0-49.55-6.56-49.55-41.38v-50.7ZM104.12,421c0-25.09-3.59-26.57,28-26.57,50.15,0,66.68,23.93,66.68,67.8,0,40.92-18.53,57.33-70.7,57.33h-24V421Z"/><path class="cls-1" d="M813.4,476.53V381.26H587.08v9.13l1.89,0c39.59.35,44,7.33,44,41.43V583.42c0,34.1-4.39,41.09-44,41.45l-1.89,0V634h229.2V530h-9c-6.33,65.82-37.41,90.28-100.14,90.6-30.51.15-28-2.88-28-34.9V509.84c1.1,0,4.6-.3,4.6-.3,38.69,0,54.53,15.89,57.52,57.89h8.57V443.67h-8.52c-2.35,40.13-19.43,53.22-60.21,53.22h-2v-71.5c0-27.95-.29-31.07,24.54-31.07,71,0,92.32,27.65,101.67,82.21Z"/><path class="cls-1" d="M1066.3,624c-19.51,0-28.88-7-43.81-22.75,0,0-49.9-50.4-65.42-66.32l1.28-1.26c2.07-2,31.55-32.29,73.6-73.61,10.45,12.49,17,29.38,21,51.29h9.28v-93H969.19v9.29c22.53,4.1,39.74,10.91,52.31,21.84-40.25,39.65-71,71.25-73.15,73.33L947,524l-2.52-2.72c-2.93-3-30.89-31.54-30.89-31.54a3.43,3.43,0,0,1-.28-.27c-3.69-3.84-6.33-6.62-6.33-9.55,0-4.8,16.57-3.38,22.92-3.38h2.29V466.52H824.6v10l2.25.05c22.26.39,23.11,6.26,34.19,17.71,0,0,43.47,43.75,53.2,53.61l3.3,3.27c-15.86,15.24-79.14,76-86.3,82.85h21.17c6.62-6.32,60.18-57.4,75.55-72.24,10,10.53,38.79,40,38.79,40,6.86,7.06,10.81,11.88,10.81,15.74,0,5.39-7.73,6.48-26,6.48h-5.38v10H1069V624Z"/></svg>