<svg width="693" height="187" viewBox="0 0 693 187" fill="none" xmlns="http://www.w3.org/2000/svg">
<rect width="693" height="187" rx="2" fill="#F9F8F6"/>
<rect x="361" y="57.4287" width="48" height="48" fill="#E3D1C3"/>
<rect x="297" y="57.4287" width="40" height="40" fill="#E3D1C3"/>
<rect x="241" y="57.4287" width="32" height="32" fill="#E3D1C3"/>
<rect x="189" y="57.4287" width="24" height="24" fill="#E3D1C3"/>
<rect x="150" y="57.4287" width="16" height="16" fill="#E3D1C3"/>
<rect x="116" y="57" width="10" height="8" fill="#E3D1C3"/>
<rect x="433" y="57.4287" width="58" height="58" fill="#E3D1C3"/>
<rect x="515" y="57.4287" width="64" height="64" fill="#E3D1C3"/>
<path d="M545 57.3281V56.8281H544.5V57.3281H545ZM550 57.3281H550.5V56.8281H550V57.3281ZM550 58.3281V58.8281H550.5V58.3281H550ZM548 58.3281V57.8281H547.5V58.3281H548ZM548 120.404V120.904H548.5V120.404H548ZM547 120.404H546.5V120.904H547V120.404ZM547 58.3281H547.5V57.8281H547V58.3281ZM545 58.3281H544.5V58.8281H545V58.3281ZM545 120.422V119.922H544.5V120.422H545ZM545 121.422H544.5V121.922H545V121.422ZM550 121.422V121.922H550.5V121.422H550ZM550 120.422H550.5V119.922H550V120.422ZM545.5 56.8281H545V57.8281H545.5V56.8281ZM547 56.8281H545.5V57.8281H547V56.8281ZM548 56.8281H547V57.8281H548V56.8281ZM549.5 56.8281H548V57.8281H549.5V56.8281ZM550 56.8281H549.5V57.8281H550V56.8281ZM550.5 58.3281V57.3281H549.5V58.3281H550.5ZM549.5 58.8281H550V57.8281H549.5V58.8281ZM548 58.8281H549.5V57.8281H548V58.8281ZM548.5 119.904V58.3281H547.5V119.904H548.5ZM548.5 120.404V119.904H547.5V120.404H548.5ZM547 120.904H548V119.904H547V120.904ZM546.5 119.904V120.404H547.5V119.904H546.5ZM546.5 58.3281V119.904H547.5V58.3281H546.5ZM545.5 58.8281H547V57.8281H545.5V58.8281ZM545 58.8281H545.5V57.8281H545V58.8281ZM544.5 57.3281V58.3281H545.5V57.3281H544.5ZM545 120.922H545.5V119.922H545V120.922ZM545.5 121.422V120.422H544.5V121.422H545.5ZM545.5 120.922H545V121.922H545.5V120.922ZM549.5 120.922H545.5V121.922H549.5V120.922ZM550 120.922H549.5V121.922H550V120.922ZM549.5 120.422V121.422H550.5V120.422H549.5ZM549.5 120.922H550V119.922H549.5V120.922ZM545.5 120.922H549.5V119.922H545.5V120.922Z" fill="#512B2B"/>
<path d="M459 57.2812V56.7812H458.5V57.2812H459ZM464 57.2812H464.5V56.7812H464V57.2812ZM464 58.2812V58.7812H464.5V58.2812H464ZM462 58.2812V57.7812H461.5V58.2812H462ZM462 114.475H461.5V114.975H462V114.475ZM464 114.475H464.5V113.975H464V114.475ZM464 115.475V115.975H464.5V115.475H464ZM459 115.475H458.5V115.975H459V115.475ZM459 114.475V113.975H458.5V114.475H459ZM461 114.475V114.975H461.5V114.475H461ZM461 58.2812H461.5V57.7812H461V58.2812ZM459 58.2812H458.5V58.7812H459V58.2812ZM459.5 56.7812H459V57.7812H459.5V56.7812ZM461 56.7812H459.5V57.7812H461V56.7812ZM462 56.7812H461V57.7812H462V56.7812ZM463.5 56.7812H462V57.7812H463.5V56.7812ZM464 56.7812H463.5V57.7812H464V56.7812ZM464.5 58.2812V57.2812H463.5V58.2812H464.5ZM463.5 58.7812H464V57.7812H463.5V58.7812ZM462 58.7812H463.5V57.7812H462V58.7812ZM462.5 114.053V58.2812H461.5V114.053H462.5ZM462.5 114.475V114.053H461.5V114.475H462.5ZM462 114.975H463.5V113.975H462V114.975ZM463.5 114.975H464V113.975H463.5V114.975ZM463.5 114.475V115.475H464.5V114.475H463.5ZM464 114.975H463.5V115.975H464V114.975ZM463.5 114.975H459.5V115.975H463.5V114.975ZM459.5 114.975H459V115.975H459.5V114.975ZM459.5 115.475V114.475H458.5V115.475H459.5ZM459 114.975H459.5V113.975H459V114.975ZM459.5 114.975H461V113.975H459.5V114.975ZM460.5 114.053V114.475H461.5V114.053H460.5ZM460.5 58.2812V114.053H461.5V58.2812H460.5ZM459.5 58.7812H461V57.7812H459.5V58.7812ZM459 58.7812H459.5V57.7812H459V58.7812ZM458.5 57.2812V58.2812H459.5V57.2812H458.5Z" fill="#512B2B"/>
<path d="M382.345 57.1943V56.6943H381.845V57.1943H382.345ZM386.655 57.1943H387.155V56.6943H386.655V57.1943ZM386.655 58.1943V58.6943H387.155V58.1943H386.655ZM385 58.1943V57.6943H384.5V58.1943H385ZM385 104.515H384.5V105.015H385V104.515ZM386.655 104.515H387.155V104.015H386.655V104.515ZM386.655 105.515V106.015H387.155V105.515H386.655ZM382.345 105.515H381.845V106.015H382.345V105.515ZM382.345 104.515V104.015H381.845V104.515H382.345ZM384 104.515V105.015H384.5V104.515H384ZM384 58.1943H384.5V57.6943H384V58.1943ZM382.345 58.1943H381.845V58.6943H382.345V58.1943ZM382.845 56.6943H382.345V57.6943H382.845V56.6943ZM384 56.6943H382.845V57.6943H384V56.6943ZM385 56.6943H384V57.6943H385V56.6943ZM386.155 56.6943H385V57.6943H386.155V56.6943ZM386.655 56.6943H386.155V57.6943H386.655V56.6943ZM387.155 58.1943V57.1943H386.155V58.1943H387.155ZM386.155 58.6943H386.655V57.6943H386.155V58.6943ZM385 58.6943H386.155V57.6943H385V58.6943ZM385.5 104.251V58.1943H384.5V104.251H385.5ZM385.5 104.515V104.251H384.5V104.515H385.5ZM385 105.015H386.155V104.015H385V105.015ZM386.155 105.015H386.655V104.015H386.155V105.015ZM386.155 104.515V105.515H387.155V104.515H386.155ZM386.655 105.015H386.155V106.015H386.655V105.015ZM386.155 105.015H382.845V106.015H386.155V105.015ZM382.845 105.015H382.345V106.015H382.845V105.015ZM382.845 105.515V104.515H381.845V105.515H382.845ZM382.345 105.015H382.845V104.015H382.345V105.015ZM382.845 105.015H384V104.015H382.845V105.015ZM383.5 104.251V104.515H384.5V104.251H383.5ZM383.5 58.1943V104.251H384.5V58.1943H383.5ZM382.845 58.6943H384V57.6943H382.845V58.6943ZM382.345 58.6943H382.845V57.6943H382.345V58.6943ZM381.845 57.1943V58.1943H382.845V57.1943H381.845Z" fill="#512B2B"/>
<path d="M315.277 57.1104V56.6104H314.777V57.1104H315.277ZM319.032 57.1104H319.532V56.6104H319.032V57.1104ZM319.032 58.1104V58.6104H319.532V58.1104H319.032ZM317.655 58.1104V57.6104H317.155V58.1104H317.655ZM317.655 96.5126H317.155V97.0126H317.655V96.5126ZM319.032 96.5126H319.532V96.0126H319.032V96.5126ZM319.032 97.5126V98.0126H319.532V97.5126H319.032ZM315.277 97.5126H314.777V98.0126H315.277V97.5126ZM315.277 96.5126V96.0126H314.777V96.5126H315.277ZM316.655 96.5126V97.0126H317.155V96.5126H316.655ZM316.655 58.1104H317.155V57.6104H316.655V58.1104ZM315.277 58.1104H314.777V58.6104H315.277V58.1104ZM315.777 56.6104H315.277V57.6104H315.777V56.6104ZM316.655 56.6104H315.777V57.6104H316.655V56.6104ZM317.655 56.6104H316.655V57.6104H317.655V56.6104ZM318.532 56.6104H317.655V57.6104H318.532V56.6104ZM319.032 56.6104H318.532V57.6104H319.032V56.6104ZM319.532 58.1104V57.1104H318.532V58.1104H319.532ZM318.532 58.6104H319.032V57.6104H318.532V58.6104ZM317.655 58.6104H318.532V57.6104H317.655V58.6104ZM318.155 96.3762V58.1104H317.155V96.3762H318.155ZM318.155 96.5126V96.3762H317.155V96.5126H318.155ZM317.655 97.0126H318.532V96.0126H317.655V97.0126ZM318.532 97.0126H319.032V96.0126H318.532V97.0126ZM318.532 96.5126V97.5126H319.532V96.5126H318.532ZM319.032 97.0126H318.532V98.0126H319.032V97.0126ZM318.532 97.0126H315.777V98.0126H318.532V97.0126ZM315.777 97.0126H315.277V98.0126H315.777V97.0126ZM315.777 97.5126V96.5126H314.777V97.5126H315.777ZM315.277 97.0126H315.777V96.0126H315.277V97.0126ZM315.777 97.0126H316.655V96.0126H315.777V97.0126ZM316.155 96.3762V96.5126H317.155V96.3762H316.155ZM316.155 58.1104V96.3762H317.155V58.1104H316.155ZM315.777 58.6104H316.655V57.6104H315.777V58.6104ZM315.277 58.6104H315.777V57.6104H315.277V58.6104ZM314.777 57.1104V58.1104H315.777V57.1104H314.777Z" fill="#512B2B"/>
<path d="M255 57.0098V56.5098H254.5V57.0098H255ZM258.756 57.0098H259.256V56.5098H258.756V57.0098ZM258.756 58.0098V58.5098H259.256V58.0098H258.756ZM257.378 58.0098V57.5098H256.878V58.0098H257.378ZM257.378 88.5283H256.878V89.0283H257.378V88.5283ZM258.756 88.5283H259.256V88.0283H258.756V88.5283ZM258.756 89.5283V90.0283H259.256V89.5283H258.756ZM255 89.5283H254.5V90.0283H255V89.5283ZM255 88.5283V88.0283H254.5V88.5283H255ZM256.378 88.5283V89.0283H256.878V88.5283H256.378ZM256.378 58.0098H256.878V57.5098H256.378V58.0098ZM255 58.0098H254.5V58.5098H255V58.0098ZM255.5 56.5098H255V57.5098H255.5V56.5098ZM256.378 56.5098H255.5V57.5098H256.378V56.5098ZM257.378 56.5098H256.378V57.5098H257.378V56.5098ZM258.256 56.5098H257.378V57.5098H258.256V56.5098ZM258.756 56.5098H258.256V57.5098H258.756V56.5098ZM259.256 58.0098V57.0098H258.256V58.0098H259.256ZM258.256 58.5098H258.756V57.5098H258.256V58.5098ZM257.378 58.5098H258.256V57.5098H257.378V58.5098ZM257.878 88.5191V58.0098H256.878V88.5191H257.878ZM257.878 88.5283V88.5191H256.878V88.5283H257.878ZM257.378 89.0283H258.256V88.0283H257.378V89.0283ZM258.256 89.0283H258.756V88.0283H258.256V89.0283ZM258.256 88.5283V89.5283H259.256V88.5283H258.256ZM258.756 89.0283H258.256V90.0283H258.756V89.0283ZM258.256 89.0283H255.5V90.0283H258.256V89.0283ZM255.5 89.0283H255V90.0283H255.5V89.0283ZM255.5 89.5283V88.5283H254.5V89.5283H255.5ZM255 89.0283H255.5V88.0283H255V89.0283ZM255.5 89.0283H256.378V88.0283H255.5V89.0283ZM255.878 88.5191V88.5283H256.878V88.5191H255.878ZM255.878 58.0098V88.5191H256.878V58.0098H255.878ZM255.5 58.5098H256.378V57.5098H255.5V58.5098ZM255 58.5098H255.5V57.5098H255V58.5098ZM254.5 57.0098V58.0098H255.5V57.0098H254.5Z" fill="#512B2B"/>
<path d="M199 57.418V56.918H198.5V57.418H199ZM202.756 57.418H203.256V56.918H202.756V57.418ZM202.756 58.418V58.918H203.256V58.418H202.756ZM201.378 58.418V57.918H200.878V58.418H201.378ZM201.378 80.564H200.878V81.064H201.378V80.564ZM202.756 80.564H203.256V80.064H202.756V80.564ZM202.756 81.564V82.064H203.256V81.564H202.756ZM199 81.564H198.5V82.064H199V81.564ZM199 80.564V80.064H198.5V80.564H199ZM200.378 80.564V81.064H200.878V80.564H200.378ZM200.378 58.418H200.878V57.918H200.378V58.418ZM199 58.418H198.5V58.918H199V58.418ZM199.5 56.918H199V57.918H199.5V56.918ZM200.378 56.918H199.5V57.918H200.378V56.918ZM201.378 56.918H200.378V57.918H201.378V56.918ZM202.256 56.918H201.378V57.918H202.256V56.918ZM202.756 56.918H202.256V57.918H202.756V56.918ZM203.256 58.418V57.418H202.256V58.418H203.256ZM202.256 58.918H202.756V57.918H202.256V58.918ZM201.378 58.918H202.256V57.918H201.378V58.918ZM201.878 80.564V58.418H200.878V80.564H201.878ZM201.378 81.064H202.256V80.064H201.378V81.064ZM202.256 81.064H202.756V80.064H202.256V81.064ZM202.256 80.564V81.564H203.256V80.564H202.256ZM202.756 81.064H202.256V82.064H202.756V81.064ZM202.256 81.064H199.5V82.064H202.256V81.064ZM199.5 81.064H199V82.064H199.5V81.064ZM199.5 81.564V80.564H198.5V81.564H199.5ZM199 81.064H199.5V80.064H199V81.064ZM199.5 81.064H200.378V80.064H199.5V81.064ZM199.878 58.418V80.564H200.878V58.418H199.878ZM199.5 58.918H200.378V57.918H199.5V58.918ZM199 58.918H199.5V57.918H199V58.918ZM198.5 57.418V58.418H199.5V57.418H198.5Z" fill="#512B2B"/>
<path d="M156 57.25V56.75H155.5V57.25H156ZM159.756 57.25H160.256V56.75H159.756V57.25ZM159.756 58.25V58.75H160.256V58.25H159.756ZM158.378 58.25V57.75H157.878V58.25H158.378ZM158.378 72.5973H157.878V73.0973H158.378V72.5973ZM159.756 72.5973H160.256V72.0973H159.756V72.5973ZM159.756 73.5973V74.0973H160.256V73.5973H159.756ZM156 73.5973H155.5V74.0973H156V73.5973ZM156 72.5973V72.0973H155.5V72.5973H156ZM157.378 72.5973V73.0973H157.878V72.5973H157.378ZM157.378 58.25H157.878V57.75H157.378V58.25ZM156 58.25H155.5V58.75H156V58.25ZM156.5 56.75H156V57.75H156.5V56.75ZM157.378 56.75H156.5V57.75H157.378V56.75ZM158.378 56.75H157.378V57.75H158.378V56.75ZM159.256 56.75H158.378V57.75H159.256V56.75ZM159.756 56.75H159.256V57.75H159.756V56.75ZM160.256 58.25V57.25H159.256V58.25H160.256ZM159.256 58.75H159.756V57.75H159.256V58.75ZM158.378 58.75H159.256V57.75H158.378V58.75ZM158.878 72.5973V58.25H157.878V72.5973H158.878ZM158.378 73.0973H159.256V72.0973H158.378V73.0973ZM159.256 73.0973H159.756V72.0973H159.256V73.0973ZM159.256 72.5973V73.5973H160.256V72.5973H159.256ZM159.756 73.0973H159.256V74.0973H159.756V73.0973ZM159.256 73.0973H156.5V74.0973H159.256V73.0973ZM156.5 73.0973H156V74.0973H156.5V73.0973ZM156.5 73.5973V72.5973H155.5V73.5973H156.5ZM156 73.0973H156.5V72.0973H156V73.0973ZM156.5 73.0973H157.378V72.0973H156.5V73.0973ZM156.878 58.25V72.5973H157.878V58.25H156.878ZM156.5 58.75H157.378V57.75H156.5V58.75ZM156 58.75H156.5V57.75H156V58.75ZM155.5 57.25V58.25H156.5V57.25H155.5Z" fill="#512B2B"/>
<path d="M119 57V56.5H118.5V57H119ZM122.756 57H123.256V56.5H122.756V57ZM122.756 58V58.5H123.256V58H122.756ZM121.378 58V57.5H120.878V58H121.378ZM121.378 64.6781H120.878V65.1781H121.378V64.6781ZM122.756 64.6781H123.256V64.1781H122.756V64.6781ZM122.756 65.6781V66.1781H123.256V65.6781H122.756ZM119 65.6781H118.5V66.1781H119V65.6781ZM119 64.6781V64.1781H118.5V64.6781H119ZM120.378 64.6781V65.1781H120.878V64.6781H120.378ZM120.378 58H120.878V57.5H120.378V58ZM119 58H118.5V58.5H119V58ZM119.5 56.5H119V57.5H119.5V56.5ZM120.378 56.5H119.5V57.5H120.378V56.5ZM121.378 56.5H120.378V57.5H121.378V56.5ZM122.256 56.5H121.378V57.5H122.256V56.5ZM122.756 56.5H122.256V57.5H122.756V56.5ZM123.256 58V57H122.256V58H123.256ZM122.256 58.5H122.756V57.5H122.256V58.5ZM121.378 58.5H122.256V57.5H121.378V58.5ZM121.878 64.6781V58H120.878V64.6781H121.878ZM121.378 65.1781H122.256V64.1781H121.378V65.1781ZM122.256 65.1781H122.756V64.1781H122.256V65.1781ZM122.256 64.6781V65.6781H123.256V64.6781H122.256ZM122.756 65.1781H122.256V66.1781H122.756V65.1781ZM122.256 65.1781H119.5V66.1781H122.256V65.1781ZM119.5 65.1781H119V66.1781H119.5V65.1781ZM119.5 65.6781V64.6781H118.5V65.6781H119.5ZM119 65.1781H119.5V64.1781H119V65.1781ZM119.5 65.1781H120.378V64.1781H119.5V65.1781ZM119.878 58V64.6781H120.878V58H119.878ZM119.5 58.5H120.378V57.5H119.5V58.5ZM119 58.5H119.5V57.5H119V58.5ZM118.5 57V58H119.5V57H118.5Z" fill="#512B2B"/>
<path d="M112.271 83.7705C111.834 83.6104 111.51 83.3818 111.299 83.085C111.088 82.7881 110.982 82.4326 110.982 82.0186C110.982 81.3936 111.207 80.8682 111.656 80.4424C112.105 80.0166 112.703 79.8037 113.449 79.8037C114.199 79.8037 114.803 80.0225 115.26 80.46C115.717 80.8936 115.945 81.4229 115.945 82.0479C115.945 82.4463 115.84 82.7939 115.629 83.0908C115.422 83.3838 115.105 83.6104 114.68 83.7705C115.207 83.9424 115.607 84.2197 115.881 84.6025C116.158 84.9854 116.297 85.4424 116.297 85.9736C116.297 86.708 116.037 87.3252 115.518 87.8252C114.998 88.3252 114.314 88.5752 113.467 88.5752C112.619 88.5752 111.936 88.3252 111.416 87.8252C110.896 87.3213 110.637 86.6943 110.637 85.9443C110.637 85.3857 110.777 84.9189 111.059 84.5439C111.344 84.165 111.748 83.9072 112.271 83.7705ZM112.061 81.9834C112.061 82.3896 112.191 82.7217 112.453 82.9795C112.715 83.2373 113.055 83.3662 113.473 83.3662C113.879 83.3662 114.211 83.2393 114.469 82.9854C114.73 82.7275 114.861 82.4131 114.861 82.042C114.861 81.6553 114.727 81.3311 114.457 81.0693C114.191 80.8037 113.859 80.6709 113.461 80.6709C113.059 80.6709 112.725 80.7998 112.459 81.0576C112.193 81.3154 112.061 81.624 112.061 81.9834ZM111.721 85.9502C111.721 86.251 111.791 86.542 111.932 86.8232C112.076 87.1045 112.289 87.3232 112.57 87.4795C112.852 87.6318 113.154 87.708 113.479 87.708C113.982 87.708 114.398 87.5459 114.727 87.2217C115.055 86.8975 115.219 86.4854 115.219 85.9854C115.219 85.4775 115.049 85.0576 114.709 84.7256C114.373 84.3936 113.951 84.2275 113.443 84.2275C112.947 84.2275 112.535 84.3916 112.207 84.7197C111.883 85.0479 111.721 85.458 111.721 85.9502ZM120.961 90.8135V82.2061H121.922V83.0146C122.148 82.6982 122.404 82.4619 122.689 82.3057C122.975 82.1455 123.32 82.0654 123.727 82.0654C124.258 82.0654 124.727 82.2021 125.133 82.4756C125.539 82.749 125.846 83.1357 126.053 83.6357C126.26 84.1318 126.363 84.6768 126.363 85.2705C126.363 85.9072 126.248 86.4814 126.018 86.9932C125.791 87.501 125.459 87.8916 125.021 88.165C124.588 88.4346 124.131 88.5693 123.65 88.5693C123.299 88.5693 122.982 88.4951 122.701 88.3467C122.424 88.1982 122.195 88.0107 122.016 87.7842V90.8135H120.961ZM121.916 85.3525C121.916 86.1533 122.078 86.7451 122.402 87.1279C122.727 87.5107 123.119 87.7021 123.58 87.7021C124.049 87.7021 124.449 87.5049 124.781 87.1104C125.117 86.7119 125.285 86.0967 125.285 85.2646C125.285 84.4717 125.121 83.8779 124.793 83.4834C124.469 83.0889 124.08 82.8916 123.627 82.8916C123.178 82.8916 122.779 83.1025 122.432 83.5244C122.088 83.9424 121.916 84.5518 121.916 85.3525ZM126.938 88.4287L129.211 85.1943L127.107 82.2061H128.426L129.381 83.665C129.561 83.9424 129.705 84.1748 129.814 84.3623C129.986 84.1045 130.145 83.876 130.289 83.6768L131.338 82.2061H132.598L130.447 85.1357L132.762 88.4287H131.467L130.189 86.4951L129.85 85.9736L128.215 88.4287H126.938Z" fill="#512B2B"/>
<path d="M147.781 96.4287H146.727V89.708C146.473 89.9502 146.139 90.1924 145.725 90.4346C145.314 90.6768 144.945 90.8584 144.617 90.9795V89.96C145.207 89.6826 145.723 89.3467 146.164 88.9521C146.605 88.5576 146.918 88.1748 147.102 87.8037H147.781V96.4287ZM155.961 89.9424L154.912 90.0244C154.818 89.6104 154.686 89.3096 154.514 89.1221C154.229 88.8213 153.877 88.6709 153.459 88.6709C153.123 88.6709 152.828 88.7646 152.574 88.9521C152.242 89.1943 151.98 89.5479 151.789 90.0127C151.598 90.4775 151.498 91.1396 151.49 91.999C151.744 91.6123 152.055 91.3252 152.422 91.1377C152.789 90.9502 153.174 90.8564 153.576 90.8564C154.279 90.8564 154.877 91.1162 155.369 91.6357C155.865 92.1514 156.113 92.8193 156.113 93.6396C156.113 94.1787 155.996 94.6807 155.762 95.1455C155.531 95.6064 155.213 95.96 154.807 96.2061C154.4 96.4521 153.939 96.5752 153.424 96.5752C152.545 96.5752 151.828 96.2529 151.273 95.6084C150.719 94.96 150.441 93.8936 150.441 92.4092C150.441 90.749 150.748 89.542 151.361 88.7881C151.896 88.1318 152.617 87.8037 153.523 87.8037C154.199 87.8037 154.752 87.9932 155.182 88.3721C155.615 88.751 155.875 89.2744 155.961 89.9424ZM151.654 93.6455C151.654 94.0088 151.73 94.3564 151.883 94.6885C152.039 95.0205 152.256 95.2744 152.533 95.4502C152.811 95.6221 153.102 95.708 153.406 95.708C153.852 95.708 154.234 95.5283 154.555 95.1689C154.875 94.8096 155.035 94.3213 155.035 93.7041C155.035 93.1104 154.877 92.6436 154.561 92.3037C154.244 91.96 153.846 91.7881 153.365 91.7881C152.889 91.7881 152.484 91.96 152.152 92.3037C151.82 92.6436 151.654 93.0908 151.654 93.6455ZM160.801 98.8135V90.2061H161.762V91.0146C161.988 90.6982 162.244 90.4619 162.529 90.3057C162.814 90.1455 163.16 90.0654 163.566 90.0654C164.098 90.0654 164.566 90.2021 164.973 90.4756C165.379 90.749 165.686 91.1357 165.893 91.6357C166.1 92.1318 166.203 92.6768 166.203 93.2705C166.203 93.9072 166.088 94.4814 165.857 94.9932C165.631 95.501 165.299 95.8916 164.861 96.165C164.428 96.4346 163.971 96.5693 163.49 96.5693C163.139 96.5693 162.822 96.4951 162.541 96.3467C162.264 96.1982 162.035 96.0107 161.855 95.7842V98.8135H160.801ZM161.756 93.3525C161.756 94.1533 161.918 94.7451 162.242 95.1279C162.566 95.5107 162.959 95.7021 163.42 95.7021C163.889 95.7021 164.289 95.5049 164.621 95.1104C164.957 94.7119 165.125 94.0967 165.125 93.2646C165.125 92.4717 164.961 91.8779 164.633 91.4834C164.309 91.0889 163.92 90.8916 163.467 90.8916C163.018 90.8916 162.619 91.1025 162.271 91.5244C161.928 91.9424 161.756 92.5518 161.756 93.3525ZM166.777 96.4287L169.051 93.1943L166.947 90.2061H168.266L169.221 91.665C169.4 91.9424 169.545 92.1748 169.654 92.3623C169.826 92.1045 169.984 91.876 170.129 91.6768L171.178 90.2061H172.438L170.287 93.1357L172.602 96.4287H171.307L170.029 94.4951L169.689 93.9736L168.055 96.4287H166.777Z" fill="#512B2B"/>
<path d="M241.814 110.161L242.869 110.021C242.99 110.618 243.195 111.05 243.484 111.315C243.777 111.577 244.133 111.708 244.551 111.708C245.047 111.708 245.465 111.536 245.805 111.192C246.148 110.849 246.32 110.423 246.32 109.915C246.32 109.431 246.162 109.032 245.846 108.72C245.529 108.403 245.127 108.245 244.639 108.245C244.439 108.245 244.191 108.284 243.895 108.362L244.012 107.437C244.082 107.444 244.139 107.448 244.182 107.448C244.631 107.448 245.035 107.331 245.395 107.097C245.754 106.862 245.934 106.501 245.934 106.013C245.934 105.626 245.803 105.306 245.541 105.052C245.279 104.798 244.941 104.671 244.527 104.671C244.117 104.671 243.775 104.8 243.502 105.058C243.229 105.315 243.053 105.702 242.975 106.218L241.92 106.03C242.049 105.323 242.342 104.776 242.799 104.39C243.256 103.999 243.824 103.804 244.504 103.804C244.973 103.804 245.404 103.905 245.799 104.108C246.193 104.308 246.494 104.581 246.701 104.929C246.912 105.276 247.018 105.646 247.018 106.036C247.018 106.407 246.918 106.745 246.719 107.05C246.52 107.354 246.225 107.597 245.834 107.776C246.342 107.894 246.736 108.138 247.018 108.509C247.299 108.876 247.439 109.337 247.439 109.892C247.439 110.642 247.166 111.278 246.619 111.802C246.072 112.321 245.381 112.581 244.545 112.581C243.791 112.581 243.164 112.356 242.664 111.907C242.168 111.458 241.885 110.876 241.814 110.161ZM254.031 111.415V112.429H248.354C248.346 112.175 248.387 111.931 248.477 111.696C248.621 111.31 248.852 110.929 249.168 110.554C249.488 110.179 249.949 109.745 250.551 109.253C251.484 108.487 252.115 107.882 252.443 107.437C252.771 106.987 252.936 106.563 252.936 106.165C252.936 105.747 252.785 105.396 252.484 105.11C252.188 104.821 251.799 104.677 251.318 104.677C250.811 104.677 250.404 104.829 250.1 105.134C249.795 105.438 249.641 105.86 249.637 106.399L248.553 106.288C248.627 105.479 248.906 104.864 249.391 104.442C249.875 104.017 250.525 103.804 251.342 103.804C252.166 103.804 252.818 104.032 253.299 104.489C253.779 104.946 254.02 105.513 254.02 106.188C254.02 106.532 253.949 106.87 253.809 107.202C253.668 107.534 253.434 107.884 253.105 108.251C252.781 108.618 252.24 109.122 251.482 109.763C250.85 110.294 250.443 110.655 250.264 110.847C250.084 111.034 249.936 111.224 249.818 111.415H254.031ZM258.801 114.813V106.206H259.762V107.015C259.988 106.698 260.244 106.462 260.529 106.306C260.814 106.146 261.16 106.065 261.566 106.065C262.098 106.065 262.566 106.202 262.973 106.476C263.379 106.749 263.686 107.136 263.893 107.636C264.1 108.132 264.203 108.677 264.203 109.271C264.203 109.907 264.088 110.481 263.857 110.993C263.631 111.501 263.299 111.892 262.861 112.165C262.428 112.435 261.971 112.569 261.49 112.569C261.139 112.569 260.822 112.495 260.541 112.347C260.264 112.198 260.035 112.011 259.855 111.784V114.813H258.801ZM259.756 109.353C259.756 110.153 259.918 110.745 260.242 111.128C260.566 111.511 260.959 111.702 261.42 111.702C261.889 111.702 262.289 111.505 262.621 111.11C262.957 110.712 263.125 110.097 263.125 109.265C263.125 108.472 262.961 107.878 262.633 107.483C262.309 107.089 261.92 106.892 261.467 106.892C261.018 106.892 260.619 107.103 260.271 107.524C259.928 107.942 259.756 108.552 259.756 109.353ZM264.777 112.429L267.051 109.194L264.947 106.206H266.266L267.221 107.665C267.4 107.942 267.545 108.175 267.654 108.362C267.826 108.104 267.984 107.876 268.129 107.677L269.178 106.206H270.438L268.287 109.136L270.602 112.429H269.307L268.029 110.495L267.689 109.974L266.055 112.429H264.777Z" fill="#512B2B"/>
<path d="M192.352 103.415V104.429H186.674C186.666 104.175 186.707 103.931 186.797 103.696C186.941 103.31 187.172 102.929 187.488 102.554C187.809 102.179 188.27 101.745 188.871 101.253C189.805 100.487 190.436 99.8818 190.764 99.4365C191.092 98.9873 191.256 98.5635 191.256 98.165C191.256 97.7471 191.105 97.3955 190.805 97.1104C190.508 96.8213 190.119 96.6768 189.639 96.6768C189.131 96.6768 188.725 96.8291 188.42 97.1338C188.115 97.4385 187.961 97.8604 187.957 98.3994L186.873 98.2881C186.947 97.4795 187.227 96.8643 187.711 96.4424C188.195 96.0166 188.846 95.8037 189.662 95.8037C190.486 95.8037 191.139 96.0322 191.619 96.4893C192.1 96.9463 192.34 97.5127 192.34 98.1885C192.34 98.5322 192.27 98.8701 192.129 99.2021C191.988 99.5342 191.754 99.8838 191.426 100.251C191.102 100.618 190.561 101.122 189.803 101.763C189.17 102.294 188.764 102.655 188.584 102.847C188.404 103.034 188.256 103.224 188.139 103.415H192.352ZM196.869 104.429V102.372H193.143V101.405L197.062 95.8389H197.924V101.405H199.084V102.372H197.924V104.429H196.869ZM196.869 101.405V97.5322L194.18 101.405H196.869ZM203.801 106.813V98.2061H204.762V99.0146C204.988 98.6982 205.244 98.4619 205.529 98.3057C205.814 98.1455 206.16 98.0654 206.566 98.0654C207.098 98.0654 207.566 98.2021 207.973 98.4756C208.379 98.749 208.686 99.1357 208.893 99.6357C209.1 100.132 209.203 100.677 209.203 101.271C209.203 101.907 209.088 102.481 208.857 102.993C208.631 103.501 208.299 103.892 207.861 104.165C207.428 104.435 206.971 104.569 206.49 104.569C206.139 104.569 205.822 104.495 205.541 104.347C205.264 104.198 205.035 104.011 204.855 103.784V106.813H203.801ZM204.756 101.353C204.756 102.153 204.918 102.745 205.242 103.128C205.566 103.511 205.959 103.702 206.42 103.702C206.889 103.702 207.289 103.505 207.621 103.11C207.957 102.712 208.125 102.097 208.125 101.265C208.125 100.472 207.961 99.8779 207.633 99.4834C207.309 99.0889 206.92 98.8916 206.467 98.8916C206.018 98.8916 205.619 99.1025 205.271 99.5244C204.928 99.9424 204.756 100.552 204.756 101.353ZM209.777 104.429L212.051 101.194L209.947 98.2061H211.266L212.221 99.665C212.4 99.9424 212.545 100.175 212.654 100.362C212.826 100.104 212.984 99.876 213.129 99.6768L214.178 98.2061H215.438L213.287 101.136L215.602 104.429H214.307L213.029 102.495L212.689 101.974L211.055 104.429H209.777Z" fill="#512B2B"/>
<path d="M305.189 120.429V118.372H301.463V117.405L305.383 111.839H306.244V117.405H307.404V118.372H306.244V120.429H305.189ZM305.189 117.405V113.532L302.5 117.405H305.189ZM308.488 116.192C308.488 115.177 308.592 114.36 308.799 113.743C309.01 113.122 309.32 112.644 309.73 112.308C310.145 111.972 310.664 111.804 311.289 111.804C311.75 111.804 312.154 111.897 312.502 112.085C312.85 112.269 313.137 112.536 313.363 112.888C313.59 113.235 313.768 113.661 313.896 114.165C314.025 114.665 314.09 115.341 314.09 116.192C314.09 117.2 313.986 118.015 313.779 118.636C313.572 119.253 313.262 119.731 312.848 120.071C312.438 120.407 311.918 120.575 311.289 120.575C310.461 120.575 309.811 120.278 309.338 119.685C308.771 118.97 308.488 117.806 308.488 116.192ZM309.572 116.192C309.572 117.603 309.736 118.542 310.064 119.011C310.396 119.476 310.805 119.708 311.289 119.708C311.773 119.708 312.18 119.474 312.508 119.005C312.84 118.536 313.006 117.599 313.006 116.192C313.006 114.778 312.84 113.839 312.508 113.374C312.18 112.909 311.77 112.677 311.277 112.677C310.793 112.677 310.406 112.882 310.117 113.292C309.754 113.815 309.572 114.782 309.572 116.192ZM318.801 122.813V114.206H319.762V115.015C319.988 114.698 320.244 114.462 320.529 114.306C320.814 114.146 321.16 114.065 321.566 114.065C322.098 114.065 322.566 114.202 322.973 114.476C323.379 114.749 323.686 115.136 323.893 115.636C324.1 116.132 324.203 116.677 324.203 117.271C324.203 117.907 324.088 118.481 323.857 118.993C323.631 119.501 323.299 119.892 322.861 120.165C322.428 120.435 321.971 120.569 321.49 120.569C321.139 120.569 320.822 120.495 320.541 120.347C320.264 120.198 320.035 120.011 319.855 119.784V122.813H318.801ZM319.756 117.353C319.756 118.153 319.918 118.745 320.242 119.128C320.566 119.511 320.959 119.702 321.42 119.702C321.889 119.702 322.289 119.505 322.621 119.11C322.957 118.712 323.125 118.097 323.125 117.265C323.125 116.472 322.961 115.878 322.633 115.483C322.309 115.089 321.92 114.892 321.467 114.892C321.018 114.892 320.619 115.103 320.271 115.524C319.928 115.942 319.756 116.552 319.756 117.353ZM324.777 120.429L327.051 117.194L324.947 114.206H326.266L327.221 115.665C327.4 115.942 327.545 116.175 327.654 116.362C327.826 116.104 327.984 115.876 328.129 115.677L329.178 114.206H330.438L328.287 117.136L330.602 120.429H329.307L328.029 118.495L327.689 117.974L326.055 120.429H324.777Z" fill="#512B2B"/>
<path d="M373.189 128.429V126.372H369.463V125.405L373.383 119.839H374.244V125.405H375.404V126.372H374.244V128.429H373.189ZM373.189 125.405V121.532L370.5 125.405H373.189ZM378.111 123.771C377.674 123.61 377.35 123.382 377.139 123.085C376.928 122.788 376.822 122.433 376.822 122.019C376.822 121.394 377.047 120.868 377.496 120.442C377.945 120.017 378.543 119.804 379.289 119.804C380.039 119.804 380.643 120.022 381.1 120.46C381.557 120.894 381.785 121.423 381.785 122.048C381.785 122.446 381.68 122.794 381.469 123.091C381.262 123.384 380.945 123.61 380.52 123.771C381.047 123.942 381.447 124.22 381.721 124.603C381.998 124.985 382.137 125.442 382.137 125.974C382.137 126.708 381.877 127.325 381.357 127.825C380.838 128.325 380.154 128.575 379.307 128.575C378.459 128.575 377.775 128.325 377.256 127.825C376.736 127.321 376.477 126.694 376.477 125.944C376.477 125.386 376.617 124.919 376.898 124.544C377.184 124.165 377.588 123.907 378.111 123.771ZM377.9 121.983C377.9 122.39 378.031 122.722 378.293 122.979C378.555 123.237 378.895 123.366 379.312 123.366C379.719 123.366 380.051 123.239 380.309 122.985C380.57 122.728 380.701 122.413 380.701 122.042C380.701 121.655 380.566 121.331 380.297 121.069C380.031 120.804 379.699 120.671 379.301 120.671C378.898 120.671 378.564 120.8 378.299 121.058C378.033 121.315 377.9 121.624 377.9 121.983ZM377.561 125.95C377.561 126.251 377.631 126.542 377.771 126.823C377.916 127.104 378.129 127.323 378.41 127.479C378.691 127.632 378.994 127.708 379.318 127.708C379.822 127.708 380.238 127.546 380.566 127.222C380.895 126.897 381.059 126.485 381.059 125.985C381.059 125.478 380.889 125.058 380.549 124.726C380.213 124.394 379.791 124.228 379.283 124.228C378.787 124.228 378.375 124.392 378.047 124.72C377.723 125.048 377.561 125.458 377.561 125.95ZM386.801 130.813V122.206H387.762V123.015C387.988 122.698 388.244 122.462 388.529 122.306C388.814 122.146 389.16 122.065 389.566 122.065C390.098 122.065 390.566 122.202 390.973 122.476C391.379 122.749 391.686 123.136 391.893 123.636C392.1 124.132 392.203 124.677 392.203 125.271C392.203 125.907 392.088 126.481 391.857 126.993C391.631 127.501 391.299 127.892 390.861 128.165C390.428 128.435 389.971 128.569 389.49 128.569C389.139 128.569 388.822 128.495 388.541 128.347C388.264 128.198 388.035 128.011 387.855 127.784V130.813H386.801ZM387.756 125.353C387.756 126.153 387.918 126.745 388.242 127.128C388.566 127.511 388.959 127.702 389.42 127.702C389.889 127.702 390.289 127.505 390.621 127.11C390.957 126.712 391.125 126.097 391.125 125.265C391.125 124.472 390.961 123.878 390.633 123.483C390.309 123.089 389.92 122.892 389.467 122.892C389.018 122.892 388.619 123.103 388.271 123.524C387.928 123.942 387.756 124.552 387.756 125.353ZM392.777 128.429L395.051 125.194L392.947 122.206H394.266L395.221 123.665C395.4 123.942 395.545 124.175 395.654 124.362C395.826 124.104 395.984 123.876 396.129 123.677L397.178 122.206H398.438L396.287 125.136L398.602 128.429H397.307L396.029 126.495L395.689 125.974L394.055 128.429H392.777Z" fill="#512B2B"/>
<path d="M446.809 136.179L447.916 136.085C447.998 136.624 448.188 137.03 448.484 137.304C448.785 137.573 449.146 137.708 449.568 137.708C450.076 137.708 450.506 137.517 450.857 137.134C451.209 136.751 451.385 136.243 451.385 135.61C451.385 135.009 451.215 134.534 450.875 134.187C450.539 133.839 450.098 133.665 449.551 133.665C449.211 133.665 448.904 133.743 448.631 133.899C448.357 134.052 448.143 134.251 447.986 134.497L446.996 134.368L447.828 129.956H452.1V130.964H448.672L448.209 133.272C448.725 132.913 449.266 132.733 449.832 132.733C450.582 132.733 451.215 132.993 451.73 133.513C452.246 134.032 452.504 134.7 452.504 135.517C452.504 136.294 452.277 136.966 451.824 137.532C451.273 138.228 450.521 138.575 449.568 138.575C448.787 138.575 448.148 138.356 447.652 137.919C447.16 137.481 446.879 136.901 446.809 136.179ZM458.961 131.942L457.912 132.024C457.818 131.61 457.686 131.31 457.514 131.122C457.229 130.821 456.877 130.671 456.459 130.671C456.123 130.671 455.828 130.765 455.574 130.952C455.242 131.194 454.98 131.548 454.789 132.013C454.598 132.478 454.498 133.14 454.49 133.999C454.744 133.612 455.055 133.325 455.422 133.138C455.789 132.95 456.174 132.856 456.576 132.856C457.279 132.856 457.877 133.116 458.369 133.636C458.865 134.151 459.113 134.819 459.113 135.64C459.113 136.179 458.996 136.681 458.762 137.146C458.531 137.606 458.213 137.96 457.807 138.206C457.4 138.452 456.939 138.575 456.424 138.575C455.545 138.575 454.828 138.253 454.273 137.608C453.719 136.96 453.441 135.894 453.441 134.409C453.441 132.749 453.748 131.542 454.361 130.788C454.896 130.132 455.617 129.804 456.523 129.804C457.199 129.804 457.752 129.993 458.182 130.372C458.615 130.751 458.875 131.274 458.961 131.942ZM454.654 135.646C454.654 136.009 454.73 136.356 454.883 136.688C455.039 137.021 455.256 137.274 455.533 137.45C455.811 137.622 456.102 137.708 456.406 137.708C456.852 137.708 457.234 137.528 457.555 137.169C457.875 136.81 458.035 136.321 458.035 135.704C458.035 135.11 457.877 134.644 457.561 134.304C457.244 133.96 456.846 133.788 456.365 133.788C455.889 133.788 455.484 133.96 455.152 134.304C454.82 134.644 454.654 135.091 454.654 135.646ZM463.801 140.813V132.206H464.762V133.015C464.988 132.698 465.244 132.462 465.529 132.306C465.814 132.146 466.16 132.065 466.566 132.065C467.098 132.065 467.566 132.202 467.973 132.476C468.379 132.749 468.686 133.136 468.893 133.636C469.1 134.132 469.203 134.677 469.203 135.271C469.203 135.907 469.088 136.481 468.857 136.993C468.631 137.501 468.299 137.892 467.861 138.165C467.428 138.435 466.971 138.569 466.49 138.569C466.139 138.569 465.822 138.495 465.541 138.347C465.264 138.198 465.035 138.011 464.855 137.784V140.813H463.801ZM464.756 135.353C464.756 136.153 464.918 136.745 465.242 137.128C465.566 137.511 465.959 137.702 466.42 137.702C466.889 137.702 467.289 137.505 467.621 137.11C467.957 136.712 468.125 136.097 468.125 135.265C468.125 134.472 467.961 133.878 467.633 133.483C467.309 133.089 466.92 132.892 466.467 132.892C466.018 132.892 465.619 133.103 465.271 133.524C464.928 133.942 464.756 134.552 464.756 135.353ZM469.777 138.429L472.051 135.194L469.947 132.206H471.266L472.221 133.665C472.4 133.942 472.545 134.175 472.654 134.362C472.826 134.104 472.984 133.876 473.129 133.677L474.178 132.206H475.438L473.287 135.136L475.602 138.429H474.307L473.029 136.495L472.689 135.974L471.055 138.429H469.777Z" fill="#512B2B"/>
<path d="M538.281 137.942L537.232 138.024C537.139 137.61 537.006 137.31 536.834 137.122C536.549 136.821 536.197 136.671 535.779 136.671C535.443 136.671 535.148 136.765 534.895 136.952C534.562 137.194 534.301 137.548 534.109 138.013C533.918 138.478 533.818 139.14 533.811 139.999C534.064 139.612 534.375 139.325 534.742 139.138C535.109 138.95 535.494 138.856 535.896 138.856C536.6 138.856 537.197 139.116 537.689 139.636C538.186 140.151 538.434 140.819 538.434 141.64C538.434 142.179 538.316 142.681 538.082 143.146C537.852 143.606 537.533 143.96 537.127 144.206C536.721 144.452 536.26 144.575 535.744 144.575C534.865 144.575 534.148 144.253 533.594 143.608C533.039 142.96 532.762 141.894 532.762 140.409C532.762 138.749 533.068 137.542 533.682 136.788C534.217 136.132 534.938 135.804 535.844 135.804C536.52 135.804 537.072 135.993 537.502 136.372C537.936 136.751 538.195 137.274 538.281 137.942ZM533.975 141.646C533.975 142.009 534.051 142.356 534.203 142.688C534.359 143.021 534.576 143.274 534.854 143.45C535.131 143.622 535.422 143.708 535.727 143.708C536.172 143.708 536.555 143.528 536.875 143.169C537.195 142.81 537.355 142.321 537.355 141.704C537.355 141.11 537.197 140.644 536.881 140.304C536.564 139.96 536.166 139.788 535.686 139.788C535.209 139.788 534.805 139.96 534.473 140.304C534.141 140.644 533.975 141.091 533.975 141.646ZM542.869 144.429V142.372H539.143V141.405L543.062 135.839H543.924V141.405H545.084V142.372H543.924V144.429H542.869ZM542.869 141.405V137.532L540.18 141.405H542.869ZM549.801 146.813V138.206H550.762V139.015C550.988 138.698 551.244 138.462 551.529 138.306C551.814 138.146 552.16 138.065 552.566 138.065C553.098 138.065 553.566 138.202 553.973 138.476C554.379 138.749 554.686 139.136 554.893 139.636C555.1 140.132 555.203 140.677 555.203 141.271C555.203 141.907 555.088 142.481 554.857 142.993C554.631 143.501 554.299 143.892 553.861 144.165C553.428 144.435 552.971 144.569 552.49 144.569C552.139 144.569 551.822 144.495 551.541 144.347C551.264 144.198 551.035 144.011 550.855 143.784V146.813H549.801ZM550.756 141.353C550.756 142.153 550.918 142.745 551.242 143.128C551.566 143.511 551.959 143.702 552.42 143.702C552.889 143.702 553.289 143.505 553.621 143.11C553.957 142.712 554.125 142.097 554.125 141.265C554.125 140.472 553.961 139.878 553.633 139.483C553.309 139.089 552.92 138.892 552.467 138.892C552.018 138.892 551.619 139.103 551.271 139.524C550.928 139.942 550.756 140.552 550.756 141.353ZM555.777 144.429L558.051 141.194L555.947 138.206H557.266L558.221 139.665C558.4 139.942 558.545 140.175 558.654 140.362C558.826 140.104 558.984 139.876 559.129 139.677L560.178 138.206H561.438L559.287 141.136L561.602 144.429H560.307L559.029 142.495L558.689 141.974L557.055 144.429H555.777Z" fill="#512B2B"/>
</svg>
