<?xml version="1.0" encoding="utf-8"?>
<!-- Generator: Adobe Illustrator 24.3.0, SVG Export Plug-In . SVG Version: 6.00 Build 0)  -->
<svg version="1.1" id="Layer_1" xmlns="http://www.w3.org/2000/svg" xmlns:xlink="http://www.w3.org/1999/xlink" x="0px" y="0px"
	 viewBox="0 0 56 33" style="enable-background:new 0 0 56 33;" xml:space="preserve">
<style type="text/css">
	.st0{clip-path:url(#SVGID_2_);}
	.st1{fill:#FF5F00;}
	.st2{fill:#EB001B;}
	.st3{fill:#F79E1B;}
</style>
<g>
	<defs>
		<path id="SVGID_1_" d="M0,2.6c0-1.1,0.9-2,2-2h52c1.1,0,2,0.9,2,2v28c0,1.1-0.9,2-2,2H2c-1.1,0-2-0.9-2-2V2.6z"/>
	</defs>
	<clipPath id="SVGID_2_">
		<use xlink:href="#SVGID_1_"  style="overflow:visible;"/>
	</clipPath>
	<g class="st0">
		<path class="st1" d="M33.3,6.2H20.4V27h12.9V6.2z"/>
		<path class="st2" d="M23.1,16.6c0-2,0.5-4,1.3-5.8c0.9-1.8,2.2-3.4,3.8-4.6c-2-1.5-4.4-2.5-6.9-2.8s-5,0.2-7.3,1.3
			S9.9,7.5,8.5,9.6c-1.3,2.1-2,4.5-2,7c0,2.5,0.7,4.9,2,7c1.3,2.1,3.2,3.8,5.5,4.9s4.8,1.5,7.3,1.3c2.5-0.3,4.9-1.2,6.9-2.8
			c-1.6-1.2-2.9-2.8-3.8-4.6C23.5,20.6,23.1,18.6,23.1,16.6z"/>
		<path class="st3" d="M45.9,24.8v-0.4h0.2v-0.1h-0.4v0.1h0.2L45.9,24.8L45.9,24.8z M46.8,24.8v-0.5h-0.1l-0.2,0.4l-0.2-0.4h-0.1
			v0.5h0.1v-0.4l0.1,0.3h0.1l0.1-0.3L46.8,24.8L46.8,24.8z"/>
		<path class="st3" d="M49.9,16.6c0,2.5-0.7,4.9-2,7c-1.3,2.1-3.2,3.8-5.5,4.9c-2.3,1.1-4.8,1.5-7.3,1.3c-2.5-0.3-4.9-1.2-6.9-2.8
			c1.6-1.2,2.9-2.8,3.8-4.6c0.9-1.8,1.4-3.8,1.4-5.8c0-2-0.5-4-1.4-5.8c-0.9-1.8-2.2-3.4-3.8-4.6c2-1.5,4.4-2.5,6.9-2.8
			c2.5-0.3,5,0.2,7.3,1.3c2.3,1.1,4.2,2.8,5.5,4.9C49.2,11.7,49.9,14.1,49.9,16.6L49.9,16.6z"/>
	</g>
</g>
</svg>
