<?xml version="1.0" encoding="UTF-8" standalone="no"?>
<svg width="775px" height="174px" viewBox="0 0 775 174" version="1.1" xmlns="http://www.w3.org/2000/svg" xmlns:xlink="http://www.w3.org/1999/xlink" xmlns:sketch="http://www.bohemiancoding.com/sketch/ns">
    <!-- Generator: Sketch 3.3.3 (12081) - http://www.bohemiancoding.com/sketch -->
    <title>Slice 1</title>
    <desc>Created with Sketch.</desc>
    <defs>
        <path id="path-1" d="M0,0.761 L774.646,0.761 L774.646,173.94 L0,173.94 L0,0.761 Z"></path>
        <path id="path-3" d="M0,0.761 L774.646,0.761 L774.646,173.94 L0,173.94"></path>
    </defs>
    <g id="Page-1" stroke="none" stroke-width="1" fill="none" fill-rule="evenodd" sketch:type="MSPage">
        <g id="Logo-MyPayEx-2" sketch:type="MSLayerGroup">
            <g id="Group-4">
                <mask id="mask-2" sketch:name="Clip 2" fill="white">
                    <use xlink:href="#path-1"></use>
                </mask>
                <g id="Clip-2"></g>
                <path d="M405.302,93.59 L405.302,97.511 L404.979,101.109 L403.67,107.642 L402.686,110.588 L401.708,113.531 L400.408,116.143 L398.768,118.433 L397.129,120.719 L395.498,122.35 L393.543,123.982 L391.572,125.299 L389.286,126.276 L386.669,127.248 L384.391,127.584 L381.444,127.911 L378.504,127.584 L375.555,126.926 L373.271,125.622 L371.639,123.982 L370,122.027 L369.03,119.738 L368.368,117.124 L368.036,114.18 L368.699,108.297 L369.352,105.361 L370.33,103.063 L371.308,100.773 L372.94,98.492 L374.578,96.533 L376.864,94.579 L379.15,92.936 L382.098,91.299 L385.03,89.995 L388.3,88.683 L391.903,87.71 L396.15,86.728 L405.302,85.089 L405.302,93.59 L405.302,93.59 Z M440.273,105.683 L440.273,113.199 L439.62,117.452 L438.643,121.056 L437.665,123.982 L436.357,125.945 L434.708,127.584 L433.085,128.24 L431.123,128.557 L429.831,128.557 L428.837,128.24 L427.86,127.584 L427.198,126.276 L426.552,124.644 L426.228,122.35 L425.889,115.822 L425.889,77.905 L425.575,70.062 L425.244,66.46 L424.589,63.197 L423.935,59.926 L422.626,56.979 L421.003,54.047 L418.702,51.753 L416.416,49.463 L413.484,47.5 L409.881,46.2 L406.279,44.556 L402.039,43.579 L397.791,42.925 L393.211,42.279 L384.391,42.279 L380.467,42.606 L377.205,43.257 L373.933,44.237 L370.654,45.21 L368.036,46.528 L365.419,47.831 L362.812,49.463 L360.849,51.102 L358.894,52.734 L357.254,54.696 L355.946,56.651 L354.969,58.941 L354.307,61.23 L353.66,63.521 L353.66,65.81 L353.992,68.423 L354.637,70.708 L355.613,72.671 L357.254,74.638 L358.894,75.938 L361.18,76.92 L363.466,77.578 L366.083,77.905 L366.396,77.905 L369.03,77.578 L370.985,77.243 L373.271,76.264 L374.91,74.957 L376.21,73.658 L377.527,72.017 L378.173,70.062 L378.504,68.096 L378.173,66.137 L377.527,64.17 L376.21,62.539 L374.91,61.23 L373.601,60.254 L371.962,59.264 L369.03,57.636 L367.382,56.651 L368.036,55.67 L369.03,54.374 L370.654,53.061 L372.94,51.753 L375.241,50.444 L378.504,49.786 L382.098,49.14 L386.024,48.809 L390.909,49.14 L395.166,50.121 L396.805,50.78 L398.445,51.43 L399.745,52.407 L401.062,53.707 L402.039,55.024 L403,56.651 L403.67,58.291 L404.325,60.254 L404.979,64.824 L405.302,70.062 L405.302,78.551 L397.791,79.536 L390.909,80.845 L384.391,82.15 L378.504,83.457 L373.271,85.089 L368.368,87.052 L363.796,89.018 L359.871,90.977 L356.277,93.267 L353.345,95.552 L350.721,98.172 L348.758,100.773 L347.118,103.726 L345.826,106.658 L345.164,109.936 L344.84,113.199 L345.164,115.822 L345.495,118.102 L346.149,120.387 L346.794,122.681 L348.112,124.644 L349.411,126.599 L350.721,128.24 L352.683,129.551 L354.637,131.178 L356.923,132.155 L359.209,133.145 L361.842,134.122 L364.773,134.773 L367.705,135.099 L370.985,135.427 L374.578,135.75 L379.795,135.427 L385.03,134.446 L389.617,133.145 L393.865,131.178 L397.468,128.557 L401.062,125.299 L403.994,121.7 L406.61,117.452 L406.942,120.061 L407.588,122.35 L408.242,124.644 L408.914,126.276 L409.881,128.24 L411.181,129.551 L413.484,131.832 L416.101,133.468 L419.033,134.773 L421.649,135.427 L427.86,135.427 L430.792,135.099 L433.417,134.446 L435.695,133.794 L437.665,132.814 L439.62,131.505 L441.259,130.202 L442.567,128.557 L443.544,126.599 L444.531,124.644 L445.516,122.681 L445.831,120.387 L446.807,115.158 L446.807,105.683 L440.273,105.683 L440.273,105.683 Z" id="Fill-1" fill="#2CA047" sketch:type="MSShapeGroup" mask="url(#mask-2)"></path>
                <path d="M498.458,45.869 L498.458,50.78 L499.435,50.78 L506.632,51.43 L509.249,52.075 L511.536,52.734 L513.166,53.707 L514.474,55.024 L515.126,56.979 L515.451,58.941 L515.126,61.558 L514.474,64.493 L513.489,67.442 L512.189,70.062 L493.232,109.282 L471.652,62.539 L469.688,58.941 L469.366,57.636 L469.366,54.696 L470.02,53.707 L470.674,52.734 L472.305,52.075 L473.945,51.43 L476.562,51.102 L484.074,50.78 L485.06,50.78 L485.06,45.869 L426.883,45.869 L426.883,50.78 L427.86,50.78 L433.085,51.102 L437.333,52.075 L438.973,52.734 L440.597,53.707 L443.213,55.67 L445.184,57.968 L447.139,60.9 L448.779,64.17 L450.402,67.764 L481.133,133.468 L476.231,143.599 L471.652,151.442 L469.366,155.035 L467.08,157.98 L464.795,160.593 L462.177,162.551 L459.892,164.187 L457.275,165.499 L454.659,166.155 L451.71,166.481 L449.756,166.155 L448.779,165.826 L450.402,164.515 L452.042,162.882 L453.68,160.593 L454.335,159.289 L454.659,157.98 L455.322,156.35 L455.322,154.381 L454.972,151.765 L454.335,149.48 L453.036,147.194 L451.387,145.231 L449.424,143.923 L447.139,142.623 L444.531,141.969 L441.59,141.634 L438.643,141.969 L435.695,142.941 L433.085,144.246 L430.792,145.886 L429.168,147.848 L427.86,150.469 L426.883,153.405 L426.552,156.35 L426.883,158.307 L427.198,159.943 L427.529,161.903 L428.183,163.532 L429.168,165.172 L430.147,166.481 L431.455,167.782 L432.762,169.098 L436.026,171.049 L439.62,172.684 L443.868,173.674 L448.447,174 L453.036,173.674 L456.952,172.684 L460.87,171.049 L464.795,168.766 L468.388,166.155 L471.652,162.551 L474.915,158.63 L477.863,153.733 L480.81,148.502 L519.699,70.708 L521.985,66.46 L524.602,62.539 L527.55,59.264 L530.482,56.651 L533.761,54.696 L537.354,52.734 L541.271,51.753 L545.528,50.78 L546.498,50.78 L546.498,45.869 L498.458,45.869" id="Fill-3" fill="#2CA047" sketch:type="MSShapeGroup" mask="url(#mask-2)"></path>
            </g>
            <path d="M773.014,126.599 L773.014,126.599 L769.744,126.276 L766.48,125.945 L763.863,124.971 L761.246,123.655 L758.64,122.027 L756.022,120.061 L750.78,114.831 L717.455,80.845 L718.101,80.183 L729.214,68.755 L755.698,42.606 L757.33,44.884 L759.292,47.831 L760.6,50.78 L762.241,53.707 L763.531,57.309 L764.51,60.9 L766.148,68.755 L771.06,68.755 L771.06,21.356 L723.666,21.356 L723.666,25.927 L731.833,27.89 L735.425,28.872 L738.698,30.176 L741.969,31.815 L744.909,33.447 L747.847,35.086 L750.132,37.045 L724.311,62.862 L712.868,74.638 L712.22,75.292 L710.912,73.658 L695.212,57.636 L692.611,55.024 L691.948,53.707 L691.948,52.075 L692.28,51.753 L693.264,51.43 L694.567,51.102 L696.537,50.78 L704.702,50.78 L704.702,45.869 L649.796,45.869 L649.796,50.78 L651.098,50.78 L654.7,51.102 L657.648,51.43 L659.934,52.407 L661.887,53.379 L663.519,54.696 L664.829,56.001 L668.428,59.926 L695.553,87.375 L697.182,89.018 L653.061,131.505 L663.835,131.505 L702.41,94.579 L722.36,115.158 L724.645,117.776 L726.599,119.738 L727.577,121.7 L727.906,123.33 L727.577,124.318 L727.252,124.971 L726.274,125.622 L724.645,125.945 L720.718,126.599 L711.891,126.599 L711.891,131.832 L774.646,131.832 L774.646,126.599 L773.014,126.599" id="Fill-5" fill="#2CA047" sketch:type="MSShapeGroup"></path>
            <path d="M282.731,21.029 L282.731,13.506 L283.062,11.224 L283.386,10.247 L283.717,9.584 L284.363,8.934 L285.348,8.604 L287.958,7.957 L291.559,7.63 L301.355,7.63 L305.613,8.281 L309.538,8.934 L313.132,9.907 L316.072,11.224 L319.012,12.532 L321.306,14.496 L323.583,16.453 L325.222,18.74 L326.862,21.356 L328.163,24.292 L329.148,27.235 L329.802,30.511 L330.456,34.101 L330.78,38.023 L330.78,45.869 L330.456,49.463 L329.802,52.734 L329.148,55.67 L327.839,58.291 L326.53,60.577 L324.908,62.862 L322.937,64.493 L320.644,66.137 L318.026,67.764 L315.086,68.755 L311.824,69.731 L308.23,70.382 L303.981,71.035 L299.725,71.362 L282.731,71.362 L282.731,21.029 L282.731,21.029 Z M298.424,78.232 L298.424,78.232 L305.289,77.905 L311.491,77.243 L317.372,76.588 L322.605,75.292 L327.839,73.98 L332.411,72.348 L336.667,70.062 L340.592,67.764 L343.855,65.475 L347.118,62.539 L349.411,59.599 L351.698,56.327 L353.345,52.734 L354.307,49.14 L355.292,45.21 L355.292,37.695 L354.637,34.428 L353.992,30.835 L352.683,27.235 L351.044,23.969 L348.758,20.698 L346.149,17.435 L342.878,14.496 L339.285,11.552 L335.028,8.934 L330.125,6.649 L324.908,4.686 L318.689,3.054 L312.138,2.073 L304.636,1.088 L296.461,0.761 L234.36,0.761 L234.36,5.668 L235.338,5.668 L242.525,5.99 L248.091,6.649 L250.377,6.971 L252.331,7.957 L253.963,8.604 L255.278,9.584 L256.257,10.901 L257.242,12.532 L257.887,14.164 L258.228,16.127 L258.873,20.698 L259.204,26.587 L259.204,105.361 L258.873,111.237 L258.228,116.143 L257.887,118.102 L257.242,119.738 L256.257,121.056 L255.278,122.35 L253.963,123.33 L252.331,124.318 L250.377,124.971 L248.091,125.622 L242.525,126.276 L235.338,126.599 L234.36,126.599 L234.36,131.178 L308.884,131.178 L308.884,126.599 L307.898,126.599 L300.379,126.276 L294.491,125.622 L291.891,125.299 L289.919,124.644 L288.288,123.655 L286.648,122.681 L285.671,121.378 L284.694,120.061 L284.048,118.102 L283.386,116.143 L282.731,111.564 L282.731,78.232 L298.424,78.232 L298.424,78.232 Z" id="Fill-6" fill="#2CA047" sketch:type="MSShapeGroup"></path>
            <path d="M644.232,48.155 L644.232,2.396 L528.851,2.396 L528.851,6.971 L529.834,6.971 L536.368,7.303 L541.933,7.957 L543.896,8.604 L545.851,9.262 L547.161,10.247 L548.468,11.224 L549.446,12.532 L550.431,13.842 L551.084,15.468 L551.401,17.435 L552.054,22.333 L552.054,111.237 L551.401,116.143 L551.084,118.102 L550.431,119.738 L549.446,121.056 L548.468,122.35 L547.161,123.655 L545.851,124.318 L543.896,124.971 L541.933,125.622 L536.368,126.276 L529.834,126.599 L528.851,126.599 L528.851,131.178 L645.54,131.178 L645.54,78.232 L640.961,78.232 L640.316,84.115 L639.331,89.672 L638.031,94.897 L636.059,99.469 L634.096,103.726 L631.811,107.642 L629.202,110.914 L626.261,113.858 L622.982,116.466 L619.389,118.433 L615.471,120.387 L610.89,121.7 L606.321,123.004 L601.419,123.655 L595.853,124.318 L585.072,124.318 L581.147,123.982 L579.837,123.655 L578.545,123.004 L577.875,122.35 L576.907,121.7 L576.575,120.719 L576.252,119.41 L575.93,116.143 L575.93,68.096 L578.213,67.764 L581.808,67.764 L585.072,68.096 L588.02,68.755 L590.96,69.4 L593.237,70.382 L595.522,71.362 L597.823,72.994 L599.457,74.638 L601.087,76.264 L602.726,78.551 L604.028,80.845 L605.999,86.728 L606.652,89.995 L607.298,97.18 L611.872,97.18 L611.872,34.101 L607.298,34.101 L607.298,38.023 L606.652,41.289 L605.999,44.237 L605.011,47.174 L604.028,49.463 L602.726,51.753 L601.087,53.707 L599.457,55.346 L597.494,56.979 L595.207,58.291 L592.913,59.264 L590.305,59.926 L587.365,60.577 L584.093,60.9 L576.907,61.23 L575.93,61.23 L575.93,16.453 L576.252,13.506 L576.907,12.532 L577.238,11.552 L577.875,10.901 L578.871,10.247 L580.824,9.584 L584.093,9.262 L588.342,8.934 L594.231,9.262 L599.78,9.584 L604.689,10.247 L609.584,11.224 L613.84,12.532 L617.766,14.164 L621.029,16.127 L624.292,18.408 L627.233,20.698 L629.857,23.642 L632.142,26.912 L634.096,30.511 L635.735,34.428 L637.375,38.681 L638.677,43.257 L639.66,48.155 L644.232,48.155" id="Fill-7" fill="#2CA047" sketch:type="MSShapeGroup"></path>
            <g id="Group-11">
                <mask id="mask-4" sketch:name="Clip 9" fill="white">
                    <use xlink:href="#path-3"></use>
                </mask>
                <g id="Clip-9"></g>
                <path d="M48.928,46.171 L36.976,86.321 C45.006,73.997 50.856,65.686 54.53,61.39 C59.946,55.103 64.412,50.995 67.929,49.064 C71.445,47.136 74.979,46.171 78.528,46.171 C82.573,46.171 85.499,47.384 87.304,49.812 C89.108,52.239 90.011,54.917 90.011,57.842 C90.011,60.893 89.171,65.374 87.491,71.288 L83.29,86.321 C91.381,73.872 97.202,65.592 100.749,61.483 C106.229,55.134 110.99,50.84 115.038,48.599 C117.837,46.98 120.826,46.171 124.001,46.171 C127.299,46.171 130.053,47.276 132.263,49.485 C134.474,51.696 135.579,54.573 135.579,58.122 C135.579,62.107 134.646,67.273 132.779,73.622 L122.413,108.451 C120.857,113.619 120.08,116.949 120.08,118.442 C120.08,118.941 120.279,119.408 120.686,119.843 C121.091,120.279 121.541,120.496 122.041,120.496 C122.724,120.496 123.314,120.279 123.814,119.843 C126.056,118.038 128.42,115.393 130.911,111.907 C131.471,111.159 132.311,110.008 133.432,108.451 L136.607,110.505 C132.311,118.535 127.595,124.418 122.462,128.153 C117.323,131.888 112.577,133.756 108.221,133.756 C104.424,133.756 101.37,132.714 99.069,130.627 C96.764,128.543 95.615,126.098 95.615,123.299 C95.615,120.622 96.393,116.574 97.948,111.159 L108.498,74.742 C109.932,69.7 110.646,66.559 110.646,65.312 C110.646,64.878 110.428,64.457 109.994,64.051 C109.557,63.647 109.12,63.444 108.689,63.444 C107.877,63.444 107.069,63.631 106.26,64.005 C105.077,64.628 103.256,66.246 100.796,68.861 C98.338,71.474 94.806,76.159 90.198,82.913 C85.592,89.668 82.403,94.944 80.627,98.74 C78.854,102.537 77.096,107.456 75.353,113.493 L69.657,132.729 L46.033,132.729 L63.494,71.754 C64.429,68.456 64.894,66.184 64.894,64.939 C64.894,64.504 64.692,64.098 64.288,63.724 C63.883,63.351 63.462,63.164 63.028,63.164 C60.723,63.164 57.082,66.184 52.103,72.222 C44.507,81.56 37.597,92.796 31.374,105.93 L23.81,132.729 L0,132.729 L17.554,72.689 C19.296,66.775 20.169,62.573 20.169,60.082 C20.169,59.088 19.918,58.232 19.421,57.515 C18.922,56.8 18.114,56.24 16.994,55.834 C15.873,55.43 13.726,55.228 10.551,55.228 L11.485,51.679 L43.325,46.171 L48.928,46.171" id="Fill-8" fill="#C3C3BE" sketch:type="MSShapeGroup" mask="url(#mask-4)"></path>
                <path d="M142.112,54.573 L170.873,46.171 C173.174,49.034 174.794,51.741 175.728,54.294 C177.408,58.714 178.591,64.814 179.275,72.595 C180.583,87.909 181.485,104.25 181.985,121.618 C188.646,112.84 196.271,101.231 204.86,86.788 C207.474,82.431 208.782,78.323 208.782,74.462 C208.782,72.035 207.274,69.733 204.254,67.553 C201.235,65.374 199.352,63.678 198.603,62.464 C197.856,61.25 197.485,59.679 197.485,57.748 C197.485,54.637 198.618,51.929 200.892,49.625 C203.165,47.323 205.918,46.171 209.157,46.171 C212.579,46.171 215.552,47.477 218.071,50.092 C220.594,52.707 221.856,55.788 221.856,59.337 C221.856,63.508 220.688,68.347 218.352,73.856 C216.02,79.365 210.555,88.811 201.966,102.194 C190.947,119.315 180.146,134.129 169.564,146.641 C162.779,154.61 157.302,160.352 153.131,163.869 C148.959,167.385 144.635,170.171 140.154,172.226 C137.475,173.408 134.83,174 132.213,174 C128.667,174 125.631,172.754 123.111,170.266 C120.588,167.776 119.33,164.817 119.33,161.395 C119.33,157.971 120.467,155.076 122.737,152.711 C125.01,150.344 127.673,149.162 130.721,149.162 C134.518,149.162 138.006,151.153 141.178,155.139 C143.295,157.815 145.037,159.153 146.408,159.153 C147.838,159.153 149.24,158.748 150.611,157.94 C152.479,156.944 155.091,154.639 158.454,151.031 C158.826,143.248 159.014,137.365 159.014,133.382 C159.014,128.03 158.763,120.496 158.267,110.786 L156.678,75.21 C156.119,68.674 154.72,63.974 152.479,61.11 C150.736,58.995 148.463,57.936 145.662,57.936 C144.603,57.936 143.419,58.029 142.112,58.216 L142.112,54.573" id="Fill-10" fill="#C3C3BE" sketch:type="MSShapeGroup" mask="url(#mask-4)"></path>
            </g>
        </g>
    </g>
</svg>