<svg width="400" height="127.69" xmlns="http://www.w3.org/2000/svg" display="block"><g fill-rule="evenodd"><path d="M280.414 47.25c0 12.65.02 17.85.044 11.555.024-6.295.025-16.645 0-23-.024-6.355-.044-1.205-.044 11.445m36.767-7.186c.209.24.412.436.453.436.15 0-.42-.734-.622-.802-.115-.038-.039.127.169.366m1.152 1.125c.138.125.358.34.49.478.186.193.183.158-.014-.158-.14-.224-.36-.439-.49-.477-.19-.057-.187-.026.014.157m-100.084 1.479c-.44.486-.232.55.229.071.215-.223.319-.406.232-.406s-.295.151-.461.335M86.333 43.71c0 .146-.131.3-.291.342-.274.071-.273.077.005.095.301.02.58-.408.39-.599-.057-.057-.104.016-.104.162m21.209 5.873c.002.367.036.497.076.29.04-.207.038-.507-.003-.667-.042-.159-.075.011-.073.377m287.579.871c.296.036.821.037 1.167.001.346-.036.104-.066-.538-.067-.642-.001-.925.029-.629.066M275.5 71.042c0 .149.08.321.178.382.286.176.314.018.058-.331-.197-.27-.236-.279-.236-.051m1.788.578c.296.037.821.038 1.167.002.345-.036.103-.067-.538-.067-.642-.001-.925.028-.629.065m-81.087 11.554c-.129.206-.14.326-.031.326.096 0 .218-.116.272-.257.15-.391-.011-.437-.241-.069m193.164 5.429a.607.607 0 0 1 .365.366c.061.204.075.19.05-.05a.407.407 0 0 0-.365-.366c-.241-.025-.254-.011-.05.05M.958 91.457c.573.032 1.511.032 2.084 0 .573-.033.104-.059-1.042-.059-1.146 0-1.615.026-1.042.059m50.417 0a26.38 26.38 0 0 0 2.25 0c.619-.032.112-.058-1.125-.058-1.238 0-1.744.026-1.125.058m168 0a26.38 26.38 0 0 0 2.25 0c.619-.032.112-.058-1.125-.058-1.238 0-1.744.026-1.125.058m-163.314 2.96c0 .916.028 1.27.062.786a13.62 13.62 0 0 0-.001-1.667c-.034-.432-.062-.036-.061.881m41.772 5.087c0 .095.116.218.258.272.39.15.436-.012.068-.242-.206-.129-.326-.14-.326-.03" fill="#050"/><path d="M0 2.333v2.334h3.391c2.673 0 3.497.052 3.89.248.288.144 1.188.286 2.134.336 1.243.066 1.682.152 1.832.357.118.16.531.303 1.017.351.732.072.96.19 1.108.572.025.064.248.142.497.175.248.032.511.124.583.203.072.08.038.09-.077.025-.115-.066-.208-.049-.208.038 0 .172.495.434.722.383.077-.017.181.127.231.32.051.193.28.422.509.509.23.087.375.2.324.251-.165.166.239 1.065.48 1.065.172 0 .234.24.234.907 0 .719.069.956.334 1.141.474.333.535 72.684.061 73.03-.166.121-.304.531-.354 1.046-.062.654-.154.867-.399.931-.175.046-.308.146-.294.222.096.548-.053 1.046-.34 1.137a.743.743 0 0 0-.428.428c-.056.179-.217.325-.357.325-.14 0-.294.15-.342.333-.048.183-.187.333-.309.333s-.299.132-.392.292c-.105.18-.172.208-.175.073-.003-.119-.082-.171-.175-.113-.093.058-.126.175-.073.26.053.085-.139.155-.425.155-.615 0-1.216.284-1.077.508.055.09-.213.165-.62.173-1.425.027-2.33.26-1.949.501.146.093-.165.151-.853.158-.596.007-1.833.033-2.75.058s-2.585.059-3.708.074L0 91.5v4.833h27.575c20.885 0 27.681-.048 28.009-.197.431-.196.433-.206.406-2.042-.042-2.795.543-2.543-6.215-2.679-4.362-.088-5.013-.135-5.279-.383-.203-.189-.652-.3-1.349-.334-.797-.038-1.098-.125-1.265-.364-.133-.19-.467-.335-.843-.366-.399-.033-.622-.135-.622-.285 0-.129-.141-.255-.314-.281-.172-.025-.561-.309-.865-.63-.319-.338-.579-.501-.617-.386-.037.108-.122-.092-.188-.446-.082-.433-.227-.671-.444-.728-.241-.063-.322-.231-.322-.664 0-.439-.081-.6-.334-.666-.291-.077-.335-.236-.352-1.276a25.628 25.628 0 0 0-.045-1.356c-.066-.423-.307-.917-.447-.917-.095 0-.156-4.721-.156-12.083V58.167h10.099c9.959 0 10.1-.005 10.186-.334.081-.308.237-.335 2.068-.354 2.548-.027 2.554-.027 2.831-.257.316-.262.869-.385 2.066-.458 1.168-.071 1.584-.21 1.584-.532 0-.179.307-.232 1.349-.232 1.208 0 1.358-.035 1.436-.333.071-.272.237-.338.901-.354 1.194-.031 1.23-.04 1.23-.313 0-.183.256-.273.957-.335.736-.066 1.015-.169 1.213-.452.141-.201.361-.325.491-.276.289.111 2.583-.931 2.538-1.153-.017-.088.193-.189.468-.226.61-.08 1.266-.397 1.164-.563-.042-.067.149-.166.422-.221.291-.058.497-.204.497-.353 0-.16.155-.254.417-.254.229 0 .417-.088.417-.195 0-.107.043-.15.097-.097.053.053.241-.047.417-.222.175-.176.432-.32.569-.32.138 0 .25-.145.25-.322 0-.228.135-.338.458-.375.274-.031.44-.142.413-.273-.025-.122.022-.179.106-.127.084.051.245-.018.358-.155.113-.136.3-.248.416-.248.116 0 .249-.15.297-.333.048-.183.202-.333.342-.333s.301-.146.357-.325a.743.743 0 0 1 .428-.428c.179-.057.325-.211.325-.342 0-.131.114-.239.254-.239s.323-.181.407-.402c.084-.221.309-.452.499-.512.189-.06.307-.171.261-.245-.046-.075.039-.238.19-.363s.376-.471.5-.769c.125-.298.338-.542.475-.542a.244.244 0 0 0 .247-.241c0-.132.132-.338.292-.458.299-.223.418-.498.436-1.009.006-.161.104-.292.219-.292.176 0 .666-.667.581-.792-.139-.207.033-.685.27-.747.21-.055.31-.267.341-.717.027-.41.16-.721.369-.868.251-.176.326-.424.326-1.075 0-.605.083-.916.291-1.087.174-.142.19-.188.042-.114-.157.078-.126-.017.083-.256.32-.364.334-.617.334-6.275v-5.896l-.375-.263c-.308-.215-.375-.419-.375-1.136 0-.481-.09-.964-.2-1.074-.11-.11-.142-.2-.072-.2.071 0 .011-.118-.133-.262-.222-.222-.364-.968-.277-1.461.014-.076-.128-.179-.314-.227-.257-.068-.338-.226-.338-.668 0-.44-.08-.601-.333-.667-.183-.048-.342-.172-.353-.276-.066-.651-.296-1.272-.472-1.272-.113 0-.223-.226-.405-.834-.079-.264-.312-.494-.428-.422-.074.046-.18-.14-.234-.414-.058-.291-.205-.497-.354-.497-.144 0-.254-.146-.254-.339a.53.53 0 0 0-.323-.458c-.306-.113-.344-.169-.344-.509 0-.118-.498-.658-1.53-1.657a20.256 20.256 0 0 1-.602-.625c-.211-.227-.442-.412-.515-.412-.073 0-.218-.188-.322-.417-.11-.241-.33-.416-.521-.416-.182 0-.411-.149-.509-.332-.097-.182-.362-.378-.589-.434-.226-.057-.412-.189-.413-.294 0-.105-.207-.319-.458-.477-1.002-.629-1.128-.72-1.245-.9-.067-.102-.367-.283-.667-.401-.3-.117-.634-.322-.743-.455-.108-.133-.39-.252-.627-.266-.247-.014-.468-.148-.522-.316-.085-.27-.268-.35-1.153-.504-.184-.032-.315-.147-.292-.256.023-.109-.033-.208-.125-.219a3.484 3.484 0 0 1-.333-.063 4.07 4.07 0 0 0-.564-.062c-.246-.013-.431-.148-.485-.355-.069-.265-.227-.333-.769-.333-.375 0-.682-.072-.682-.161 0-.241-.602-.516-1.262-.575-.322-.029-.684-.187-.804-.351-.158-.217-.536-.326-1.368-.398-.632-.054-1.15-.173-1.15-.265 0-.092-.056-.148-.125-.125-.068.023-.125-.033-.125-.125 0-.094-.463-.167-1.057-.167-.825 0-1.12-.069-1.342-.314-.242-.267-.553-.319-2.062-.341-1.644-.024-2.17-.163-1.952-.517.086-.139.057-.142-2.837-.252-1.375-.052-2.525-.165-2.555-.252C53.993.06 43.765 0 26.986 0H0v2.333m217.667-.172c0 2.671-.309 2.473 3.889 2.494 2.621.013 3.374.067 3.676.265.221.145.962.286 1.782.339.771.05 1.496.099 1.611.11.115.011.208.12.208.242s.094.234.209.248c.114.014.283.043.375.064.091.021.368.047.613.058.291.012.485.136.553.352.068.213.253.334.512.334.223 0 .386.056.363.125-.023.069.191.35.476.625.284.275.607.671.716.879.11.209.271.336.358.282.087-.054.159.122.159.39s.168.701.373.962.351.604.324.763c-.026.159.028.574.122.923.094.349.154.696.134.771-.02.075.095.21.255.3.4.223.461 70.668.062 71.067-.127.127-.265.196-.306.155-.042-.042-.083.018-.092.133-.18 2.263-.195 2.336-.529 2.57-.213.149-.343.425-.343.725 0 .314-.118.547-.334.663-.183.098-.333.288-.333.423 0 .134-.12.244-.266.244-.146 0-.304.15-.352.333-.049.184-.228.333-.401.333-.203 0-.314.118-.314.334 0 .277-.111.333-.667.333-.614 0-.754.111-.686.542.01.068-.356.134-.814.146-.458.011-.983.039-1.167.062-.183.023-.446.051-.583.063a.277.277 0 0 0-.25.27c0 .177-.182.252-.625.254-3.914.026-8.478.235-8.583.392-.069.103-.107 1.163-.084 2.354l.042 2.167 43.483.042c32.155.031 43.541-.007 43.709-.147.301-.249.335-39.394.035-39.756-.239-.288-4.396-.321-4.572-.037-.107.173-.207 1.897-.229 3.94-.007.662-.07.875-.259.875-.138 0-.261.131-.275.291-.014.161-.04.404-.059.542a27.25 27.25 0 0 0-.058 1.53c-.022 1.123-.066 1.294-.358 1.387-.295.093-.334.252-.334 1.36 0 1.114-.037 1.264-.333 1.341-.28.074-.333.228-.333.964 0 .694-.071.925-.337 1.106-.235.159-.361.473-.416 1.035-.089.902-.197 1.161-.426 1.02-.085-.053-.164-.017-.175.08-.012.098-.04.252-.063.344a4.031 4.031 0 0 0-.062.564c-.013.246-.148.43-.355.484-.265.069-.333.227-.333.769 0 .376-.056.674-.125.663-.281-.044-.54.027-.522.145.061.388-.038 1.205-.145 1.188-.296-.046-.588.029-.491.126.059.059-.041.314-.222.568-.181.253-.328.543-.328.643 0 .101-.075.183-.167.183-.092 0-.167.094-.167.21 0 .115-.15.303-.333.418-.183.114-.333.282-.333.372 0 .162-.248.492-.959 1.272-.206.226-.375.558-.375.737 0 .209-.114.324-.322.324a.476.476 0 0 0-.422.316.68.68 0 0 1-.428.401.444.444 0 0 0-.328.429c0 .216-.081.313-.219.26-.12-.046-.424.106-.675.338-.251.233-.56.423-.686.423-.127 0-.278.15-.336.333-.095.3-.277.405-.615.357-.063-.009-.162.132-.22.313-.093.295-.285.408-.485.289-.039-.023-.245.121-.459.321-.213.199-.499.386-.634.416-.135.03-.385.224-.555.431-.17.207-.372.338-.448.29-.24-.148-1.001.229-1.001.496 0 .185-.18.254-.667.254-.44 0-.777.111-.994.328-.18.18-.593.345-.916.367-.397.027-.62.137-.684.339-.067.213-.272.303-.709.313-1.085.025-1.365.092-1.575.378-.141.193-.516.301-1.205.345-1.33.086-1.479.13-1.62.472-.105.256-.375.291-2.208.291-1.877 0-2.089.03-2.091.292-.002.249-.026.255-.164.042-.146-.225-.239-.121-.187.208.054.342-13.893.136-14.108-.208-.163-.261-.389-.334-1.04-.334-.711 0-.832-.046-.832-.322 0-.177-.15-.369-.333-.428-.22-.069-.334-.252-.334-.533 0-.235-.143-.552-.318-.703-.431-.374-.41.68-.378-19.639l.03-18.041h3.572c3.425 0 3.576.013 3.678.333.068.216.263.34.553.353 1.683.076 2.044.147 2.389.469.253.235.593.345 1.07.345.559 0 .716.066.786.333.067.257.227.333.702.333.474 0 .634.076.701.334.048.183.22.333.382.333s.334.15.382.333c.048.184.217.334.376.334s.396.131.528.291c.134.164.181.182.108.042-.072-.138.106-.062.395.167.29.229.573.546.629.705.056.158.154.281.217.272.363-.052.532.061.532.356 0 .183.075.333.166.333.092 0 .148.094.125.209-.023.114.052.189.167.166.124-.024.208.134.208.391 0 .292.108.46.334.519.183.048.333.22.333.381 0 .162.169.419.375.572.206.153.262.222.125.155-.22-.109-.221-.087-.007.175.133.165.258.408.278.541.019.133.169.444.332.692.163.247.318.705.345 1.017.052.613.14.766.441.766.123 0 .225.449.278 1.222.06.88.161 1.279.362 1.426.221.161.29.542.332 1.821.045 1.369.098 1.631.346 1.71.252.08.295.32.306 1.707.021 2.734-.049 2.653 2.319 2.685 2.847.039 2.502 3.379 2.499-24.196-.002-12.948-.058-23.625-.125-23.725-.496-.743-4.894-.776-4.435-.034.045.074.003.134-.094.134-.116 0-.177.753-.177 2.166 0 1.741-.046 2.167-.232 2.167-.337 0-.435.38-.435 1.687 0 .888-.07 1.236-.3 1.483-.165.177-.318.605-.34.951-.063 1.012-.142 1.298-.344 1.253-.229-.052-.564.76-.443 1.075.048.124-.062.374-.243.555-.181.181-.33.478-.33.659 0 .181-.187.452-.416.602-.229.15-.417.41-.417.576 0 .167-.15.351-.333.409-.184.058-.334.213-.334.345 0 .131-.125.238-.277.238-.153 0-.23.049-.17.108.116.116-.51.726-.745.726-.077 0-.141.1-.141.223s-.187.309-.417.413c-.229.104-.416.265-.416.358 0 .092-.263.278-.584.412-.321.134-.583.322-.583.418 0 .097-.157.176-.349.176a.443.443 0 0 0-.436.333c-.064.244-.238.339-.651.354-.832.031-.898.048-.885.223.018.234-.498.398-1.294.411-.384.007-.746.088-.803.181-.058.094-.17.129-.25.08-.08-.049-.208.023-.285.161-.104.187-.561.273-1.777.338-1.756.093-1.937.141-1.937.512 0 .2-.477.24-2.833.24h-2.833l-.022-16.208c-.024-18.283-.032-17.825.292-18.011.13-.074.193-.205.14-.291-.053-.086-.017-.157.08-.157s.177-.318.179-.708c.002-.451.054-.628.143-.486.114.179.161.171.243-.042.055-.145.213-.264.35-.264.137 0 .33-.15.428-.333.125-.233.349-.333.746-.333.312 0 .615-.077.672-.17.058-.093.166-.131.241-.085.075.046.231-.029.346-.168C257.8 5.889 269 5.885 269 6.24c0 .349.276.391 2.747.417 2.178.023 2.889.139 2.797.456-.049.168.031.177 1.748.201 1.077.015 1.375.071 1.375.259 0 .344.225.441 1.211.522.506.041.949.175 1.055.319.195.263.655.387 1.514.407.378.009.561.108.636.346.079.247.253.333.672.333.396 0 .62.1.745.333.114.214.349.334.652.334.444 0 .945.347.763.529-.045.045.012.09.127.1.114.01.358.054.541.098.184.044.385.086.447.093.063.007.162.163.22.346.058.184.243.334.41.334.167 0 .349.117.404.26.055.144.176.214.268.157.092-.057.168-.024.168.073s.157.176.349.176c.209 0 .384.134.436.334.048.184.227.333.401.333.203 0 .314.118.314.333 0 .216.111.334.314.334.174 0 .353.149.401.333a.443.443 0 0 0 .436.333c.238 0 .349.106.349.334 0 .194.111.333.266.333.146 0 .304.148.351.328a.68.68 0 0 0 .401.428.476.476 0 0 1 .315.422c0 .211.115.322.334.322.206 0 .333.111.333.292 0 .36 1.078 1.907 1.226 1.76.059-.059.107.049.107.24s.057.372.125.402c.069.031.305.41.524.843.219.433.458.75.53.705.194-.12.302.13.348.803.022.33.081.596.132.591.419-.04.508.097.508.781 0 .412.075.75.167.75.091 0 .148.093.125.208-.023.115.052.19.166.167.127-.026.217.155.23.458.011.275.039.575.062.667.023.091.051.246.063.343.011.097.09.133.175.08.211-.129.342.117.367.687.033.746.316 1.552.532 1.511.128-.025.211.283.24.879.055 1.18.152 1.588.444 1.88.15.15.252.662.278 1.387.031.894.107 1.198.345 1.367.254.181.306.449.306 1.588 0 2.029.044 2.067 2.417 2.1 1.496.021 1.979-.028 2.169-.218.212-.211.244-2.683.244-18.508V0h-86.663v2.161M51.372 6.333c.189.303.389.334 2.149.334 1.8 0 1.946.024 2.027.333.076.291.228.333 1.181.333.869 0 1.075.048 1.004.233-.136.357.206.468 1.809.591.068.005.125.118.125.249 0 .156.257.279.735.35.525.079.758.201.817.427.06.228.233.317.614.317.391 0 .555.088.619.333.048.185.227.334.401.334.172 0 .314.114.314.254s.187.325.416.412c.23.087.417.223.417.301 0 .079.188.243.417.366.229.123.416.325.416.45s.169.295.375.378c.207.083.31.156.23.161-.08.006-.053.123.06.259.114.137.273.207.354.157.081-.05.148-.012.148.085s.002.212.004.256c.002.044.171.262.375.484.634.692.771.898.667 1.002-.056.056-.022.101.075.101s.222.183.278.406c.056.223.242.45.414.504.224.072.335.31.396.852.047.413.206.886.355 1.05.148.164.269.543.269.842 0 .404.086.567.334.631.27.071.336.234.347.86.024 1.372.073 1.633.365 1.925.158.158.291.488.294.734.039 2.692.228 4.03.569 4.03.196 0 .238.66.252 3.916.011 2.648-.041 3.917-.16 3.917-.307 0-.5.812-.586 2.472-.062 1.187-.152 1.662-.343 1.803-.243.182-.367.66-.394 1.518-.006.207-.161.505-.344.662-.184.157-.334.469-.334.694 0 .224-.131.558-.291.742-.217.247-.227.301-.042.209.148-.074.132-.028-.042.114-.16.132-.291.365-.291.518 0 .153-.106.319-.235.369-.129.049-.332.325-.451.612-.119.288-.351.657-.516.822-.164.164-.298.365-.298.446 0 .081-.15.186-.334.234-.183.048-.333.202-.333.341 0 .14-.15.302-.333.361-.184.058-.334.213-.334.344 0 .132-.15.239-.333.239-.211 0-.333.111-.333.304 0 .211-.19.353-.625.465-.344.088-.607.251-.584.362.023.111-.07.202-.208.202-.63 0-1.132.283-.978.55.063.11.059.15-.009.089-.173-.155-1.111.18-1.513.539-.183.165-.633.323-1 .352-.367.03-.667.141-.667.248 0 .325-.132.367-1.253.404-1.266.042-1.497.106-1.497.419 0 .221-1.532.34-3.257.253-.3-.015-.649.106-.852.295-.401.374-1.012.396-10.182.369l-5.709-.018V30.26c0-14.434.056-21.608.17-21.678.093-.058.119-.186.057-.286-.067-.109-.034-.133.083-.061.126.078.23-.059.296-.391.059-.292.208-.511.347-.511.135 0 .284-.15.332-.333.077-.291 1.299-.513 1.606-.292.128.092.599-.423.514-.56C39.686 6.063 42.099 6 45.405 6c5.578 0 5.765.01 5.967.333m310.389 7.782c-.192.501-.077 4.357.132 4.428.105.036.563.085 1.018.109.592.032.892.135 1.051.363.187.265.432.318 1.479.318 1.056 0 1.3.054 1.532.336.208.253.537.355 1.323.41 1.148.081 1.434.184 1.264.458-.064.104-.034.134.069.069.1-.061.228-.035.286.058.058.093.47.169.917.169.635 0 .833.066.907.3.065.204.289.312.707.34.336.023.697.158.801.301.104.143.542.299.971.348.516.058.782.167.782.32 0 .21.667.581.964.536.341-.051.524.055.619.355.059.184.242.334.408.334.166 0 .394.111.507.248.114.136.265.212.337.167.072-.044.372.144.666.419.294.274.601.499.683.499.082 0 .299.15.483.333.183.184.483.334.666.334.405 0 .474.743.084.893a.41.41 0 0 0-.25.351c0 .141-.063.256-.14.256-.126 0-1.166.972-1.632 1.526-.103.123-.384.365-.625.539-.24.173-.437.417-.437.541 0 .125-.152.227-.337.227-.207 0-.399.162-.496.417-.087.229-.273.416-.413.416a.256.256 0 0 0-.254.254c0 .14-.187.326-.416.413-.229.087-.417.232-.417.322 0 .212-.8 1.011-1.012 1.011-.089 0-.234.188-.321.417-.087.229-.273.417-.413.417a.254.254 0 0 0-.254.254c0 .14-.187.325-.417.412-.229.087-.416.232-.416.322 0 .212-.723.934-1.067 1.066-.147.056-.267.217-.267.357 0 .14-.114.255-.254.255s-.325.188-.412.417c-.087.229-.275.417-.418.417a.42.42 0 0 0-.358.257c-.129.334-1.466 1.672-1.8 1.8a.42.42 0 0 0-.258.358c0 .143-.187.331-.416.418-.229.087-.417.273-.417.413a.256.256 0 0 1-.255.254c-.141 0-.302.12-.358.266-.132.344-.854 1.067-1.065 1.067-.09 0-.235.188-.322.417-.087.229-.273.416-.413.416a.256.256 0 0 0-.254.254c0 .14-.187.326-.416.413-.255.097-.417.289-.417.496 0 .185-.091.319-.202.296-.111-.023-.279.127-.373.333-.094.206-.265.375-.381.375-.116 0-.211.112-.211.25 0 .137-.075.25-.167.25-.202 0-1.499 1.314-1.499 1.52 0 .081-.102.147-.227.147s-.368.196-.542.437c-.173.24-.415.521-.538.625-.554.465-1.527 1.505-1.527 1.631 0 .077-.083.14-.185.14-.256 0-.975.704-.978.958-.002.115-.064.209-.137.209-.212 0-1.293 1.052-1.414 1.375-.06.16-.223.291-.364.291-.14 0-.26.132-.266.292-.009.232-.048.215-.192-.083-.1-.207-.277-.375-.395-.375-.117 0-.259-.146-.316-.325a.729.729 0 0 0-.419-.425.735.735 0 0 1-.42-.426c-.056-.178-.21-.324-.342-.324a.24.24 0 0 1-.238-.239c0-.131-.15-.286-.334-.345-.183-.058-.333-.22-.333-.36 0-.14-.148-.293-.328-.34a.672.672 0 0 1-.425-.392.72.72 0 0 0-.422-.41c-.179-.057-.325-.218-.325-.358 0-.14-.148-.293-.328-.34a.68.68 0 0 1-.428-.401c-.055-.173-.207-.315-.339-.315-.131 0-.238-.12-.238-.266 0-.146-.148-.304-.328-.351a.668.668 0 0 1-.425-.393.708.708 0 0 0-.412-.406.59.59 0 0 1-.366-.432c-.029-.183-.118-.325-.199-.315-.08.009-.23-.148-.333-.35-.103-.202-.254-.338-.335-.302-.081.036-.213-.111-.292-.326-.08-.215-.294-.43-.476-.477-.182-.048-.296-.142-.255-.209.042-.068-.101-.218-.317-.333a1.747 1.747 0 0 1-.605-.609c-.118-.219-.313-.398-.435-.398-.123 0-.204-.088-.181-.195.023-.107-.126-.282-.332-.39-.206-.107-.334-.235-.284-.284.049-.05-.288-.418-.75-.819-.461-.401-.839-.855-.84-1.009-.001-.154-.152-.328-.335-.386-.303-.096-.408-.282-.353-.625.018-.118-.241-.189-.522-.145-.069.011-.125-.205-.125-.48 0-.323.084-.5.238-.5.132 0 .286-.149.344-.331.101-.316.284-.332 4.303-.375l4.198-.044.046-2.375.046-2.375h-41.509V37l2.125.012c1.736.009 3.326.207 2.625.326-.388.066.737.297 1.523.312.686.013.871.078.936.327.053.2.298.352.686.425.333.062.605.182.605.267 0 .084.182.25.405.367.519.275 3.262 2.927 3.262 3.154 0 .256.875 1.137 1.032 1.04.074-.046.135-.018.135.061 0 .219 1.044 1.3 1.375 1.423.16.06.291.215.291.345 0 .129.152.275.338.324.186.049.318.186.292.305-.025.119.122.293.329.387.206.094.375.265.375.381 0 .116.115.211.255.211s.304.131.364.291c.12.323 1.202 1.375 1.413 1.375.074 0 .136.094.137.209.004.254.723.958.979.958.102 0 .185.075.185.167 0 .217 1.283 1.5 1.5 1.5.092 0 .167.095.167.213 0 .23.595.808.999.97.138.055.26.186.272.292.011.105.03.258.041.339.012.081.171.186.354.234.184.048.334.207.334.353a.26.26 0 0 0 .254.265c.14 0 .325.188.412.417.087.229.232.417.322.417.212 0 1.012.799 1.012 1.011 0 .09.187.235.416.322.23.087.417.273.417.413 0 .139.114.254.254.254s.326.187.413.416c.087.23.232.417.321.417.212 0 .934.723 1.066 1.067.056.146.217.266.357.266.141 0 .256.115.256.254 0 .14.177.322.394.404.216.083.434.306.484.496.05.191.21.346.356.346s.266.113.266.25c0 .138.064.25.142.25.204 0 1.117.901 1.242 1.226.058.151.222.274.365.274.142 0 .33.188.417.417.087.229.273.417.413.417.14 0 .254.115.254.255s.12.301.267.357c.604.232 1.07.864.719.976-.176.055-.319.208-.319.34a.24.24 0 0 1-.239.238c-.131 0-.286.15-.345.334-.058.183-.233.333-.388.333s-.357.169-.447.375c-.091.206-.277.378-.415.383-.137.004-.23.099-.207.211.024.112-.145.29-.375.394-.23.105-.418.328-.418.497 0 .196-.12.307-.333.307-.222 0-.333.111-.333.333 0 .213-.111.333-.307.333-.169 0-.392.188-.497.418-.104.23-.285.399-.402.375-.116-.023-.193.049-.171.162.023.113-.18.319-.451.459-.566.293-1.436 1.11-1.378 1.295.021.068-.022.125-.096.125-.074 0-.28.118-.458.262-.178.144-.211.207-.074.139.138-.067.042.075-.212.317s-.661.648-.902.903c-.242.254-.385.349-.317.212.067-.138.005-.104-.14.074-.144.177-.262.388-.262.468 0 .079-.067.103-.148.053-.082-.051-.271.095-.421.323-.15.228-.375.415-.5.415-.126 0-.272.113-.325.25a.408.408 0 0 1-.351.25c-.14 0-.255.12-.255.266 0 .146-.141.302-.313.347-.172.045-.396.263-.496.485-.101.221-.298.402-.437.402a.253.253 0 0 0-.254.25c0 .138-.108.25-.24.25a.466.466 0 0 0-.359.193c-.08.129-.042.148.115.059.129-.073-.063.146-.426.487-.363.341-.794.692-.958.78-.164.088-.299.27-.299.404a.242.242 0 0 1-.238.244c-.132 0-.287.15-.345.333-.058.184-.251.334-.428.334-.207 0-.322.115-.322.322 0 .177-.15.369-.333.428-.184.058-.334.22-.334.36 0 .14-.147.293-.327.34a.677.677 0 0 0-.428.401c-.055.173-.203.315-.328.315s-.275.15-.333.334c-.059.183-.251.333-.428.333-.211 0-.322.115-.322.333 0 .219-.111.334-.322.334a.477.477 0 0 0-.423.315.677.677 0 0 1-.428.401c-.18.047-.327.197-.327.332s-.15.285-.334.333c-.183.048-.333.202-.333.342s-.15.302-.333.36c-.184.058-.334.251-.334.428 0 .207-.115.322-.322.322-.177 0-.369.15-.428.333-.058.184-.25.334-.428.334s-.322.114-.322.255c0 .14-.131.304-.291.364-.34.127-2.972 2.713-2.765 2.716.077.002-.048.102-.277.222-.229.121-.396.313-.371.427.025.114-.031.159-.126.101-.095-.059-.217.01-.272.153-.054.143-.164.22-.243.171-.079-.049-.239.064-.356.251-.117.187-.307.34-.422.34-.116 0-.21.075-.21.166 0 .092-.45.617-1 1.167s-1.075 1-1.167 1c-.091 0-.166.112-.166.25s-.111.25-.247.25c-.322 0-.523.797-.266 1.054.207.207 8.752.369 9.257.175.141-.054.256-.24.256-.413 0-.201.117-.316.322-.316.177 0 .369-.15.428-.333.058-.184.232-.335.386-.337.154-.002 1.247-.976 2.429-2.163 1.181-1.188 2.288-2.204 2.458-2.258.171-.054.31-.206.31-.337a.24.24 0 0 1 .239-.239c.131 0 .285-.146.342-.324a.735.735 0 0 1 .428-.428c.178-.057.324-.218.324-.358 0-.14.15-.293.334-.341.183-.048.333-.194.333-.323 0-.13.131-.285.292-.345.16-.06.389-.245.509-.411.12-.167.326-.303.458-.303a.248.248 0 0 0 .241-.254c0-.14.188-.326.417-.413.229-.087.416-.272.416-.412 0-.14.108-.254.239-.254s.285-.146.342-.325a.74.74 0 0 1 .428-.428c.179-.057.325-.183.325-.281 0-.212 1.125-1.3 1.345-1.3.085 0 .155-.107.155-.238 0-.132.15-.287.333-.345.183-.058.333-.213.333-.345a.24.24 0 0 1 .239-.238c.131 0 .284-.142.339-.316a.68.68 0 0 1 .428-.401c.18-.047.328-.2.328-.34s.146-.301.324-.357a.74.74 0 0 0 .428-.428.488.488 0 0 1 .431-.325c.184 0 .394-.164.478-.375.083-.206.156-.305.161-.219.006.086.756-.587 1.666-1.494.91-.907 1.618-1.709 1.573-1.781-.045-.072.036-.131.179-.131s.26-.079.26-.177c0-.097.072-.131.16-.077.175.108 1.506-1.141 1.506-1.413a.17.17 0 0 1 .171-.166c.217 0 1.663-1.437 1.663-1.651 0-.088.15-.208.333-.266.184-.058.411-.251.506-.428.095-.177.285-.322.422-.322s.295-.12.351-.267c.123-.32.848-1.066 1.036-1.066.074 0 .215-.169.315-.375l.181-.375.011.375c.008.26.113.375.345.375.222 0 .333.111.333.333 0 .222.111.333.333.333.184 0 .334.104.334.231s.187.354.416.504c.23.15.417.384.417.519 0 .136.141.246.314.246.174 0 .353.149.401.334.048.183.198.333.333.333.136 0 .286.15.334.333.048.184.198.334.333.334s.285.15.333.333c.048.183.199.333.335.333s.295.188.352.417c.058.229.183.417.278.417.095 0 .119.087.053.195-.081.13-.03.16.155.089.151-.058.264-.052.251.013-.044.214.226.703.389.703.087 0 .105-.087.04-.193-.075-.12-.046-.147.076-.072.107.067.157.182.111.257-.106.172.323.541.464.4.058-.058.182.097.276.345.094.247.247.403.339.346.092-.057.24.089.329.323.089.235.259.427.377.427s.289.169.379.375c.091.206.277.375.415.375.137 0 .25.087.25.194 0 .25.223.473.472.473.107 0 .194.087.194.194 0 .249.223.472.473.472.106 0 .194.113.194.25 0 .138.169.324.375.415.206.09.375.305.375.476 0 .255.613.929 2.063 2.264.081.075.446.445.812.824.365.378.735.688.821.688.086 0 .12.061.074.135-.046.074.098.271.32.437.222.167.363.369.314.449-.05.081.101.219.336.309.235.089.427.239.427.333 0 .093.131.315.291.492.565.621.688.81.591.907-.053.053.027.144.177.202.397.152.384 1.693-.018 2.022-.178.146-.194.192-.041.119.173-.084.199-.066.083.058-.092.099-.594.213-1.116.254-.569.045-1.058.183-1.22.346-.225.224-6.983.466-8.273.295-.377-.049-.481.586-.438 2.665l.047 2.227 23.375.043 23.375.044v-5.004h-2.296c-2.024 0-2.328-.036-2.559-.306-.193-.225-.526-.316-1.243-.339-.539-.018-1.056-.116-1.149-.218-.121-.132-.098-.148.08-.053.186.098.204.081.071-.064-.099-.107-.564-.241-1.034-.296-.47-.056-.85-.148-.843-.204.033-.277-.04-.518-.152-.5-.589.093-1.083-.057-1.16-.353-.048-.183-.188-.333-.312-.333-.123 0-.305-.15-.403-.334-.098-.183-.279-.333-.402-.333s-.317-.112-.43-.248c-.113-.137-.272-.207-.354-.157-.081.05-.147-.026-.147-.168 0-.146-.142-.26-.322-.26-.178 0-.37-.15-.428-.334-.059-.183-.251-.333-.428-.333-.211 0-.322-.115-.322-.333 0-.184-.111-.334-.246-.334-.136 0-.37-.187-.52-.416-.15-.23-.377-.417-.504-.417-.126 0-.23-.113-.23-.25a.253.253 0 0 0-.256-.25c-.14 0-.304-.131-.364-.292-.059-.16-.245-.389-.411-.509-.166-.12-.303-.326-.303-.458 0-.133-.15-.241-.333-.241-.218 0-.333-.111-.333-.322a.483.483 0 0 0-.325-.425.743.743 0 0 1-.428-.428c-.057-.179-.211-.325-.342-.325a.24.24 0 0 1-.239-.239c0-.131-.146-.285-.324-.342a.735.735 0 0 1-.428-.428.484.484 0 0 0-.426-.324c-.207 0-.322-.115-.322-.322a.484.484 0 0 0-.324-.426.735.735 0 0 1-.428-.428c-.057-.178-.211-.324-.342-.324a.24.24 0 0 1-.239-.239c0-.131-.146-.285-.325-.342a.743.743 0 0 1-.428-.428.483.483 0 0 0-.425-.325c-.207 0-.322-.115-.322-.322 0-.177-.15-.369-.333-.428-.184-.058-.334-.22-.334-.36 0-.14-.15-.293-.333-.341-.183-.048-.333-.198-.333-.334 0-.135-.148-.284-.328-.332a.677.677 0 0 1-.428-.401c-.055-.173-.203-.315-.328-.315s-.275-.15-.333-.333c-.058-.184-.251-.334-.428-.334-.207 0-.322-.115-.322-.322a.484.484 0 0 0-.325-.425.743.743 0 0 1-.428-.428c-.056-.179-.201-.325-.322-.325s-.259-.15-.307-.333c-.048-.183-.201-.333-.341-.333s-.302-.15-.36-.334c-.059-.183-.251-.333-.428-.333-.207 0-.322-.115-.322-.322a.483.483 0 0 0-.325-.425.743.743 0 0 1-.428-.428c-.057-.179-.211-.325-.342-.325a.24.24 0 0 1-.239-.239c0-.131-.15-.286-.333-.344-.183-.059-.333-.203-.333-.322 0-.273-1.812-2.193-2.016-2.137-.083.023-.151-.043-.151-.147 0-.247-2.897-3.144-3.144-3.144-.104 0-.171-.059-.148-.131.056-.173-2.452-2.703-2.679-2.703-.097 0-.23-.086-.295-.192-.08-.13-.042-.148.115-.057.129.075.055-.061-.165-.302-.219-.241-.482-.391-.583-.333-.101.057-.133.047-.071-.022.063-.07-.106-.342-.375-.605-.57-.558-.597-.655-.182-.655.169 0 .394-.192.501-.426.107-.235.274-.377.371-.317.098.06.218-.046.268-.235.049-.19.232-.39.405-.445a.476.476 0 0 0 .315-.422c0-.211.115-.322.334-.322.222 0 .333-.111.333-.333 0-.213.111-.334.307-.334.168 0 .394-.191.5-.426.107-.234.274-.377.372-.316.097.06.217-.046.267-.235a.698.698 0 0 1 .408-.446c.175-.055.275-.17.222-.255-.052-.084.097-.241.331-.348.235-.106.426-.332.426-.5 0-.169.108-.307.239-.307s.285-.146.342-.325a.743.743 0 0 1 .428-.428c.179-.056.325-.212.325-.346 0-.133.187-.314.416-.401.23-.087.417-.264.417-.393s.15-.274.333-.322c.184-.048.334-.207.334-.353 0-.154.139-.265.333-.265.218 0 .333-.111.333-.322 0-.178.15-.37.334-.428.183-.059.333-.214.333-.345 0-.131.114-.239.254-.239.139 0 .339-.187.443-.416.104-.229.285-.417.402-.417.116 0 .259-.15.318-.333.096-.303.281-.408.625-.353.068.01.125-.122.125-.295s.149-.352.333-.401c.183-.048.333-.206.333-.352s.115-.266.254-.266c.14 0 .326-.187.413-.417.087-.229.268-.416.401-.416.134 0 .29-.146.346-.325a.743.743 0 0 1 .428-.428c.179-.057.325-.211.325-.342a.24.24 0 0 1 .239-.239c.131 0 .285-.146.342-.324a.735.735 0 0 1 .428-.428c.178-.057.324-.213.324-.346 0-.134.188-.315.417-.402.229-.087.417-.272.417-.412a.26.26 0 0 1 .265-.254c.146 0 .305-.15.353-.334.048-.184.227-.333.401-.333.173 0 .305-.056.294-.125-.054-.344.051-.529.353-.625.184-.058.334-.201.334-.318 0-.116.187-.297.416-.402.23-.104.417-.304.417-.443 0-.14.107-.254.239-.254.131 0 .286-.15.344-.333.059-.183.251-.333.428-.333.211 0 .322-.115.322-.334 0-.194.111-.333.266-.333.146 0 .305-.15.353-.333.048-.184.198-.334.333-.334s.286-.15.334-.335c.048-.184.266-.38.484-.435.243-.061.397-.221.397-.414 0-.205.117-.316.333-.316.223 0 .334-.111.334-.333 0-.213.111-.333.306-.333.169 0 .394-.192.501-.426.107-.235.263-.384.348-.331.085.052.199-.048.255-.223.055-.175.256-.358.445-.408.19-.049.296-.17.235-.267-.06-.098.083-.265.317-.371.234-.107.426-.332.426-.501 0-.216.123-.307.417-.307.305 0 .416.089.416.334 0 .183.15.483.334.666.183.184.333.43.333.547 0 .117.15.321.333.453.184.132.334.374.334.537 0 .163.079.297.176.297.097 0 .134.069.081.155-.053.085-.012.207.09.27.103.064.292.368.422.678.129.309.318.544.421.521.102-.023.216.184.253.459.098.73.2.951.387.835.099-.061.122.013.056.184-.074.194-.047.247.085.165.134-.082.197.053.201.431.005.565.358 1.216.552 1.021.06-.059.109.232.109.647 0 .522.111.897.36 1.213.325.413.404.696.457 1.631.009.161.166.421.35.578.255.219.333.492.333 1.167s.078.948.333 1.167c.278.238.334.493.336 1.54.003 1.475.117 2.004.434 2.004.136 0 .23.175.23.428 0 1.005.153 1.072 2.417 1.072 1.878 0 2.088-.03 2.244-.322.187-.349.257-35.432.072-35.914-.162-.42-36.144-.402-36.305.018m-253.91 15.446c-.1.121-.132.269-.072.329.061.061-.521.116-1.293.124-2.089.02-2.336.055-2.566.37-.189.258-.779.395-1.878.435-.214.008-.375.12-.375.261 0 .259-.362.383-1.334.458-.326.026-.567.129-.547.235.032.171-1.347.656-1.666.586-.071-.016-.173.084-.226.223-.053.138-.198.251-.322.251s-.36.142-.524.314c-.164.173-.542.366-.84.43-.382.082-.541.21-.541.436 0 .223-.117.32-.385.32-.385 0-1.18.47-.865.512.091.012-.021.073-.25.135-.229.063-.491.281-.582.484-.09.203-.296.369-.458.369-.161 0-.294.113-.294.25 0 .138-.114.25-.254.25s-.325.188-.412.417c-.087.229-.273.417-.413.417-.14 0-.254.104-.254.23 0 .127-.187.354-.417.504-.229.15-.416.347-.416.436 0 .09-.15.313-.334.496-.183.184-.333.521-.333.75 0 .245-.096.417-.232.417-.269 0-.435.355-.435.93 0 .226-.098.403-.223.403-.25 0-.662.781-.527.999.048.078-.045.273-.206.434-.525.524-.714 8.086-.21 8.404.137.087.175.161.083.163-.092.003-.071.066.046.14.116.074.242.293.28.487.092.478.404 1.04.578 1.04.079 0 .19.187.248.416.057.228.194.397.303.375.11-.023.271.115.358.306.087.191.315.419.506.506.191.088.329.25.306.361-.023.112.033.212.125.224.092.011.242.039.333.062.092.023.317.051.5.063.216.013.334.138.334.354 0 .284.111.333.76.333.417 0 .722.06.677.133-.324.525.218.617 3.824.648 3.635.031 4.405-.061 4.405-.527 0-.17.162-.254.487-.254.654 0 1.013-.154 1.013-.434 0-.147.184-.233.5-.233.275 0 .5-.079.5-.176 0-.097.077-.129.171-.071.094.058.16.044.147-.032-.061-.352.042-.54.349-.637.183-.059.333-.214.333-.345 0-.131.081-.239.179-.239.279 0 .566-.377.63-.829.032-.227.201-.513.375-.635.244-.171.316-.426.316-1.117 0-.765.052-.912.352-1.008.461-.146.405-2.144-.069-2.491-.202-.147-.283-.45-.283-1.057 0-.68-.066-.887-.333-1.029-.183-.098-.333-.31-.333-.47 0-.364-2.095-2.364-2.476-2.364-.153 0-.353-.168-.443-.375-.103-.233-.34-.395-.629-.428-.255-.029-.554-.198-.665-.375-.12-.192-.387-.322-.661-.322-.253 0-.451-.056-.44-.125.052-.329-.041-.433-.186-.208-.138.214-.162.208-.164-.042-.002-.193-.134-.291-.391-.291-.336 0-.378-.067-.314-.499.04-.274.144-.454.232-.4.087.055.199-.052.247-.237.048-.185.271-.382.496-.438.224-.057.369-.165.321-.242-.091-.147 1.299-1.075 1.892-1.263.191-.061.347-.218.347-.349 0-.171.206-.239.719-.239.475 0 .833-.107 1.058-.317.249-.231.667-.336 1.557-.391.892-.055 1.273-.152 1.425-.359.352-.482 8.576-.432 9.063.055.248.248.558.345 1.102.345.511 0 .866.102 1.094.314.185.173.635.361 1.001.42.365.058.623.172.573.253-.05.081.134.226.409.322.274.096.499.282.499.413 0 .132.15.279.334.327.183.048.333.201.333.341s.142.3.315.355a.675.675 0 0 1 .401.428c.048.18.196.327.33.327.157 0 .283.242.353.675.059.371.176.632.259.58.084-.051.213.002.286.118.127.199.152.338.202 1.121.011.18.166.462.344.628.264.246.33.557.357 1.673.031 1.284.098 1.46.528 1.392.069-.011.125 2.268.125 5.063v5.084l-.792.019c-1.322.031-1.777.121-1.973.39-.15.205-.563.257-2.025.257-1.626 0-1.862.037-2.065.323-.198.28-.476.33-2.119.378-1.543.045-1.928.107-2.097.338-.193.264-.853.36-3.082.446-.221.008-.356.062-.299.119.276.276-.429.547-1.508.578-.921.027-1.216.1-1.391.343-.168.233-.437.309-1.092.309-.979 0-1.796.248-1.641.499.088.142-.998.263-1.676.187-.097-.011-.339.132-.538.317-.307.285-.873.435-2.017.533-.127.01-.267.157-.311.325-.063.241-.243.305-.857.305-.586 0-.836.082-1.017.334-.166.23-.431.333-.859.333-.472 0-.644.079-.724.333-.085.268-.253.334-.845.334-.409 0-.739.078-.739.176 0 .097-.07.133-.156.08-.086-.053-.223.022-.304.167a.672.672 0 0 1-.422.305c-.151.022-.322.087-.379.144-.058.058-.209.065-.337.016-.128-.049-.277.026-.331.168-.054.141-.317.305-.585.363-.267.059-.486.181-.486.27 0 .09-.077.116-.17.058-.094-.058-.151-.011-.125.105.025.116-.105.238-.288.271-.529.096-1.08.414-.984.568.048.078-.102.142-.334.142-.25 0-.493.135-.599.333-.098.184-.298.334-.445.334-.146 0-.432.178-.635.397-.202.218-.529.448-.727.511-.198.063-.359.213-.359.333 0 .121-.15.259-.334.307-.183.048-.333.207-.333.353s-.11.265-.244.265-.325.15-.423.334c-.098.183-.283.333-.411.333s-.279.146-.336.325a.743.743 0 0 1-.428.428.483.483 0 0 0-.325.425c0 .211-.115.322-.333.322-.183 0-.335.094-.336.208-.002.115-.189.385-.417.601-.227.216-.414.53-.414.699 0 .168-.086.359-.192.425-.127.078-.147.045-.058-.1.089-.143.07-.178-.055-.101-.104.065-.252.358-.328.651-.076.294-.246.534-.377.534-.158 0-.258.219-.292.643-.039.47-.141.667-.375.728-.178.046-.333.207-.345.356l-.077.897c-.029.343-.208.791-.398.994-.52.559-.512 9.682.009 10.113.285.235.393.64.524 1.968.011.109.064.194.117.188.374-.04.514.085.514.457 0 .513.295 1.116.488.996.076-.047.183.139.238.414.055.274.169.479.253.455.085-.023.16.014.168.084.038.365.561 1.123.774 1.123.135 0 .246.069.246.153 0 .272 1.173 1.369 1.489 1.392.183.014.273.114.222.246-.047.123-.02.212.06.198.336-.057.897.239 1.132.598.139.211.48.434.759.496.279.061.47.172.423.247-.104.168.314.337.835.337.216 0 .447.087.512.192.081.131.044.148-.115.052-.199-.12-.2-.099-.005.141.148.182.472.282.918.282.509 0 .744.087.898.333.166.267.388.333 1.112.333.757 0 .921.054 1.01.334.058.183.232.339.386.347 2.557.127 2.953.182 3.247.449.521.471 10.298.52 10.733.053.239-.256.606-.34 1.8-.411a267.31 267.31 0 0 0 1.614-.097c.063-.004.161-.158.22-.341.091-.287.252-.334 1.152-.334.834 0 1.107-.067 1.348-.333.176-.195.516-.334.817-.336.566-.003.986-.201.917-.433-.024-.081.101-.169.278-.196.824-.123 1.055-.223 1.141-.494.056-.173.278-.302.55-.317.258-.015.559-.179.689-.375.128-.192.364-.349.525-.349.162 0 .333-.15.381-.333a.443.443 0 0 1 .441-.334.534.534 0 0 0 .483-.345c.07-.19.161-.343.203-.338.312.031.825-.232.825-.425 0-.129.131-.284.291-.343.345-.127 1.375-1.171 1.375-1.394 0-.085.096-.155.213-.155.253 0 .733-.531.99-1.096.101-.222.247-.404.323-.404.076 0 .275-.281.442-.625.166-.343.378-.61.471-.593.092.017.284-.225.426-.538.153-.337.182-.532.072-.478-.103.051-.042-.025.134-.168.41-.332.382-.393.501 1.069.08.986.171 1.298.431 1.479.234.161.331.418.331.875 0 .424.114.761.333.979.183.184.333.484.333.667 0 .183.075.333.167.333.092 0 .149.057.128.125-.062.202.807 1.384.928 1.263.104-.104.179.196.126.502-.014.076.125.178.308.226a.676.676 0 0 1 .43.394.718.718 0 0 0 .422.41c.179.056.325.205.325.33 0 .125.157.278.349.339.193.061.493.254.667.428.174.174.496.317.714.317.257 0 .428.117.485.333.066.254.227.333.674.333.442 0 .615.083.694.334.058.183.194.341.303.35.108.009.668.046 1.244.082.759.047 1.147.158 1.411.404.499.465 6.177.441 6.52-.028.152-.208.582-.297 1.772-.367 1.279-.076 1.618-.153 1.827-.413.154-.193.553-.358 1-.414.41-.051.827-.205.928-.343.101-.139.404-.284.673-.324.269-.039.47-.156.447-.259-.023-.104.015-.172.083-.153.205.058.942-.399 1.176-.728.12-.169.326-.307.459-.307.132 0 .24-.115.24-.254 0-.14.188-.326.417-.413.269-.102.417-.287.417-.524 0-.201.049-.316.109-.255.139.138.58-.216.477-.382-.042-.068.109-.298.335-.51.227-.213.412-.559.412-.769 0-.21.149-.461.332-.559.182-.098.322-.232.311-.298-.05-.286.246-1.203.388-1.203.085 0 .113-.069.061-.152-.052-.084-.013-.18.086-.213.099-.033.224-.546.278-1.139.063-.705.189-1.147.362-1.274.22-.161.281-.722.358-3.25.05-1.68.107-2.996.125-2.924.018.073.137.035.265-.083.279-.257.373-4.722.108-5.132-.13-.201-.689-.26-2.895-.302-3.505-.068-3.279-.267-3.279 2.898 0 1.811-.051 2.405-.208 2.407-.164.002-.165.03-.004.133.151.095.115.206-.137.422-.244.209-.334.47-.314.909.104 2.258-.002 3.344-.337 3.45-.278.088-.333.252-.333.993 0 .638-.071.915-.252.985-.138.053-.241.154-.228.226.06.322-.256 1.25-.451 1.324-.118.046-.266.311-.327.589-.065.296-.242.541-.427.589-.173.046-.315.188-.315.317s-.185.319-.412.422c-.226.103-.375.246-.33.318.12.195-.131.301-.82.348-.339.023-.76.176-.937.34-.401.374-.438.373-.956-.034-.233-.184-.643-.334-.911-.334-.285 0-.444-.069-.384-.168.057-.092-.013-.212-.156-.267a.425.425 0 0 1-.261-.361c0-.143-.131-.411-.292-.594-.209-.24-.221-.294-.041-.193.188.106.18.061-.032-.182-.225-.257-.289-.71-.315-2.237-.03-1.814-.172-2.442-.506-2.236-.085.053-.156-8.297-.168-19.835-.024-23.076.012-20.855-.345-21.128-.199-.152-.305-.546-.359-1.331-.085-1.222-.174-1.468-.535-1.468-.18 0-.24-.229-.24-.91 0-.741-.063-.945-.334-1.09a.698.698 0 0 1-.333-.557c0-.209-.15-.541-.333-.738-.184-.196-.334-.468-.334-.603 0-.135-.15-.293-.333-.352-.183-.058-.333-.187-.333-.287 0-.1-.188-.427-.417-.727-.229-.301-.417-.627-.417-.725 0-.097-.067-.177-.15-.177-.082 0-.477-.332-.876-.737-.4-.405-.934-.789-1.188-.853-.254-.063-.537-.257-.629-.43-.093-.172-.27-.314-.393-.314-.124 0-.261-.137-.305-.305-.044-.168-.202-.32-.352-.338a36.38 36.38 0 0 0-.607-.063.533.533 0 0 1-.428-.329c-.087-.275-.268-.355-1.155-.51-.183-.032-.315-.147-.292-.256.023-.109-.014-.204-.083-.211-.125-.013-.331-.049-1.331-.235-.297-.055-.522-.191-.5-.301.026-.132-.265-.219-.844-.252-.578-.033-.916-.134-.976-.29-.105-.274-1.309-.643-1.66-.509-.279.108-1.093-.179-1.256-.442-.07-.112-.865-.215-2.002-.259-1.597-.062-1.92-.121-2.103-.383-.282-.402-12.521-.487-12.852-.089m34.325 4.939c.028 2.772-.306 2.481 2.88 2.508 1.639.014 2.651.088 2.719.2.065.104.031.128-.083.058-.105-.065-.192-.048-.192.04 0 .258.46.361 1.613.361.941 0 1.096.043 1.171.33.066.25.282.356.897.437.574.077.838.195.906.41.052.166.261.327.463.358.201.031.348.148.325.26-.037.182.161.275.49.228.063-.009.159.113.214.272.054.158.338.438.63.622.292.183.609.486.703.673.094.187.453.621.796.964.344.343.625.721.625.84a.56.56 0 0 0 .125.342c.069.069.125.18.125.248 0 .067.132.255.294.416.161.161.25.362.198.446-.052.085.03.154.183.154.171 0 .243.09.187.236-.05.13.022.279.159.332.138.053.205.169.15.259-.124.201.36 1.173.584 1.173.089 0 .162.235.162.522 0 .304.131.636.315.795.173.15.357.571.41.936l.102.705c.004.023.095.023.204 0 .113-.024.247.239.311.606.062.356.235.716.385.8.153.085.273.361.273.624 0 .28.133.564.328.7.18.125.366.452.412.724.047.273.233.611.413.75.207.161.347.5.379.921.032.413.128.652.254.627.124-.024.161.066.096.236-.071.184-.041.235.09.155.131-.081.196.033.2.347.006.499.372 1.119.553.938.059-.06.114.073.121.294.021.675.117 1.003.378 1.293.138.152.303.502.367.777.065.275.253.612.419.75.166.137.331.512.365.833.04.363.153.583.3.583.131 0 .26.15.288.334.128.846.228 1.083.457 1.083.161 0 .247.168.247.486 0 .655.154 1.014.434 1.014.128 0 .237.056.243.125.085.994.152 1.29.307 1.342.102.034.143.129.091.212-.051.083.008.112.13.065.154-.059.236.082.264.454.023.296.12.588.217.647.096.06.169.157.161.215-.04.3.007.333.153.107.119-.184.162-.072.164.427.001.44.117.8.33 1.028.18.194.364.555.409.802.045.248.2.581.345.74.24.266.423.779.459 1.287.008.111.059.175.112.142.152-.091.439.296.424.574-.023.442.205.916.44.916.126 0 .251.15.279.334.128.846.228 1.083.458 1.083.21 0 .353.709.273 1.355-.008.058.134.238.313.401.18.163.327.479.327.702 0 .254.115.437.305.486.217.057.349.328.458.943.085.475.22.838.302.807.21-.079.429.32.432.786.002.219.145.521.32.672.174.151.34.497.368.77.061.575.289.947.501.816.081-.05.157.101.168.335.012.235.04.502.063.594.023.091.051.241.062.333.012.092.133.167.271.167.137 0 .259.093.269.208.011.115.037.283.058.375.021.092.05.293.064.447.014.154.176.328.359.386.267.085.333.253.333.837 0 .495.086.778.266.879.146.082.321.404.389.716.073.335.212.548.338.52.133-.03.177.05.116.208-.054.141-.035.257.042.257.077 0 .188.303.248.673.059.37.216.715.35.766.133.051.29.346.348.655.064.343.228.6.421.662.238.075.316.258.316.744 0 .498.075.668.333.75.213.068.333.252.333.511 0 .588.011.635.2.862.094.114.238.166.319.115.081-.05.148.22.148.601 0 .552.068.71.333.779.292.077.334.228.334 1.215 0 .988-.042 1.139-.334 1.215-.255.067-.333.228-.333.685 0 .417-.101.66-.333.806-.219.136-.334.388-.334.732 0 .383-.089.547-.333.611-.254.066-.333.227-.333.674 0 .442-.083.615-.334.694a.563.563 0 0 0-.358.47l-.043.586c-.01.122-.152.321-.316.441s-.336.427-.383.682c-.105.58-.217.767-.394.658-.173-.107-.339.312-.339.859 0 .278-.112.448-.333.506-.218.057-.334.227-.334.489 0 .222-.109.445-.243.496-.134.052-.29.239-.347.417-.056.178-.284.519-.506.759-.231.249-.404.639-.404.911 0 .316-.085.476-.255.476-.14 0-.304.131-.365.292-.06.16-.226.379-.369.486-.262.196-.285.26-.323.904a.5.5 0 0 1-.354.436c-.184.048-.334.148-.334.223 0 .074-.093.234-.208.355-.512.542-1.101 1.439-1.007 1.533.057.058.017.104-.09.104s-.195.113-.195.25c0 .138-.115.25-.255.25s-.302.123-.36.273c-.058.151-.393.544-.744.875-.352.331-.64.688-.64.793-.001.104-.188.237-.417.294-.229.058-.417.216-.417.352 0 .22-.194.318-.532.27-.064-.01-.265.173-.448.406-.183.233-.482.434-.665.448-.183.014-.328.066-.324.116.035.382-.096.507-.531.507-.275 0-.5.079-.5.176 0 .097-.067.135-.149.084-.082-.05-.192.02-.245.157-.056.145-.306.249-.601.249-.278 0-.505.08-.505.177 0 .097-.087.123-.192.057-.115-.071-.148-.046-.081.062.061.1.051.219-.023.264-.255.158-3.454.17-3.479.013-.014-.086.038-.139.115-.118.077.021.186-.106.242-.283a.732.732 0 0 1 .427-.424c.178-.057.324-.245.324-.417 0-.173.102-.374.226-.447.124-.074.317-.308.43-.522.112-.213.329-.535.482-.714.281-.328.304-.391.342-.962a.48.48 0 0 1 .341-.397c.513-.135.53-7.045.018-7.403-.186-.131-.339-.415-.339-.631 0-.567-.167-.921-.434-.921a.238.238 0 0 1-.232-.243c0-.133-.189-.431-.419-.661-.23-.23-.491-.609-.579-.841-.141-.37-.435-.514-.775-.38-.058.023-.168-.127-.245-.334-.093-.253-.275-.375-.56-.375-.311 0-.422-.087-.422-.333 0-.183-.057-.321-.125-.306-.273.06-1.135-.263-1.3-.486-.116-.156-.617-.263-1.466-.314-.993-.058-1.367-.152-1.619-.404-.428-.428-3.244-.386-3.565.053-.13.178-.571.286-1.405.343-.956.065-1.287.158-1.545.435-.181.194-.393.313-.473.264-.221-.137-1.002.273-1.002.525a.22.22 0 0 1-.217.223c-.307 0-1.114.392-1.115.542-.001.069-.083.125-.182.125-.225 0-1.227 1.018-1.37 1.391-.058.152-.221.276-.361.276-.181 0-.255.17-.255.583 0 .472-.064.583-.334.583-.196 0-.343.12-.358.292-.014.16-.043.367-.064.458a3.35 3.35 0 0 0-.058.439c-.011.15-.17.312-.353.36-.291.076-.333.227-.333 1.186 0 .79-.059 1.087-.209 1.057-.114-.023-.189.052-.166.167.023.114-.023.208-.102.208-.329 0-.195 3.734.144 4 .243.192.325.494.353 1.299.019.577.099 1.088.177 1.136a.17.17 0 0 1 .052.233c-.049.08.026.209.167.288.23.129.418.605.458 1.16.008.109.09.184.181.166.092-.017.261.147.374.366.114.218.302.456.418.527.116.072.238.306.27.52.033.213.14.416.24.45.099.034.303.211.453.393.87 1.057 2.294 2.232 1.923 1.587-.07-.121-.057-.15.032-.069a.518.518 0 0 1 .151.331c0 .105.15.22.334.254.183.034.467.204.631.377.164.173.52.315.792.315.437 0 .572.14.516.532-.009.064.315.165.719.226.408.061.778.219.829.353.052.134.164.2.25.147.086-.053.203-.02.261.073.058.093.588.169 1.178.169.605 0 1.074.073 1.074.167 0 .107 1.722.167 4.833.167 2.701 0 4.833-.066 4.833-.148 0-.082.523-.178 1.162-.214.938-.053 1.23-.138 1.51-.439.192-.205.412-.334.491-.285.242.15 1.004-.225 1.004-.494 0-.177.17-.254.563-.254.369 0 .642-.112.792-.325.131-.187.475-.351.812-.386.357-.037.583-.15.583-.292 0-.127.188-.279.417-.337.229-.058.398-.19.377-.293-.024-.111.073-.145.235-.082.186.071.236.041.154-.092-.08-.129.052-.231.384-.298.289-.058.549-.236.606-.415.055-.172.202-.313.327-.313s.275-.15.333-.333c.059-.184.251-.334.428-.334.211 0 .322-.115.322-.333 0-.3.16-.408.431-.292.053.023.197-.145.319-.375.123-.229.323-.42.445-.424.122-.004.203-.099.179-.211-.023-.112.146-.29.375-.395.23-.104.418-.328.418-.496 0-.196.121-.307.333-.307.223 0 .334-.111.334-.333 0-.186.111-.334.25-.334.137 0 .25-.078.25-.174 0-.096.197-.372.439-.613.241-.242.49-.632.553-.868.063-.235.222-.428.353-.428.131 0 .261-.161.289-.358.028-.197.197-.396.375-.443.178-.046.324-.214.324-.372s.155-.422.344-.586c.19-.165.34-.342.334-.395-.056-.486.029-.763.233-.763.134 0 .324-.15.422-.333.098-.183.122-.333.052-.333-.069 0 .032-.111.226-.246.193-.136.4-.442.46-.681a2.14 2.14 0 0 1 .436-.786c.179-.192.326-.524.326-.735 0-.238.1-.386.26-.386.143 0 .214-.075.157-.166-.057-.092-.024-.167.073-.167.098 0 .177-.227.177-.505 0-.348.101-.543.323-.625.178-.066.332-.195.341-.287.055-.537.24-1.024.452-1.194.25-.2.349-.519.371-1.191.007-.211.084-.34.171-.287.192.119.509-.431.509-.882 0-.18.117-.372.26-.427.144-.055.214-.175.157-.267-.057-.093-.024-.168.073-.168s.176-.193.176-.429c0-.414.376-.974.542-.808.044.045.129-.16.188-.455.059-.295.238-.681.397-.857.16-.176.273-.349.252-.385-.108-.186.187-1.048.349-1.018.104.019.17-.059.147-.173-.023-.115.034-.209.125-.209.092 0 .167-.179.167-.399 0-.219.113-.442.252-.495.138-.053.238-.155.223-.226-.015-.071.017-.242.072-.38.055-.137.128-.4.161-.583.034-.183.157-.313.273-.288.116.026.163-.031.105-.125-.058-.093-.032-.17.058-.17.089 0 .211-.219.27-.486.058-.268.222-.531.363-.585.142-.054.216-.208.164-.342-.051-.134-.02-.288.069-.344.089-.055.125-.16.079-.234-.045-.074.103-.335.331-.58.227-.246.413-.596.413-.778 0-.183.15-.493.334-.69.183-.197.334-.512.336-.701.003-.404.222-.796.432-.772.082.01.171-.28.199-.643.038-.494.111-.638.29-.569.25.095.367-.094.461-.743.03-.21.189-.539.353-.731.298-.348.392-.617.416-1.187.007-.166.084-.258.171-.204.178.111.508-.42.508-.817 0-.144.15-.411.334-.594.183-.184.333-.527.333-.762 0-.414.375-.974.542-.808.044.045.129-.16.188-.455.059-.295.225-.666.368-.825.256-.283.364-.613.389-1.192.007-.16.107-.273.221-.25.115.023.19-.052.167-.167-.023-.114.033-.208.125-.208s.167-.179.167-.399c0-.219.117-.444.26-.499.144-.055.214-.175.157-.267-.057-.093-.029-.168.062-.168.092 0 .19-.244.218-.542.033-.343.134-.525.273-.496.122.025.174-.031.116-.125-.059-.094-.033-.171.057-.171s.212-.218.27-.486c.059-.267.223-.53.364-.584.142-.055.215-.209.164-.342-.051-.134-.022-.288.066-.342.088-.054.159-.236.159-.404 0-.168.118-.351.261-.406.143-.055.214-.176.157-.268-.057-.092-.025-.168.072-.168.098 0 .177-.187.177-.416 0-.229.066-.417.146-.417.157 0 .467-.699.555-1.25.03-.183.165-.333.301-.333.172 0 .264-.215.299-.7.038-.527.11-.677.29-.608.248.095.367-.094.458-.727.029-.202.185-.514.348-.693.292-.323.399-.641.424-1.258.007-.176.061-.271.121-.211.157.156.546-.411.553-.805.003-.184.155-.428.338-.543.227-.141.334-.389.334-.771 0-.422.083-.584.333-.649.183-.048.339-.226.346-.395.025-.599.128-.887.472-1.325.192-.244.349-.654.349-.911 0-.258.086-.522.192-.587.131-.081.147-.044.051.115-.12.2-.099.2.141.006.166-.135.282-.465.282-.802 0-.315.064-.533.142-.485.185.114.502-.518.577-1.151.033-.275.159-.5.28-.5.122 0 .303-.242.403-.537.1-.295.313-.69.473-.877.161-.187.292-.474.292-.638 0-.164.094-.399.208-.523.169-.181.164-.199-.025-.091-.157.09-.195.07-.116-.059a.435.435 0 0 1 .323-.192c.112 0 .219-.187.238-.415.019-.228.186-.565.37-.75.184-.184.335-.519.335-.743 0-.225.108-.469.238-.542.131-.073.239-.171.24-.217 0-.045.037-.196.081-.333.044-.138.125-.456.181-.708.055-.252.203-.459.329-.459s.28-.206.343-.458.226-.583.363-.735c.138-.152.288-.527.335-.833.046-.306.164-.632.262-.724.123-.115.136-.09.043.084-.08.148-.073.193.017.111.083-.077.158-.189.166-.25.046-.372.416-.998.64-1.083.17-.066.262-.308.262-.69 0-.323.057-.579.125-.569.368.058.508-.08.688-.684.11-.366.289-.647.398-.625.109.022.223-.121.253-.318s.201-.396.379-.443a.443.443 0 0 0 .324-.434c0-.192.104-.349.232-.349.127 0 .28-.19.338-.423.059-.233.164-.388.235-.344.22.136.544-.164.571-.528.015-.191.071-.335.125-.318.054.016.485-.336.959-.783.473-.447 1.032-.93 1.242-1.073.21-.143.441-.359.515-.479a.493.493 0 0 1 .375-.218c.133 0 .241-.117.241-.259 0-.142.223-.336.495-.431.273-.095.479-.257.459-.359-.037-.186.07-.225.729-.264a.5.5 0 0 0 .436-.354c.057-.219.237-.34.526-.353.768-.033.835-.057 1.11-.397.149-.183.213-.221.142-.083-.102.2-.08.211.113.056.132-.106.531-.248.887-.314.426-.08.674-.227.728-.432.069-.265.249-.31 1.23-.31.942 0 1.2-.06 1.434-.334.239-.279.492-.333 1.564-.333 1.555 0 1.481.134 1.481-2.68v-2.153h-36.509l.046 2.375.046 2.375 2.773.045c2.602.043 2.779.066 2.86.375.077.296.232.33 1.513.33 1.2 0 1.412.039 1.331.25-.053.137-.032.255.047.262.078.007.293.048.476.09l.525.119c.105.024.311.143.458.265.147.122.269.156.272.076.003-.08.082-.014.175.146.093.16.27.292.391.292.122 0 .313.219.424.488.111.268.308.528.437.578.189.072.235.629.235 2.84 0 2.287-.04 2.735-.233 2.66-.312-.119-.431.108-.505.967-.072.837-.244 1.331-.425 1.219-.071-.043-.172.19-.225.519-.053.328-.232.708-.396.842-.165.135-.187.189-.05.12.186-.092.175-.038-.041.209-.161.184-.292.466-.292.628 0 .161-.15.484-.333.718-.184.233-.334.601-.334.817 0 .217-.073.395-.162.395-.089 0-.279.225-.421.5-.142.275-.21.5-.151.5.06 0 .025.1-.077.223-.102.123-.13.285-.062.36.068.075.037.088-.068.028-.243-.139-.497.372-.538 1.083-.011.199-.07.312-.129.253-.204-.204-.548.469-.553 1.083-.004.465-.086.64-.339.72-.247.078-.333.252-.333.672 0 .395-.1.62-.333.744-.233.125-.334.349-.334.745 0 .42-.086.594-.333.672-.183.058-.345.232-.359.386a4.244 4.244 0 0 1-.064.447 3.676 3.676 0 0 0-.058.356c-.01.104-.164.227-.341.273-.235.061-.337.258-.375.728-.036.437-.133.643-.303.643-.256 0-.276.06-.312.906-.015.331-.129.523-.355.594-.245.078-.333.253-.333.659 0 .412-.085.575-.333.64-.302.079-.403.364-.379 1.071.004.112-.135.248-.307.303-.29.092-.371.27-.526 1.161-.032.183-.147.314-.257.291-.109-.023-.201-.023-.204 0l-.103.706c-.054.377-.232.76-.41.885-.185.13-.314.419-.314.705 0 .304-.117.547-.314.652-.173.093-.362.426-.421.74-.059.315-.223.616-.364.67-.141.054-.212.169-.159.255.053.086.02.203-.073.261-.093.057-.169.245-.169.416 0 .171-.109.42-.242.553-.133.133-.295.457-.359.721a2.764 2.764 0 0 1-.425.875c-.169.219-.308.575-.308.792 0 .217-.072.394-.161.394-.089 0-.273.207-.41.459-.21.387-.25.406-.255.123-.004-.184-.157-.428-.34-.543-.213-.133-.334-.389-.334-.708 0-.319-.144-.625-.397-.845-.242-.211-.367-.465-.318-.65.046-.177-.077-.461-.293-.677-.343-.343-.41-.539-.47-1.369-.012-.161-.172-.421-.355-.578-.183-.157-.333-.442-.333-.634 0-.191-.15-.509-.334-.706-.183-.197-.333-.548-.333-.781 0-.233-.079-.424-.177-.424-.097 0-.129-.076-.072-.168.057-.092-.014-.213-.157-.268-.148-.056-.261-.295-.261-.55 0-.248-.167-.631-.372-.851-.204-.219-.38-.477-.391-.573a16.395 16.395 0 0 1-.045-.537.563.563 0 0 0-.358-.47c-.259-.082-.334-.252-.334-.761 0-.36-.056-.646-.125-.636-.427.068-.541-.072-.541-.664 0-.38-.13-.809-.317-1.047-.175-.221-.345-.588-.379-.814-.034-.226-.15-.394-.256-.373-.246.049-.461-.526-.523-1.394a.509.509 0 0 0-.359-.442c-.263-.069-.333-.228-.333-.758 0-.525-.073-.695-.333-.777-.279-.089-.481-.755-.292-.963.089-.097-.465-.582-.583-.51-.069.042-.125-.236-.125-.616 0-.552-.068-.71-.334-.78-.183-.048-.338-.134-.344-.192-.13-1.215-.358-1.856-.662-1.856-.088 0-.16-.187-.16-.417 0-.229-.139-.555-.308-.724-.169-.169-.354-.596-.411-.948-.057-.353-.219-.706-.359-.785-.141-.078-.256-.326-.256-.551 0-.225-.15-.558-.333-.742-.183-.183-.333-.52-.333-.75 0-.229-.169-.585-.375-.791-.207-.207-.385-.507-.396-.667-.012-.16-.03-.395-.042-.522-.011-.127-.166-.269-.344-.315-.245-.064-.335-.258-.375-.811-.035-.491-.128-.727-.288-.727-.137 0-.261-.208-.296-.5-.088-.722-.193-.952-.381-.835-.099.061-.122-.013-.056-.184.074-.194.047-.247-.086-.165-.135.083-.195-.062-.195-.473 0-.326-.079-.593-.176-.593-.097 0-.135-.067-.084-.149.05-.082-.02-.192-.157-.245-.804-.308-.02-3.273.865-3.273.121 0 .219-.15.219-.333 0-.302.111-.333 1.168-.333.962 0 1.219-.059 1.454-.334.269-.314.493-.333 3.873-.336 1.974-.001 3.693-.068 3.821-.15.268-.169.469-3.082.281-4.081l-.112-.599h-44.332l.023 2.333m-16.513 38.169c-.187.163-.33.361-.316.439.159.887-.046 3.702-.264 3.619-.137-.053-.255-.032-.262.047a5.107 5.107 0 0 1-.09.476c-.043.183-.111.729-.151 1.212-.048.573-.191 1.005-.41 1.24-.223.239-.337.589-.337 1.039 0 .491-.089.735-.323.881-.206.128-.341.429-.375.831-.035.426-.133.63-.302.63-.173 0-.275.232-.333.75-.046.413-.14.732-.208.709-.321-.107-.429-.002-.524.505-.057.301-.252.655-.435.787s-.333.336-.333.453c0 .117-.112.213-.25.213s-.25.064-.25.141c0 .14-.489.786-.839 1.109-.827.764-1.328 1.303-1.328 1.431 0 .084-.145.152-.322.152a.477.477 0 0 0-.422.317c-.056.174-.289.364-.518.422-.23.057-.376.172-.325.255.051.082.005.204-.102.271-.122.075-.151.048-.077-.072.066-.106.04-.193-.057-.193s-.177.075-.177.167c0 .092-.157.167-.349.167a.444.444 0 0 0-.436.333c-.048.183-.134.338-.192.345-1.215.129-1.856.357-1.856.661 0 .088-.525.161-1.167.161-.71 0-1.166.069-1.166.176 0 .097-.088.122-.195.056-.128-.079-.161-.032-.096.137.151.395-3.281.438-3.501.045-.175-.314-.47-.384-1.682-.402-.745-.01-.905-.067-.978-.346-.048-.183-.191-.342-.318-.354a3.11 3.11 0 0 1-.397-.062 3.285 3.285 0 0 0-.397-.063c-.127-.011-.271-.173-.319-.359-.049-.186-.151-.327-.228-.313-.288.05-.555-.02-.536-.14.052-.332-.039-.538-.222-.5-.111.023-.279-.127-.373-.334-.094-.206-.303-.375-.465-.375-.226 0-.293-.138-.293-.599 0-.458-.078-.619-.334-.686-.266-.069-.333-.227-.333-.786 0-.469-.11-.817-.333-1.057-.448-.48-.525-7.038-.084-7.038.138 0 .26-.113.271-.25.012-.138.04-.325.063-.417.023-.092.051-.617.062-1.167.012-.55.077-.991.146-.98.281.044.54-.027.522-.145-.107-.676.049-1.335.311-1.314.161.012.302-.09.314-.227.013-.138.032-.307.042-.375.011-.069.001-.148-.022-.177-.023-.028.164-.296.416-.596.252-.299.459-.68.459-.846 0-.165.15-.34.333-.388a.443.443 0 0 0 .333-.436c0-.312.17-.428.542-.369.069.011.125-.121.125-.294 0-.174.149-.353.333-.401.184-.048.334-.202.334-.341 0-.14.15-.302.333-.361.183-.058.333-.213.333-.344 0-.132.145-.239.322-.239a.477.477 0 0 0 .423-.315c.088-.28.629-.583.959-.538.066.009.2-.133.297-.315.098-.183.278-.332.402-.332.123 0 .326-.146.452-.325.132-.188.476-.351.812-.386.367-.038.583-.149.583-.3 0-.157.221-.257.644-.292.469-.038.666-.14.728-.375.046-.177.169-.325.273-.328.82-.028 1.565-.233 1.79-.495.167-.194.543-.331 1-.363.403-.029.708-.125.678-.213-.079-.235.448-.398 1.332-.411.879-.014 1.344-.148 1.218-.351-.142-.231.143-.307 1.264-.334 1.326-.032 1.657-.116 1.657-.422 0-.19.319-.238 1.573-.238.886 0 1.619-.074 1.678-.17.058-.093.175-.126.26-.073.086.053.155.016.155-.081s.057-.164.125-.15c.069.015.238-.02.375-.077.138-.058.55-.126.917-.152l.667-.047.044 4.978c.043 4.839.034 4.987-.298 5.274" fill="#2da944"/><path d="M11 5.566c0 .127.123.279.274.337.38.146.389.064.032-.278-.233-.222-.306-.236-.306-.059m217.45.045c.047.122.153.222.234.222.082 0 .149-.1.149-.222a.229.229 0 0 0-.234-.222c-.129 0-.196.1-.149.222M14.752 7.497c-.123.199.033.503.258.503.203 0 .204-.451.002-.576-.086-.053-.203-.02-.26.073m239.97.1c-.082.213-.129.221-.243.042-.108-.17-.141-.154-.143.069-.004.393.277.37.497-.041.098-.184.136-.334.084-.334-.052 0-.14.119-.195.264m-239.298.725c-.123.199.19.397.412.26.186-.116.064-.415-.169-.415-.081 0-.19.069-.243.155m64.909 1.011c.098.184.27.328.381.321.153-.01.151-.034-.006-.098a.37.37 0 0 1-.208-.32c0-.13-.078-.236-.173-.236-.117 0-.115.107.006.333m-18.208.473c.332.348.462.328.317-.049-.054-.141-.213-.257-.353-.257-.216 0-.211.047.036.306m224.713 1.952c-.006.205.335.575.529.575.073 0 .133-.079.133-.176 0-.097-.07-.133-.156-.08-.086.053-.234-.036-.329-.198-.094-.163-.174-.217-.177-.121m-52.825.528c-.008.226.132.439.362.551.366.177.367.175.042-.085-.184-.146-.309-.302-.28-.347.03-.044.017-.172-.028-.284-.045-.112-.089-.038-.096.165M84.389 13.433c0 .128.1.234.222.234s.222-.067.222-.149c0-.082-.1-.187-.222-.234-.122-.047-.222.02-.222.149m284.944 6.803c0 .176.502.651.593.561.042-.042-.074-.213-.258-.379-.184-.167-.335-.249-.335-.182m-280.666.931c0 .091.079.166.176.166.097 0 .134.07.081.155-.053.086-.02.203.073.26.191.118.22-.09.069-.484-.112-.291-.399-.361-.399-.097m-18.2 5.7c.155.155.244.155.4 0 .155-.156.111-.2-.2-.2s-.356.044-.2.2m29.075 4.743c-.277.112-.267.39.014.39.122 0 .222-.113.222-.25s-.006-.244-.014-.237a2.565 2.565 0 0 1-.222.097m30.014.156c0 .129.1.234.222.234s.222-.067.222-.149c0-.082-.1-.187-.222-.234-.122-.047-.222.02-.222.149M96.74 33.07c-.177.13-.266.293-.196.363.069.069.278-.037.464-.237.382-.409.222-.484-.268-.126m176.875.157c-.05.132-.003.227.105.211.249-.036.357-.329.146-.399-.087-.029-.2.055-.251.188m-1.129 2.586c-.497.508-.57.744-.163.526.34-.182.628-.619.489-.741-.034-.03-.181.067-.326.215m116.06.075c.077.23.436.262.496.045.023-.083-.094-.171-.26-.195-.169-.025-.272.041-.236.15m-299.03.51c-.137.164-.144.273-.023.348.097.06.222-.012.279-.159.14-.367-.014-.481-.256-.189m48.65 1.06c.218.298.423.542.455.542.126 0-.287-.625-.56-.847-.18-.146-.14-.03.105.305m-17.666-.142c0 .177.51.396.635.271.048-.048-.005-.087-.117-.087s-.158-.075-.101-.167c.056-.091-.014-.166-.157-.166s-.26.067-.26.149m191.167.014c0 .193.802.423.952.273.057-.056-.064-.103-.268-.103-.205 0-.325-.075-.268-.167.057-.091-.014-.166-.156-.166-.143 0-.26.073-.26.163m-209.75.852c-.275.191-.388.303-.25.249.137-.053.381-.144.541-.2.161-.057.292-.169.292-.25 0-.199-.012-.195-.583.201m-11.859.575c-.145.377-.015.397.317.049.247-.259.252-.306.036-.306-.14 0-.299.116-.353.257m61.609-.007c0 .137.11.25.244.25.15 0 .208-.098.149-.25-.052-.138-.163-.25-.244-.25-.082 0-.149.112-.149.25m69.592 1.235c-.062.1-.051.183.023.184.074.002.022.075-.115.164-.138.089-.175.162-.084.162.375 0 .668-.31.476-.503-.134-.134-.22-.136-.3-.007M341 39.965c0 .07.15.256.333.413.184.157.334.228.334.157 0-.07-.15-.256-.334-.413-.183-.157-.333-.228-.333-.157m-75.886 1.766c-.062.162.007.206.23.148.175-.046.278-.15.228-.231-.136-.22-.358-.179-.458.083m110.094.108c-.206.082-.369.246-.362.364.011.167.032.168.098.005a.362.362 0 0 1 .31-.208c.125 0 .273-.075.329-.167.12-.193.119-.193-.375.006m-31.958.494c-.057.092.001.167.129.167.127 0 .327.179.445.398.117.219.389.493.605.609.216.115.354.274.305.351-.048.078.03.142.173.142s.26-.075.26-.167a.17.17 0 0 0-.173-.166c-.224 0-1.327-1.104-1.327-1.328 0-.22-.282-.224-.417-.006m-239.555.497c.245.074.545.185.667.248.122.062.076-.005-.102-.149s-.478-.256-.667-.248c-.275.011-.255.041.102.149m71.638.18c0 .097.088.122.195.056.127-.079.162-.033.1.129-.056.146-.003.249.129.249.167 0 .183-.079.061-.305-.177-.332-.485-.414-.485-.129m-70.5.685c.418.407.629.482.424.15-.06-.097-.273-.262-.475-.366-.331-.172-.326-.152.051.216m112.439-.108c-.057.147-.166.229-.243.181-.077-.048-.14.027-.14.165 0 .197.074.178.338-.086.186-.186.295-.381.243-.433-.053-.052-.142.025-.198.173m-41.189.913c-.056.092-.079.172-.051.179.48.119.601.093.522-.112-.105-.273-.324-.304-.471-.067m-18.916.411c0 .134.168.326.375.426.318.154.335.148.11-.036-.146-.12-.233-.311-.194-.426.038-.115-.011-.208-.111-.208-.099 0-.18.11-.18.244m164.974.108a.973.973 0 0 0 .506.506c.234.087.333.077.268-.027-.056-.091-.209-.165-.342-.165a.24.24 0 0 1-.24-.24c0-.132-.074-.286-.164-.342-.104-.064-.114.035-.028.268m49.911-.061c-.057.161-.141.36-.187.443-.046.083.003.097.109.032a.454.454 0 0 0 .193-.346.36.36 0 0 1 .208-.31c.163-.066.162-.087-.005-.097-.118-.007-.261.118-.318.278m-10.328.133c-.054.141-.052.303.005.361.058.057.104-.016.104-.162 0-.146.132-.3.292-.342.273-.071.273-.077-.005-.095-.164-.011-.342.096-.396.238m-15.557.131c0 .122.105.222.234.222s.196-.1.149-.222c-.047-.122-.153-.222-.234-.222-.082 0-.149.1-.149.222m-261.695.82c-.292.235-.564.868-.303.707.09-.056.164-.21.164-.342a.24.24 0 0 1 .24-.24c.133 0 .287-.075.344-.167.144-.234-.136-.208-.445.042m239.079.356c.018.173.205.378.416.456.244.09.346.082.282-.023-.056-.09-.205-.164-.33-.164-.125 0-.267-.132-.314-.292-.073-.248-.081-.245-.054.023m-109.272.669c-.054.141-.031.297.05.347.218.135.403-.249.212-.44-.107-.106-.197-.074-.262.093m-106.963 1.02c.285.894.355 1.005.266.418-.049-.318-.164-.654-.256-.746-.113-.113-.117-.005-.01.328m-25.265.404c-.047.178-.209.362-.36.407-.205.062-.195.075.04.051.272-.028.752-.782.498-.782-.051 0-.132.146-.178.324M212.25 50.5c-.167.184-.254.385-.193.445.06.061.11.019.11-.094 0-.112.086-.15.192-.085.114.07.147.046.082-.059-.06-.098-.016-.212.1-.253.115-.041.165-.123.111-.182-.054-.059-.235.044-.402.228m51.25.148c0 .183.483.591.582.492.041-.041-.073-.201-.254-.356-.18-.154-.328-.216-.328-.136m102.542.357c-.207.083-.369.247-.362.365.01.167.031.168.097.005a.36.36 0 0 1 .31-.208c.125 0 .273-.075.33-.167.119-.193.118-.193-.375.005M75.233 52.694c-.047.077-.025.142.049.145.074.003-.053.113-.282.244-.501.287-.349.326.233.061.478-.218.684-.588.327-.588-.133 0-.28.062-.327.138m278.895.022c-.349.154-.417.259-.294.451.137.213.161.207.163-.042.002-.16.111-.292.243-.292s.287-.075.343-.166c.126-.203.114-.202-.455.049m-85.374.777c-.06.097.012.222.159.279.367.14.481-.014.189-.256-.164-.137-.273-.144-.348-.023m-163.408.523c-.007.147-.181.348-.388.447-.268.13-.298.184-.103.192.342.015.704-.409.591-.691-.059-.145-.091-.128-.1.052M61.5 57.25c-.143.173-.15.25-.02.25.102 0 .187-.073.187-.161 0-.089.105-.122.233-.072.128.049.282.009.343-.089.171-.277-.508-.212-.743.072m147.09.405c-.113.184.15.383.303.229.159-.158.129-.384-.05-.384-.086 0-.2.07-.253.155m63.602.003c.036.11.121.195.187.188.199-.021.161-.249-.054-.321-.11-.037-.17.023-.133.133m86.958 1.159c.272.266.445.532.386.592-.06.06.028.056.196-.008.294-.113.294-.123-.005-.288a1.919 1.919 0 0 1-.528-.475c-.12-.168-.291-.305-.381-.305-.089 0 .06.218.332.484m1.116 1.157c-.058.093-.024.22.076.281.256.159.421-.058.207-.272-.119-.12-.213-.123-.283-.009m-153.112.429c-.215.234-.064.561.194.422.381-.203.417-.436.069-.436-.138 0-.256.006-.263.014m153.915.453c-.075.122-.048.151.072.077.106-.066.192-.049.192.038s.188.28.417.43c.545.357.526.284-.072-.28-.337-.318-.525-.4-.609-.265m-177.123.429c-.05.081-.03.246.044.366.103.166.165.17.258.019a.312.312 0 0 0-.044-.366c-.093-.093-.207-.101-.258-.019m21.799 2.057c-.159.256.058.421.272.207.12-.119.123-.213.009-.283-.093-.058-.22-.024-.281.076m-91.023 1.559c0 .129.1.196.222.149.123-.047.223-.153.223-.234 0-.082-.1-.149-.223-.149a.229.229 0 0 0-.222.234m-22.93.612c-.331.193-.39.487-.098.487.107 0 .146-.049.086-.109-.059-.059.022-.207.181-.328.343-.26.243-.29-.169-.05m75.294.649c-.135.218.249.403.44.212.106-.106.074-.197-.093-.261-.141-.054-.297-.032-.347.049m200.207.782a.191.191 0 0 1 .098.279c-.061.106-.053.141.018.077.071-.064.396.161.721.5.326.339.53.504.453.367-.233-.418-1.155-1.331-1.333-1.319-.092.007-.072.05.043.096m-179.748 2.071c.163.095.252.243.199.329-.054.086-.018.156.079.156.098 0 .177-.06.177-.133 0-.194-.371-.535-.575-.529-.096.003-.042.083.12.177m146.033 2.993c-.158.257.059.422.273.208.119-.12.122-.213.008-.283-.093-.058-.219-.024-.281.075m-249.654.647c-.114.184.149.383.303.229.158-.158.129-.384-.05-.384-.087 0-.2.07-.253.155m248.986.023c-.061.098-.07.218-.021.266.119.12.444-.091.444-.287 0-.213-.287-.199-.423.021m-.653.644c-.114.184.149.383.303.229.159-.158.129-.384-.05-.384-.086 0-.2.069-.253.155m19.576 2.001c0 .272.354.39.557.186.147-.149.118-.167-.126-.074-.222.085-.282.063-.198-.073.066-.108.041-.195-.056-.195s-.177.07-.177.156m-11.666.483c0 .106-.117.194-.26.194-.143 0-.214.075-.157.167.057.091.166.166.242.166.171 0 .383-.514.262-.635-.048-.048-.087.001-.087.108m13.273.81c-.164.163-.126.416.046.309.084-.051.19 0 .237.116.052.13.089.102.097-.073.015-.31-.212-.52-.38-.352m.645.715c-.123.199.033.502.258.502.203 0 .204-.451.002-.576-.085-.053-.202-.02-.26.074m-181.252.919c0 .137.075.25.167.25.092 0 .167-.113.167-.25 0-.138-.075-.25-.167-.25-.092 0-.167.112-.167.25m182 0c0 .137.075.25.167.25.092 0 .167-.113.167-.25 0-.138-.075-.25-.167-.25-.092 0-.167.112-.167.25m.608.67c.128.334.533.437.487.124a.384.384 0 0 0-.305-.305c-.162-.024-.233.048-.182.181m-19.153.736c-.059.223-.014.292.148.23.262-.1.302-.322.083-.458-.081-.05-.185.053-.231.228m19.974-.176c-.086.139.759 1.187.957 1.187.047 0 .066-.132.042-.292-.024-.16-.111-.293-.194-.294-.268-.005-.575-.267-.484-.414.049-.079.018-.188-.069-.242a.183.183 0 0 0-.252.055m-32.387 2.025c-.206.083-.369.247-.362.365.01.167.032.168.097.005a.362.362 0 0 1 .311-.208c.124 0 .272-.075.329-.167.119-.193.119-.193-.375.005m-172.229.245a3.29 3.29 0 0 0-.044.208 1.34 1.34 0 0 1-.163.345c-.219.346-.053.351.298.009.239-.232.26-.313.084-.315-.197-.002-.195-.03.012-.164.167-.107.181-.162.042-.164-.115-.001-.218.035-.229.081m137.68.722c-.3.243-.321.306-.102.306.152 0 .24-.037.195-.081-.044-.044.05-.179.209-.3.159-.121.241-.222.182-.225-.058-.003-.276.132-.484.3m94.759 1.864c.056.09.204.164.329.164.126 0 .264.114.307.253.061.198.073.193.054-.023-.014-.151-.198-.339-.408-.417-.245-.091-.347-.082-.282.023m-262.88 1.331c-.114.183-.164.333-.111.333.125 0 .573-.447.573-.571 0-.212-.266-.075-.462.238m196.205 1.844c-.061.098-.07.218-.021.267.119.119.444-.091.444-.288 0-.213-.287-.199-.423.021m-190.487.38c-.202.148-.244.263-.123.338.101.063.265-.038.364-.224.213-.398.173-.416-.241-.114m30.59-.024c-.007.156-.144.36-.305.453-.276.161-.276.17.006.175.325.005.534-.361.398-.698-.055-.137-.09-.113-.099.07M327.548 88c-.048.183-.186.333-.308.333a.415.415 0 0 0-.322.165c-.064.104.034.114.268.027.323-.119.791-.858.543-.858-.051 0-.133.15-.181.333m-289.035.278c.009.205.043.231.104.078.076-.192.115-.192.249 0 .132.188.148.186.095-.012-.098-.362-.463-.416-.448-.066m277.942.222c-.157.183-.208.333-.115.333.094 0 .213-.112.266-.249.053-.137.174-.2.271-.141.102.064.125.028.056-.084-.153-.247-.143-.25-.478.141m-1.125 1.087c-.116.14-.163.303-.104.361.059.059.107.016.107-.097 0-.112.087-.15.193-.085.113.07.147.046.082-.059-.061-.098-.016-.217.099-.263.131-.053.139-.089.022-.098-.104-.007-.283.102-.399.241m-158.477.705c-.011.206-.099.375-.196.375s-.134.068-.082.152c.051.084 0 .191-.116.237-.156.063-.158.088-.007.098.269.017.588-.599.495-.954-.054-.203-.081-.177-.094.092m207.058.05c-.158.256.059.421.273.207.12-.119.123-.213.009-.283-.094-.058-.22-.024-.282.076m28.855-.035c-.058.094-.024.22.076.282.256.158.421-.059.207-.273-.119-.12-.213-.123-.283-.009m-348.337.671c.177.172.35.286.386.255.106-.093-.339-.566-.531-.566-.097 0-.031.14.145.311m98.687.079c-.053.139.012.342.144.451.277.231.341-.091.094-.48-.115-.181-.159-.175-.238.029m-59.447.889c-.002.176.435.721.578.721.126 0-.015-.419-.149-.444-.079-.016-.208-.128-.285-.25-.094-.149-.142-.157-.144-.027m238.956.748c-.344.352-.569.639-.5.638.161-.003 1.281-1.152 1.192-1.223-.037-.029-.348.234-.692.585M88.78 96.602c.101.263.323.303.458.084.051-.082-.052-.186-.227-.232-.224-.058-.293-.014-.231.148m1.412.556c.036.11.121.195.187.188.199-.021.161-.249-.054-.321-.11-.037-.17.023-.133.133m42.141.097c0 .141.116.3.258.354.376.145.396.015.048-.317-.259-.247-.306-.253-.306-.037m45.902 19.641c-.141.368.047.556.301.301.15-.15.151-.243.003-.392-.148-.148-.221-.126-.304.091m-.612 1.119c-.251.27-.454.583-.451.696.003.113.091.057.197-.126.105-.182.347-.457.536-.61.19-.154.307-.318.26-.365-.047-.047-.291.135-.542.405m-33.956 3.646c0 .095.079.172.176.172.097 0 .13.075.074.167-.057.092-.028.167.063.167.337 0 .353-.322.025-.498-.228-.122-.338-.124-.338-.008m27.874 2.116c-.116.047-.159.166-.098.266.074.119.004.139-.207.059-.255-.097-.278-.08-.112.087.166.168.275.136.548-.157.332-.356.296-.427-.131-.255" fill="#00b624"/></g></svg>