<svg width="693" height="187" viewBox="0 0 693 187" fill="none" xmlns="http://www.w3.org/2000/svg">
<rect width="693" height="187" rx="2" fill="#F9F8F6"/>
<rect x="87" y="43" width="8" height="80" fill="#E3D1C3"/>
<rect x="127" y="43" width="16" height="80" fill="#E3D1C3"/>
<rect x="175" y="43" width="24" height="80" fill="#E3D1C3"/>
<path d="M127.719 86H127.219V86.5H127.719V86ZM127.719 81V80.5H127.219V81H127.719ZM128.719 81H129.219V80.5H128.719V81ZM128.719 83H128.219V83.5H128.719V83ZM141.281 83V83.5H141.781V83H141.281ZM141.281 81V80.5H140.781V81H141.281ZM142.281 81H142.781V80.5H142.281V81ZM142.281 86V86.5H142.781V86H142.281ZM141.281 86H140.781V86.5H141.281V86ZM141.281 84H141.781V83.5H141.281V84ZM128.719 84V83.5H128.219V84H128.719ZM128.719 86V86.5H129.219V86H128.719ZM127.219 85.5V86H128.219V85.5H127.219ZM127.219 84V85.5H128.219V84H127.219ZM127.219 83V84H128.219V83H127.219ZM127.219 81.5V83H128.219V81.5H127.219ZM127.219 81V81.5H128.219V81H127.219ZM128.719 80.5H127.719V81.5H128.719V80.5ZM129.219 81.5V81H128.219V81.5H129.219ZM129.219 83V81.5H128.219V83H129.219ZM141.281 82.5H128.719V83.5H141.281V82.5ZM141.781 83V81.5H140.781V83H141.781ZM141.781 81.5V81H140.781V81.5H141.781ZM141.281 81.5H142.281V80.5H141.281V81.5ZM141.781 81V81.5H142.781V81H141.781ZM141.781 81.5V85.5H142.781V81.5H141.781ZM141.781 85.5V86H142.781V85.5H141.781ZM142.281 85.5H141.281V86.5H142.281V85.5ZM141.781 86V85.5H140.781V86H141.781ZM141.781 85.5V84H140.781V85.5H141.781ZM128.719 84.5H141.281V83.5H128.719V84.5ZM129.219 85.5V84H128.219V85.5H129.219ZM129.219 86V85.5H128.219V86H129.219ZM127.719 86.5H128.719V85.5H127.719V86.5Z" fill="#512B2B"/>
<path d="M86.7747 86H86.2747V86.5H86.7747V86ZM86.7747 81V80.5H86.2747V81H86.7747ZM87.7747 81H88.2747V80.5H87.7747V81ZM87.7747 83H87.2747V83.5H87.7747V83ZM94.2253 83V83.5H94.7253V83H94.2253ZM94.2253 81V80.5H93.7253V81H94.2253ZM95.2253 81H95.7253V80.5H95.2253V81ZM95.2253 86V86.5H95.7253V86H95.2253ZM94.2253 86H93.7253V86.5H94.2253V86ZM94.2253 84H94.7253V83.5H94.2253V84ZM87.7747 84V83.5H87.2747V84H87.7747ZM87.7747 86V86.5H88.2747V86H87.7747ZM86.2747 85.5V86H87.2747V85.5H86.2747ZM86.2747 84V85.5H87.2747V84H86.2747ZM86.2747 83V84H87.2747V83H86.2747ZM86.2747 81.5V83H87.2747V81.5H86.2747ZM86.2747 81V81.5H87.2747V81H86.2747ZM87.7747 80.5H86.7747V81.5H87.7747V80.5ZM88.2747 81.5V81H87.2747V81.5H88.2747ZM88.2747 83V81.5H87.2747V83H88.2747ZM94.2253 82.5H87.7747V83.5H94.2253V82.5ZM94.7253 83V81.5H93.7253V83H94.7253ZM94.7253 81.5V81H93.7253V81.5H94.7253ZM94.2253 81.5H95.2253V80.5H94.2253V81.5ZM94.7253 81V81.5H95.7253V81H94.7253ZM94.7253 81.5V85.5H95.7253V81.5H94.7253ZM94.7253 85.5V86H95.7253V85.5H94.7253ZM95.2253 85.5H94.2253V86.5H95.2253V85.5ZM94.7253 86V85.5H93.7253V86H94.7253ZM94.7253 85.5V84H93.7253V85.5H94.7253ZM87.7747 84.5H94.2253V83.5H87.7747V84.5ZM88.2747 85.5V84H87.2747V85.5H88.2747ZM88.2747 86V85.5H87.2747V86H88.2747ZM86.7747 86.5H87.7747V85.5H86.7747V86.5Z" fill="#512B2B"/>
<path d="M175.318 83V83.5H175.818V83H175.318ZM175.318 83V82.5H174.818V83H175.318ZM175.318 81V80.5H174.818V81H175.318ZM176.318 81H176.818V80.5H176.318V81ZM176.318 83H175.818V83.5H176.318V83ZM197.971 83V83.5H198.471V83H197.971ZM197.971 81V80.5H197.471V81H197.971ZM198.971 81H199.471V80.5H198.971V81ZM198.971 86V86.5H199.471V86H198.971ZM197.971 86H197.471V86.5H197.971V86ZM197.971 84H198.471V83.5H197.971V84ZM176.318 84V83.5H175.818V84H176.318ZM176.318 86V86.5H176.818V86H176.318ZM175.318 86H174.818V86.5H175.318V86ZM175.318 84H175.818V83.5H175.318V84ZM175.318 84H174.818V84.5H175.318V84ZM175.318 82.5H175.318V83.5H175.318V82.5ZM174.818 81.5V83H175.818V81.5H174.818ZM174.818 81V81.5H175.818V81H174.818ZM176.318 80.5H175.318V81.5H176.318V80.5ZM176.818 81.5V81H175.818V81.5H176.818ZM176.818 83V81.5H175.818V83H176.818ZM197.971 82.5H176.318V83.5H197.971V82.5ZM198.471 83V81.5H197.471V83H198.471ZM198.471 81.5V81H197.471V81.5H198.471ZM197.971 81.5H198.971V80.5H197.971V81.5ZM198.471 81V81.5H199.471V81H198.471ZM198.471 81.5V85.5H199.471V81.5H198.471ZM198.471 85.5V86H199.471V85.5H198.471ZM198.971 85.5H197.971V86.5H198.971V85.5ZM198.471 86V85.5H197.471V86H198.471ZM198.471 85.5V84H197.471V85.5H198.471ZM176.318 84.5H197.971V83.5H176.318V84.5ZM176.818 85.5V84H175.818V85.5H176.818ZM176.818 86V85.5H175.818V86H176.818ZM175.318 86.5H176.318V85.5H175.318V86.5ZM174.818 85.5V86H175.818V85.5H174.818ZM174.818 84V85.5H175.818V84H174.818ZM175.318 84.5H175.318V83.5H175.318V84.5ZM174.818 83V84H175.818V83H174.818Z" fill="#512B2B"/>
<path d="M82.2715 137.342C81.834 137.182 81.5098 136.953 81.2988 136.656C81.0879 136.359 80.9824 136.004 80.9824 135.59C80.9824 134.965 81.207 134.439 81.6562 134.014C82.1055 133.588 82.7031 133.375 83.4492 133.375C84.1992 133.375 84.8027 133.594 85.2598 134.031C85.7168 134.465 85.9453 134.994 85.9453 135.619C85.9453 136.018 85.8398 136.365 85.6289 136.662C85.4219 136.955 85.1055 137.182 84.6797 137.342C85.207 137.514 85.6074 137.791 85.8809 138.174C86.1582 138.557 86.2969 139.014 86.2969 139.545C86.2969 140.279 86.0371 140.896 85.5176 141.396C84.998 141.896 84.3145 142.146 83.4668 142.146C82.6191 142.146 81.9355 141.896 81.416 141.396C80.8965 140.893 80.6367 140.266 80.6367 139.516C80.6367 138.957 80.7773 138.49 81.0586 138.115C81.3438 137.736 81.748 137.479 82.2715 137.342ZM82.0605 135.555C82.0605 135.961 82.1914 136.293 82.4531 136.551C82.7148 136.809 83.0547 136.938 83.4727 136.938C83.8789 136.938 84.2109 136.811 84.4688 136.557C84.7305 136.299 84.8613 135.984 84.8613 135.613C84.8613 135.227 84.7266 134.902 84.457 134.641C84.1914 134.375 83.8594 134.242 83.4609 134.242C83.0586 134.242 82.7246 134.371 82.459 134.629C82.1934 134.887 82.0605 135.195 82.0605 135.555ZM81.7207 139.521C81.7207 139.822 81.791 140.113 81.9316 140.395C82.0762 140.676 82.2891 140.895 82.5703 141.051C82.8516 141.203 83.1543 141.279 83.4785 141.279C83.9824 141.279 84.3984 141.117 84.7266 140.793C85.0547 140.469 85.2188 140.057 85.2188 139.557C85.2188 139.049 85.0488 138.629 84.709 138.297C84.373 137.965 83.9512 137.799 83.4434 137.799C82.9473 137.799 82.5352 137.963 82.207 138.291C81.8828 138.619 81.7207 139.029 81.7207 139.521ZM90.9609 144.385V135.777H91.9219V136.586C92.1484 136.27 92.4043 136.033 92.6895 135.877C92.9746 135.717 93.3203 135.637 93.7266 135.637C94.2578 135.637 94.7266 135.773 95.1328 136.047C95.5391 136.32 95.8457 136.707 96.0527 137.207C96.2598 137.703 96.3633 138.248 96.3633 138.842C96.3633 139.479 96.248 140.053 96.0176 140.564C95.791 141.072 95.459 141.463 95.0215 141.736C94.5879 142.006 94.1309 142.141 93.6504 142.141C93.2988 142.141 92.9824 142.066 92.7012 141.918C92.4238 141.77 92.1953 141.582 92.0156 141.355V144.385H90.9609ZM91.916 138.924C91.916 139.725 92.0781 140.316 92.4023 140.699C92.7266 141.082 93.1191 141.273 93.5801 141.273C94.0488 141.273 94.4492 141.076 94.7812 140.682C95.1172 140.283 95.2852 139.668 95.2852 138.836C95.2852 138.043 95.1211 137.449 94.793 137.055C94.4688 136.66 94.0801 136.463 93.627 136.463C93.1777 136.463 92.7793 136.674 92.4316 137.096C92.0879 137.514 91.916 138.123 91.916 138.924ZM96.9375 142L99.2109 138.766L97.1074 135.777H98.4258L99.3809 137.236C99.5605 137.514 99.7051 137.746 99.8145 137.934C99.9863 137.676 100.145 137.447 100.289 137.248L101.338 135.777H102.598L100.447 138.707L102.762 142H101.467L100.189 140.066L99.8496 139.545L98.2148 142H96.9375Z" fill="#512B2B"/>
<path d="M124.781 142H123.727V135.279C123.473 135.521 123.139 135.764 122.725 136.006C122.314 136.248 121.945 136.43 121.617 136.551V135.531C122.207 135.254 122.723 134.918 123.164 134.523C123.605 134.129 123.918 133.746 124.102 133.375H124.781V142ZM132.961 135.514L131.912 135.596C131.818 135.182 131.686 134.881 131.514 134.693C131.229 134.393 130.877 134.242 130.459 134.242C130.123 134.242 129.828 134.336 129.574 134.523C129.242 134.766 128.98 135.119 128.789 135.584C128.598 136.049 128.498 136.711 128.49 137.57C128.744 137.184 129.055 136.896 129.422 136.709C129.789 136.521 130.174 136.428 130.576 136.428C131.279 136.428 131.877 136.688 132.369 137.207C132.865 137.723 133.113 138.391 133.113 139.211C133.113 139.75 132.996 140.252 132.762 140.717C132.531 141.178 132.213 141.531 131.807 141.777C131.4 142.023 130.939 142.146 130.424 142.146C129.545 142.146 128.828 141.824 128.273 141.18C127.719 140.531 127.441 139.465 127.441 137.98C127.441 136.32 127.748 135.113 128.361 134.359C128.896 133.703 129.617 133.375 130.523 133.375C131.199 133.375 131.752 133.564 132.182 133.943C132.615 134.322 132.875 134.846 132.961 135.514ZM128.654 139.217C128.654 139.58 128.73 139.928 128.883 140.26C129.039 140.592 129.256 140.846 129.533 141.021C129.811 141.193 130.102 141.279 130.406 141.279C130.852 141.279 131.234 141.1 131.555 140.74C131.875 140.381 132.035 139.893 132.035 139.275C132.035 138.682 131.877 138.215 131.561 137.875C131.244 137.531 130.846 137.359 130.365 137.359C129.889 137.359 129.484 137.531 129.152 137.875C128.82 138.215 128.654 138.662 128.654 139.217ZM137.801 144.385V135.777H138.762V136.586C138.988 136.27 139.244 136.033 139.529 135.877C139.814 135.717 140.16 135.637 140.566 135.637C141.098 135.637 141.566 135.773 141.973 136.047C142.379 136.32 142.686 136.707 142.893 137.207C143.1 137.703 143.203 138.248 143.203 138.842C143.203 139.479 143.088 140.053 142.857 140.564C142.631 141.072 142.299 141.463 141.861 141.736C141.428 142.006 140.971 142.141 140.49 142.141C140.139 142.141 139.822 142.066 139.541 141.918C139.264 141.77 139.035 141.582 138.855 141.355V144.385H137.801ZM138.756 138.924C138.756 139.725 138.918 140.316 139.242 140.699C139.566 141.082 139.959 141.273 140.42 141.273C140.889 141.273 141.289 141.076 141.621 140.682C141.957 140.283 142.125 139.668 142.125 138.836C142.125 138.043 141.961 137.449 141.633 137.055C141.309 136.66 140.92 136.463 140.467 136.463C140.018 136.463 139.619 136.674 139.271 137.096C138.928 137.514 138.756 138.123 138.756 138.924ZM143.777 142L146.051 138.766L143.947 135.777H145.266L146.221 137.236C146.4 137.514 146.545 137.746 146.654 137.934C146.826 137.676 146.984 137.447 147.129 137.248L148.178 135.777H149.438L147.287 138.707L149.602 142H148.307L147.029 140.066L146.689 139.545L145.055 142H143.777Z" fill="#512B2B"/>
<path d="M231.814 139.732L232.869 139.592C232.99 140.189 233.195 140.621 233.484 140.887C233.777 141.148 234.133 141.279 234.551 141.279C235.047 141.279 235.465 141.107 235.805 140.764C236.148 140.42 236.32 139.994 236.32 139.486C236.32 139.002 236.162 138.604 235.846 138.291C235.529 137.975 235.127 137.816 234.639 137.816C234.439 137.816 234.191 137.855 233.895 137.934L234.012 137.008C234.082 137.016 234.139 137.02 234.182 137.02C234.631 137.02 235.035 136.902 235.395 136.668C235.754 136.434 235.934 136.072 235.934 135.584C235.934 135.197 235.803 134.877 235.541 134.623C235.279 134.369 234.941 134.242 234.527 134.242C234.117 134.242 233.775 134.371 233.502 134.629C233.229 134.887 233.053 135.273 232.975 135.789L231.92 135.602C232.049 134.895 232.342 134.348 232.799 133.961C233.256 133.57 233.824 133.375 234.504 133.375C234.973 133.375 235.404 133.477 235.799 133.68C236.193 133.879 236.494 134.152 236.701 134.5C236.912 134.848 237.018 135.217 237.018 135.607C237.018 135.979 236.918 136.316 236.719 136.621C236.52 136.926 236.225 137.168 235.834 137.348C236.342 137.465 236.736 137.709 237.018 138.08C237.299 138.447 237.439 138.908 237.439 139.463C237.439 140.213 237.166 140.85 236.619 141.373C236.072 141.893 235.381 142.152 234.545 142.152C233.791 142.152 233.164 141.928 232.664 141.479C232.168 141.029 231.885 140.447 231.814 139.732ZM244.031 140.986V142H238.354C238.346 141.746 238.387 141.502 238.477 141.268C238.621 140.881 238.852 140.5 239.168 140.125C239.488 139.75 239.949 139.316 240.551 138.824C241.484 138.059 242.115 137.453 242.443 137.008C242.771 136.559 242.936 136.135 242.936 135.736C242.936 135.318 242.785 134.967 242.484 134.682C242.188 134.393 241.799 134.248 241.318 134.248C240.811 134.248 240.404 134.4 240.1 134.705C239.795 135.01 239.641 135.432 239.637 135.971L238.553 135.859C238.627 135.051 238.906 134.436 239.391 134.014C239.875 133.588 240.525 133.375 241.342 133.375C242.166 133.375 242.818 133.604 243.299 134.061C243.779 134.518 244.02 135.084 244.02 135.76C244.02 136.104 243.949 136.441 243.809 136.773C243.668 137.105 243.434 137.455 243.105 137.822C242.781 138.189 242.24 138.693 241.482 139.334C240.85 139.865 240.443 140.227 240.264 140.418C240.084 140.605 239.936 140.795 239.818 140.986H244.031ZM248.801 144.385V135.777H249.762V136.586C249.988 136.27 250.244 136.033 250.529 135.877C250.814 135.717 251.16 135.637 251.566 135.637C252.098 135.637 252.566 135.773 252.973 136.047C253.379 136.32 253.686 136.707 253.893 137.207C254.1 137.703 254.203 138.248 254.203 138.842C254.203 139.479 254.088 140.053 253.857 140.564C253.631 141.072 253.299 141.463 252.861 141.736C252.428 142.006 251.971 142.141 251.49 142.141C251.139 142.141 250.822 142.066 250.541 141.918C250.264 141.77 250.035 141.582 249.855 141.355V144.385H248.801ZM249.756 138.924C249.756 139.725 249.918 140.316 250.242 140.699C250.566 141.082 250.959 141.273 251.42 141.273C251.889 141.273 252.289 141.076 252.621 140.682C252.957 140.283 253.125 139.668 253.125 138.836C253.125 138.043 252.961 137.449 252.633 137.055C252.309 136.66 251.92 136.463 251.467 136.463C251.018 136.463 250.619 136.674 250.271 137.096C249.928 137.514 249.756 138.123 249.756 138.924ZM254.777 142L257.051 138.766L254.947 135.777H256.266L257.221 137.236C257.4 137.514 257.545 137.746 257.654 137.934C257.826 137.676 257.984 137.447 258.129 137.248L259.178 135.777H260.438L258.287 138.707L260.602 142H259.307L258.029 140.066L257.689 139.545L256.055 142H254.777Z" fill="#512B2B"/>
<path d="M178.352 140.986V142H172.674C172.666 141.746 172.707 141.502 172.797 141.268C172.941 140.881 173.172 140.5 173.488 140.125C173.809 139.75 174.27 139.316 174.871 138.824C175.805 138.059 176.436 137.453 176.764 137.008C177.092 136.559 177.256 136.135 177.256 135.736C177.256 135.318 177.105 134.967 176.805 134.682C176.508 134.393 176.119 134.248 175.639 134.248C175.131 134.248 174.725 134.4 174.42 134.705C174.115 135.01 173.961 135.432 173.957 135.971L172.873 135.859C172.947 135.051 173.227 134.436 173.711 134.014C174.195 133.588 174.846 133.375 175.662 133.375C176.486 133.375 177.139 133.604 177.619 134.061C178.1 134.518 178.34 135.084 178.34 135.76C178.34 136.104 178.27 136.441 178.129 136.773C177.988 137.105 177.754 137.455 177.426 137.822C177.102 138.189 176.561 138.693 175.803 139.334C175.17 139.865 174.764 140.227 174.584 140.418C174.404 140.605 174.256 140.795 174.139 140.986H178.352ZM182.869 142V139.943H179.143V138.977L183.062 133.41H183.924V138.977H185.084V139.943H183.924V142H182.869ZM182.869 138.977V135.104L180.18 138.977H182.869ZM189.801 144.385V135.777H190.762V136.586C190.988 136.27 191.244 136.033 191.529 135.877C191.814 135.717 192.16 135.637 192.566 135.637C193.098 135.637 193.566 135.773 193.973 136.047C194.379 136.32 194.686 136.707 194.893 137.207C195.1 137.703 195.203 138.248 195.203 138.842C195.203 139.479 195.088 140.053 194.857 140.564C194.631 141.072 194.299 141.463 193.861 141.736C193.428 142.006 192.971 142.141 192.49 142.141C192.139 142.141 191.822 142.066 191.541 141.918C191.264 141.77 191.035 141.582 190.855 141.355V144.385H189.801ZM190.756 138.924C190.756 139.725 190.918 140.316 191.242 140.699C191.566 141.082 191.959 141.273 192.42 141.273C192.889 141.273 193.289 141.076 193.621 140.682C193.957 140.283 194.125 139.668 194.125 138.836C194.125 138.043 193.961 137.449 193.633 137.055C193.309 136.66 192.92 136.463 192.467 136.463C192.018 136.463 191.619 136.674 191.271 137.096C190.928 137.514 190.756 138.123 190.756 138.924ZM195.777 142L198.051 138.766L195.947 135.777H197.266L198.221 137.236C198.4 137.514 198.545 137.746 198.654 137.934C198.826 137.676 198.984 137.447 199.129 137.248L200.178 135.777H201.438L199.287 138.707L201.602 142H200.307L199.029 140.066L198.689 139.545L197.055 142H195.777Z" fill="#512B2B"/>
<path d="M305.189 142V139.943H301.463V138.977L305.383 133.41H306.244V138.977H307.404V139.943H306.244V142H305.189ZM305.189 138.977V135.104L302.5 138.977H305.189ZM308.488 137.764C308.488 136.748 308.592 135.932 308.799 135.314C309.01 134.693 309.32 134.215 309.73 133.879C310.145 133.543 310.664 133.375 311.289 133.375C311.75 133.375 312.154 133.469 312.502 133.656C312.85 133.84 313.137 134.107 313.363 134.459C313.59 134.807 313.768 135.232 313.896 135.736C314.025 136.236 314.09 136.912 314.09 137.764C314.09 138.771 313.986 139.586 313.779 140.207C313.572 140.824 313.262 141.303 312.848 141.643C312.438 141.979 311.918 142.146 311.289 142.146C310.461 142.146 309.811 141.85 309.338 141.256C308.771 140.541 308.488 139.377 308.488 137.764ZM309.572 137.764C309.572 139.174 309.736 140.113 310.064 140.582C310.396 141.047 310.805 141.279 311.289 141.279C311.773 141.279 312.18 141.045 312.508 140.576C312.84 140.107 313.006 139.17 313.006 137.764C313.006 136.35 312.84 135.41 312.508 134.945C312.18 134.48 311.77 134.248 311.277 134.248C310.793 134.248 310.406 134.453 310.117 134.863C309.754 135.387 309.572 136.354 309.572 137.764ZM318.801 144.385V135.777H319.762V136.586C319.988 136.27 320.244 136.033 320.529 135.877C320.814 135.717 321.16 135.637 321.566 135.637C322.098 135.637 322.566 135.773 322.973 136.047C323.379 136.32 323.686 136.707 323.893 137.207C324.1 137.703 324.203 138.248 324.203 138.842C324.203 139.479 324.088 140.053 323.857 140.564C323.631 141.072 323.299 141.463 322.861 141.736C322.428 142.006 321.971 142.141 321.49 142.141C321.139 142.141 320.822 142.066 320.541 141.918C320.264 141.77 320.035 141.582 319.855 141.355V144.385H318.801ZM319.756 138.924C319.756 139.725 319.918 140.316 320.242 140.699C320.566 141.082 320.959 141.273 321.42 141.273C321.889 141.273 322.289 141.076 322.621 140.682C322.957 140.283 323.125 139.668 323.125 138.836C323.125 138.043 322.961 137.449 322.633 137.055C322.309 136.66 321.92 136.463 321.467 136.463C321.018 136.463 320.619 136.674 320.271 137.096C319.928 137.514 319.756 138.123 319.756 138.924ZM324.777 142L327.051 138.766L324.947 135.777H326.266L327.221 137.236C327.4 137.514 327.545 137.746 327.654 137.934C327.826 137.676 327.984 137.447 328.129 137.248L329.178 135.777H330.438L328.287 138.707L330.602 142H329.307L328.029 140.066L327.689 139.545L326.055 142H324.777Z" fill="#512B2B"/>
<path d="M379.189 142V139.943H375.463V138.977L379.383 133.41H380.244V138.977H381.404V139.943H380.244V142H379.189ZM379.189 138.977V135.104L376.5 138.977H379.189ZM384.111 137.342C383.674 137.182 383.35 136.953 383.139 136.656C382.928 136.359 382.822 136.004 382.822 135.59C382.822 134.965 383.047 134.439 383.496 134.014C383.945 133.588 384.543 133.375 385.289 133.375C386.039 133.375 386.643 133.594 387.1 134.031C387.557 134.465 387.785 134.994 387.785 135.619C387.785 136.018 387.68 136.365 387.469 136.662C387.262 136.955 386.945 137.182 386.52 137.342C387.047 137.514 387.447 137.791 387.721 138.174C387.998 138.557 388.137 139.014 388.137 139.545C388.137 140.279 387.877 140.896 387.357 141.396C386.838 141.896 386.154 142.146 385.307 142.146C384.459 142.146 383.775 141.896 383.256 141.396C382.736 140.893 382.477 140.266 382.477 139.516C382.477 138.957 382.617 138.49 382.898 138.115C383.184 137.736 383.588 137.479 384.111 137.342ZM383.9 135.555C383.9 135.961 384.031 136.293 384.293 136.551C384.555 136.809 384.895 136.938 385.312 136.938C385.719 136.938 386.051 136.811 386.309 136.557C386.57 136.299 386.701 135.984 386.701 135.613C386.701 135.227 386.566 134.902 386.297 134.641C386.031 134.375 385.699 134.242 385.301 134.242C384.898 134.242 384.564 134.371 384.299 134.629C384.033 134.887 383.9 135.195 383.9 135.555ZM383.561 139.521C383.561 139.822 383.631 140.113 383.771 140.395C383.916 140.676 384.129 140.895 384.41 141.051C384.691 141.203 384.994 141.279 385.318 141.279C385.822 141.279 386.238 141.117 386.566 140.793C386.895 140.469 387.059 140.057 387.059 139.557C387.059 139.049 386.889 138.629 386.549 138.297C386.213 137.965 385.791 137.799 385.283 137.799C384.787 137.799 384.375 137.963 384.047 138.291C383.723 138.619 383.561 139.029 383.561 139.521ZM392.801 144.385V135.777H393.762V136.586C393.988 136.27 394.244 136.033 394.529 135.877C394.814 135.717 395.16 135.637 395.566 135.637C396.098 135.637 396.566 135.773 396.973 136.047C397.379 136.32 397.686 136.707 397.893 137.207C398.1 137.703 398.203 138.248 398.203 138.842C398.203 139.479 398.088 140.053 397.857 140.564C397.631 141.072 397.299 141.463 396.861 141.736C396.428 142.006 395.971 142.141 395.49 142.141C395.139 142.141 394.822 142.066 394.541 141.918C394.264 141.77 394.035 141.582 393.855 141.355V144.385H392.801ZM393.756 138.924C393.756 139.725 393.918 140.316 394.242 140.699C394.566 141.082 394.959 141.273 395.42 141.273C395.889 141.273 396.289 141.076 396.621 140.682C396.957 140.283 397.125 139.668 397.125 138.836C397.125 138.043 396.961 137.449 396.633 137.055C396.309 136.66 395.92 136.463 395.467 136.463C395.018 136.463 394.619 136.674 394.271 137.096C393.928 137.514 393.756 138.123 393.756 138.924ZM398.777 142L401.051 138.766L398.947 135.777H400.266L401.221 137.236C401.4 137.514 401.545 137.746 401.654 137.934C401.826 137.676 401.984 137.447 402.129 137.248L403.178 135.777H404.438L402.287 138.707L404.602 142H403.307L402.029 140.066L401.689 139.545L400.055 142H398.777Z" fill="#512B2B"/>
<path d="M459.809 139.75L460.916 139.656C460.998 140.195 461.188 140.602 461.484 140.875C461.785 141.145 462.146 141.279 462.568 141.279C463.076 141.279 463.506 141.088 463.857 140.705C464.209 140.322 464.385 139.814 464.385 139.182C464.385 138.58 464.215 138.105 463.875 137.758C463.539 137.41 463.098 137.236 462.551 137.236C462.211 137.236 461.904 137.314 461.631 137.471C461.357 137.623 461.143 137.822 460.986 138.068L459.996 137.939L460.828 133.527H465.1V134.535H461.672L461.209 136.844C461.725 136.484 462.266 136.305 462.832 136.305C463.582 136.305 464.215 136.564 464.73 137.084C465.246 137.604 465.504 138.271 465.504 139.088C465.504 139.865 465.277 140.537 464.824 141.104C464.273 141.799 463.521 142.146 462.568 142.146C461.787 142.146 461.148 141.928 460.652 141.49C460.16 141.053 459.879 140.473 459.809 139.75ZM471.961 135.514L470.912 135.596C470.818 135.182 470.686 134.881 470.514 134.693C470.229 134.393 469.877 134.242 469.459 134.242C469.123 134.242 468.828 134.336 468.574 134.523C468.242 134.766 467.98 135.119 467.789 135.584C467.598 136.049 467.498 136.711 467.49 137.57C467.744 137.184 468.055 136.896 468.422 136.709C468.789 136.521 469.174 136.428 469.576 136.428C470.279 136.428 470.877 136.688 471.369 137.207C471.865 137.723 472.113 138.391 472.113 139.211C472.113 139.75 471.996 140.252 471.762 140.717C471.531 141.178 471.213 141.531 470.807 141.777C470.4 142.023 469.939 142.146 469.424 142.146C468.545 142.146 467.828 141.824 467.273 141.18C466.719 140.531 466.441 139.465 466.441 137.98C466.441 136.32 466.748 135.113 467.361 134.359C467.896 133.703 468.617 133.375 469.523 133.375C470.199 133.375 470.752 133.564 471.182 133.943C471.615 134.322 471.875 134.846 471.961 135.514ZM467.654 139.217C467.654 139.58 467.73 139.928 467.883 140.26C468.039 140.592 468.256 140.846 468.533 141.021C468.811 141.193 469.102 141.279 469.406 141.279C469.852 141.279 470.234 141.1 470.555 140.74C470.875 140.381 471.035 139.893 471.035 139.275C471.035 138.682 470.877 138.215 470.561 137.875C470.244 137.531 469.846 137.359 469.365 137.359C468.889 137.359 468.484 137.531 468.152 137.875C467.82 138.215 467.654 138.662 467.654 139.217ZM476.801 144.385V135.777H477.762V136.586C477.988 136.27 478.244 136.033 478.529 135.877C478.814 135.717 479.16 135.637 479.566 135.637C480.098 135.637 480.566 135.773 480.973 136.047C481.379 136.32 481.686 136.707 481.893 137.207C482.1 137.703 482.203 138.248 482.203 138.842C482.203 139.479 482.088 140.053 481.857 140.564C481.631 141.072 481.299 141.463 480.861 141.736C480.428 142.006 479.971 142.141 479.49 142.141C479.139 142.141 478.822 142.066 478.541 141.918C478.264 141.77 478.035 141.582 477.855 141.355V144.385H476.801ZM477.756 138.924C477.756 139.725 477.918 140.316 478.242 140.699C478.566 141.082 478.959 141.273 479.42 141.273C479.889 141.273 480.289 141.076 480.621 140.682C480.957 140.283 481.125 139.668 481.125 138.836C481.125 138.043 480.961 137.449 480.633 137.055C480.309 136.66 479.92 136.463 479.467 136.463C479.018 136.463 478.619 136.674 478.271 137.096C477.928 137.514 477.756 138.123 477.756 138.924ZM482.777 142L485.051 138.766L482.947 135.777H484.266L485.221 137.236C485.4 137.514 485.545 137.746 485.654 137.934C485.826 137.676 485.984 137.447 486.129 137.248L487.178 135.777H488.438L486.287 138.707L488.602 142H487.307L486.029 140.066L485.689 139.545L484.055 142H482.777Z" fill="#512B2B"/>
<path d="M557.281 135.514L556.232 135.596C556.139 135.182 556.006 134.881 555.834 134.693C555.549 134.393 555.197 134.242 554.779 134.242C554.443 134.242 554.148 134.336 553.895 134.523C553.562 134.766 553.301 135.119 553.109 135.584C552.918 136.049 552.818 136.711 552.811 137.57C553.064 137.184 553.375 136.896 553.742 136.709C554.109 136.521 554.494 136.428 554.896 136.428C555.6 136.428 556.197 136.688 556.689 137.207C557.186 137.723 557.434 138.391 557.434 139.211C557.434 139.75 557.316 140.252 557.082 140.717C556.852 141.178 556.533 141.531 556.127 141.777C555.721 142.023 555.26 142.146 554.744 142.146C553.865 142.146 553.148 141.824 552.594 141.18C552.039 140.531 551.762 139.465 551.762 137.98C551.762 136.32 552.068 135.113 552.682 134.359C553.217 133.703 553.938 133.375 554.844 133.375C555.52 133.375 556.072 133.564 556.502 133.943C556.936 134.322 557.195 134.846 557.281 135.514ZM552.975 139.217C552.975 139.58 553.051 139.928 553.203 140.26C553.359 140.592 553.576 140.846 553.854 141.021C554.131 141.193 554.422 141.279 554.727 141.279C555.172 141.279 555.555 141.1 555.875 140.74C556.195 140.381 556.355 139.893 556.355 139.275C556.355 138.682 556.197 138.215 555.881 137.875C555.564 137.531 555.166 137.359 554.686 137.359C554.209 137.359 553.805 137.531 553.473 137.875C553.141 138.215 552.975 138.662 552.975 139.217ZM561.869 142V139.943H558.143V138.977L562.062 133.41H562.924V138.977H564.084V139.943H562.924V142H561.869ZM561.869 138.977V135.104L559.18 138.977H561.869ZM568.801 144.385V135.777H569.762V136.586C569.988 136.27 570.244 136.033 570.529 135.877C570.814 135.717 571.16 135.637 571.566 135.637C572.098 135.637 572.566 135.773 572.973 136.047C573.379 136.32 573.686 136.707 573.893 137.207C574.1 137.703 574.203 138.248 574.203 138.842C574.203 139.479 574.088 140.053 573.857 140.564C573.631 141.072 573.299 141.463 572.861 141.736C572.428 142.006 571.971 142.141 571.49 142.141C571.139 142.141 570.822 142.066 570.541 141.918C570.264 141.77 570.035 141.582 569.855 141.355V144.385H568.801ZM569.756 138.924C569.756 139.725 569.918 140.316 570.242 140.699C570.566 141.082 570.959 141.273 571.42 141.273C571.889 141.273 572.289 141.076 572.621 140.682C572.957 140.283 573.125 139.668 573.125 138.836C573.125 138.043 572.961 137.449 572.633 137.055C572.309 136.66 571.92 136.463 571.467 136.463C571.018 136.463 570.619 136.674 570.271 137.096C569.928 137.514 569.756 138.123 569.756 138.924ZM574.777 142L577.051 138.766L574.947 135.777H576.266L577.221 137.236C577.4 137.514 577.545 137.746 577.654 137.934C577.826 137.676 577.984 137.447 578.129 137.248L579.178 135.777H580.438L578.287 138.707L580.602 142H579.307L578.029 140.066L577.689 139.545L576.055 142H574.777Z" fill="#512B2B"/>
<rect x="231" y="43" width="32" height="80" fill="#E3D1C3"/>
<rect x="295" y="43" width="40" height="80" fill="#E3D1C3"/>
<rect x="367" y="43" width="48" height="80" fill="#E3D1C3"/>
<rect x="447" y="43" width="56" height="80" fill="#E3D1C3"/>
<rect x="535" y="43" width="64" height="80" fill="#E3D1C3"/>
<path d="M231.177 83V83.5H231.677V83H231.177ZM231.176 83V82.5H230.676V83H231.176ZM231.177 81V80.5H230.677V81H231.177ZM232.177 81H232.677V80.5H232.177V81ZM232.177 83H231.677V83.5H232.177V83ZM261.823 83V83.5H262.323V83H261.823ZM261.823 81V80.5H261.323V81H261.823ZM262.823 81H263.323V80.5H262.823V81ZM262.823 86V86.5H263.323V86H262.823ZM261.823 86H261.323V86.5H261.823V86ZM261.823 84H262.323V83.5H261.823V84ZM232.177 84V83.5H231.677V84H232.177ZM232.177 86V86.5H232.677V86H232.177ZM231.177 86H230.677V86.5H231.177V86ZM231.177 84H231.677V83.5H231.177V84ZM231.176 84H230.676V84.5H231.176V84ZM231.177 82.5H231.176V83.5H231.177V82.5ZM230.677 81.5V83H231.677V81.5H230.677ZM230.677 81V81.5H231.677V81H230.677ZM232.177 80.5H231.177V81.5H232.177V80.5ZM232.677 81.5V81H231.677V81.5H232.677ZM232.677 83V81.5H231.677V83H232.677ZM261.823 82.5H232.177V83.5H261.823V82.5ZM262.323 83V81.5H261.323V83H262.323ZM262.323 81.5V81H261.323V81.5H262.323ZM261.823 81.5H262.823V80.5H261.823V81.5ZM262.323 81V81.5H263.323V81H262.323ZM262.323 81.5V85.5H263.323V81.5H262.323ZM262.323 85.5V86H263.323V85.5H262.323ZM262.823 85.5H261.823V86.5H262.823V85.5ZM262.323 86V85.5H261.323V86H262.323ZM262.323 85.5V84H261.323V85.5H262.323ZM232.177 84.5H261.823V83.5H232.177V84.5ZM232.677 85.5V84H231.677V85.5H232.677ZM232.677 86V85.5H231.677V86H232.677ZM231.177 86.5H232.177V85.5H231.177V86.5ZM230.677 85.5V86H231.677V85.5H230.677ZM230.677 84V85.5H231.677V84H230.677ZM231.176 84.5H231.177V83.5H231.176V84.5ZM230.676 83V84H231.676V83H230.676Z" fill="#512B2B"/>
<path d="M295.132 83V83.5H295.632V83H295.132ZM295.132 83V82.5H294.632V83H295.132ZM295.132 81V80.5H294.632V81H295.132ZM296.132 81H296.632V80.5H296.132V81ZM296.132 83H295.632V83.5H296.132V83ZM333.868 83V83.5H334.368V83H333.868ZM333.868 81V80.5H333.368V81H333.868ZM334.868 81H335.368V80.5H334.868V81ZM334.868 86V86.5H335.368V86H334.868ZM333.868 86H333.368V86.5H333.868V86ZM333.868 84H334.368V83.5H333.868V84ZM296.132 84V83.5H295.632V84H296.132ZM296.132 86V86.5H296.632V86H296.132ZM295.132 86H294.632V86.5H295.132V86ZM295.132 84H295.632V83.5H295.132V84ZM295.132 84H294.632V84.5H295.132V84ZM295.132 82.5H295.132V83.5H295.132V82.5ZM294.632 81.5V83H295.632V81.5H294.632ZM294.632 81V81.5H295.632V81H294.632ZM296.132 80.5H295.132V81.5H296.132V80.5ZM296.632 81.5V81H295.632V81.5H296.632ZM296.632 83V81.5H295.632V83H296.632ZM333.743 82.5H296.132V83.5H333.743V82.5ZM333.868 82.5H333.743V83.5H333.868V82.5ZM334.368 83V81.5H333.368V83H334.368ZM334.368 81.5V81H333.368V81.5H334.368ZM333.868 81.5H334.868V80.5H333.868V81.5ZM334.368 81V81.5H335.368V81H334.368ZM334.368 81.5V85.5H335.368V81.5H334.368ZM334.368 85.5V86H335.368V85.5H334.368ZM334.868 85.5H333.868V86.5H334.868V85.5ZM334.368 86V85.5H333.368V86H334.368ZM334.368 85.5V84H333.368V85.5H334.368ZM333.743 84.5H333.868V83.5H333.743V84.5ZM296.132 84.5H333.743V83.5H296.132V84.5ZM296.632 85.5V84H295.632V85.5H296.632ZM296.632 86V85.5H295.632V86H296.632ZM295.132 86.5H296.132V85.5H295.132V86.5ZM294.632 85.5V86H295.632V85.5H294.632ZM294.632 84V85.5H295.632V84H294.632ZM295.132 84.5H295.132V83.5H295.132V84.5ZM294.632 83V84H295.632V83H294.632Z" fill="#512B2B"/>
<path d="M367.105 83V83.5H367.605V83H367.105ZM367.104 83V82.5H366.604V83H367.104ZM367.105 81V80.5H366.605V81H367.105ZM368.105 81H368.605V80.5H368.105V81ZM368.105 83H367.605V83.5H368.105V83ZM413.896 83V83.5H414.396V83H413.896ZM413.896 81V80.5H413.396V81H413.896ZM414.896 81H415.396V80.5H414.896V81ZM414.896 86V86.5H415.396V86H414.896ZM413.896 86H413.396V86.5H413.896V86ZM413.896 84H414.396V83.5H413.896V84ZM368.105 84V83.5H367.605V84H368.105ZM368.105 86V86.5H368.605V86H368.105ZM367.105 86H366.605V86.5H367.105V86ZM367.105 84H367.605V83.5H367.105V84ZM367.104 84H366.604V84.5H367.104V84ZM367.105 82.5H367.104V83.5H367.105V82.5ZM366.605 81.5V83H367.605V81.5H366.605ZM366.605 81V81.5H367.605V81H366.605ZM368.105 80.5H367.105V81.5H368.105V80.5ZM368.605 81.5V81H367.605V81.5H368.605ZM368.605 83V81.5H367.605V83H368.605ZM413.641 82.5H368.105V83.5H413.641V82.5ZM413.896 82.5H413.641V83.5H413.896V82.5ZM414.396 83V81.5H413.396V83H414.396ZM414.396 81.5V81H413.396V81.5H414.396ZM413.896 81.5H414.896V80.5H413.896V81.5ZM414.396 81V81.5H415.396V81H414.396ZM414.396 81.5V85.5H415.396V81.5H414.396ZM414.396 85.5V86H415.396V85.5H414.396ZM414.896 85.5H413.896V86.5H414.896V85.5ZM414.396 86V85.5H413.396V86H414.396ZM414.396 85.5V84H413.396V85.5H414.396ZM413.641 84.5H413.896V83.5H413.641V84.5ZM368.105 84.5H413.641V83.5H368.105V84.5ZM368.605 85.5V84H367.605V85.5H368.605ZM368.605 86V85.5H367.605V86H368.605ZM367.105 86.5H368.105V85.5H367.105V86.5ZM366.605 85.5V86H367.605V85.5H366.605ZM366.605 84V85.5H367.605V84H366.605ZM367.104 84.5H367.105V83.5H367.104V84.5ZM366.604 83V84H367.604V83H366.604Z" fill="#512B2B"/>
<path d="M447.087 83.0003V83.5003H447.587V83.0003H447.087ZM447.086 83.0003V82.5003H446.586V83.0003H447.086ZM447.087 80.6568V80.1568H446.587V80.6568H447.087ZM448.087 80.6568H448.587V80.1568H448.087V80.6568ZM448.087 83.0003H447.587V83.5003H448.087V83.0003ZM501.914 83.0003V83.5003H502.414V83.0003H501.914ZM501.914 80.6568V80.1568H501.414V80.6568H501.914ZM502.914 80.6568H503.414V80.1568H502.914V80.6568ZM502.914 86.3438V86.8438H503.414V86.3438H502.914ZM501.914 86.3438H501.414V86.8438H501.914V86.3438ZM501.914 84.0003H502.414V83.5003H501.914V84.0003ZM448.087 84.0003V83.5003H447.587V84.0003H448.087ZM448.087 86.3438V86.8438H448.587V86.3438H448.087ZM447.087 86.3438H446.587V86.8438H447.087V86.3438ZM447.087 84.0003H447.587V83.5003H447.087V84.0003ZM447.086 84.0003H446.586V84.5003H447.086V84.0003ZM447.087 82.5003H447.086V83.5003H447.087V82.5003ZM446.587 81.1568V83.0003H447.587V81.1568H446.587ZM446.587 80.6568V81.1568H447.587V80.6568H446.587ZM448.087 80.1568H447.087V81.1568H448.087V80.1568ZM448.587 81.1568V80.6568H447.587V81.1568H448.587ZM448.587 83.0003V81.1568H447.587V83.0003H448.587ZM501.529 82.5003H448.087V83.5003H501.529V82.5003ZM501.914 82.5003H501.529V83.5003H501.914V82.5003ZM502.414 83.0003V81.1568H501.414V83.0003H502.414ZM502.414 81.1568V80.6568H501.414V81.1568H502.414ZM501.914 81.1568H502.914V80.1568H501.914V81.1568ZM502.414 80.6568V81.1568H503.414V80.6568H502.414ZM502.414 81.1568V85.8438H503.414V81.1568H502.414ZM502.414 85.8438V86.3438H503.414V85.8438H502.414ZM502.914 85.8438H501.914V86.8438H502.914V85.8438ZM502.414 86.3438V85.8438H501.414V86.3438H502.414ZM502.414 85.8438V84.0003H501.414V85.8438H502.414ZM501.529 84.5003H501.914V83.5003H501.529V84.5003ZM448.087 84.5003H501.529V83.5003H448.087V84.5003ZM448.587 85.8438V84.0003H447.587V85.8438H448.587ZM448.587 86.3438V85.8438H447.587V86.3438H448.587ZM447.087 86.8438H448.087V85.8438H447.087V86.8438ZM446.587 85.8438V86.3438H447.587V85.8438H446.587ZM446.587 84.0003V85.8438H447.587V84.0003H446.587ZM447.086 84.5003H447.087V83.5003H447.086V84.5003ZM446.586 83.0003V84.0003H447.586V83.0003H446.586Z" fill="#512B2B"/>
<path d="M535.095 82.9999V83.4999H535.595V82.9999H535.095ZM535.094 82.9999V82.4999H534.594V82.9999H535.094ZM535.095 80.6238V80.1238H534.595V80.6238H535.095ZM536.095 80.6238H536.595V80.1238H536.095V80.6238ZM536.095 82.9999H535.595V83.4999H536.095V82.9999ZM597.893 82.9999H598.393V82.4999H597.893V82.9999ZM597.893 83.9999V84.4999H598.393V83.9999H597.893ZM536.095 83.9999V83.4999H535.595V83.9999H536.095ZM536.095 86.376V86.876H536.595V86.376H536.095ZM535.095 86.376H534.595V86.876H535.095V86.376ZM535.095 83.9999H535.595V83.4999H535.095V83.9999ZM535.094 83.9999H534.594V84.4999H535.094V83.9999ZM597.906 86.376H597.406V86.876H597.906V86.376ZM598.906 86.376V86.876H599.406V86.376H598.906ZM598.906 80.6238H599.406V80.1238H598.906V80.6238ZM597.906 80.6238V80.1238H597.406V80.6238H597.906ZM535.095 82.4999H535.094V83.4999H535.095V82.4999ZM534.595 81.1238V82.9999H535.595V81.1238H534.595ZM534.595 80.6238V81.1238H535.595V80.6238H534.595ZM536.095 80.1238H535.095V81.1238H536.095V80.1238ZM536.595 81.1238V80.6238H535.595V81.1238H536.595ZM536.595 82.9999V81.1238H535.595V82.9999H536.595ZM597.393 82.4999H536.095V83.4999H597.393V82.4999ZM597.893 82.4999H597.393V83.4999H597.893V82.4999ZM598.393 83.9999V82.9999H597.393V83.9999H598.393ZM597.393 84.4999H597.893V83.4999H597.393V84.4999ZM536.095 84.4999H597.393V83.4999H536.095V84.4999ZM536.595 85.876V83.9999H535.595V85.876H536.595ZM536.595 86.376V85.876H535.595V86.376H536.595ZM535.095 86.876H536.095V85.876H535.095V86.876ZM534.595 85.876V86.376H535.595V85.876H534.595ZM534.595 83.9999V85.876H535.595V83.9999H534.595ZM535.094 84.4999H535.095V83.4999H535.094V84.4999ZM534.594 82.9999V83.9999H535.594V82.9999H534.594ZM598.406 86.376V85.876H597.406V86.376H598.406ZM598.906 85.876H597.906V86.876H598.906V85.876ZM598.406 85.876V86.376H599.406V85.876H598.406ZM598.406 81.1238V85.876H599.406V81.1238H598.406ZM598.406 80.6238V81.1238H599.406V80.6238H598.406ZM597.906 81.1238H598.906V80.1238H597.906V81.1238ZM598.406 81.1238V80.6238H597.406V81.1238H598.406ZM598.406 85.876V81.1238H597.406V85.876H598.406Z" fill="#512B2B"/>
</svg>
