<?xml version="1.0" encoding="utf-8"?>
<!-- Generator: Adobe Illustrator 24.3.0, SVG Export Plug-In . SVG Version: 6.00 Build 0)  -->
<svg version="1.1" id="Layer_1" xmlns="http://www.w3.org/2000/svg" xmlns:xlink="http://www.w3.org/1999/xlink" x="0px" y="0px"
	 viewBox="0 0 56 33" style="enable-background:new 0 0 56 33;" xml:space="preserve">
<style type="text/css">
	.st0{clip-path:url(#SVGID_2_);}
	.st1{fill:#E31C40;}
</style>
<g>
	<defs>
		<rect id="SVGID_1_" x="2" y="11.6" width="52" height="9.2"/>
	</defs>
	<clipPath id="SVGID_2_">
		<use xlink:href="#SVGID_1_"  style="overflow:visible;"/>
	</clipPath>
	<g class="st0">
		<path class="st1" d="M3.3,19.5h4.1v1.1H2v-8.8h1.3V19.5z"/>
		<path class="st1" d="M11.8,11.7h-1.4v8.8h1.4V11.7z"/>
		<path class="st1" d="M15.3,20.6h1.1v-6.2l7.1,6.4v-0.2v-8.8h-1.1l0,6.3l-7.1-6.4V20.6z"/>
		<path class="st1" d="M27,11.7h3.3c3.5,0.1,4.9,2.3,4.9,4.4c0,2.3-1.8,4.4-4.8,4.4H27L27,11.7z M28.4,19.6h1.9
			c3-0.1,3.4-2.3,3.4-3.4c0-2-0.9-3.4-3.4-3.5h-1.9V19.6z"/>
		<path class="st1" d="M50.1,15.8l3.9,4.7l-1.7,0l-3-3.8l-3.1,3.7h-1.5l3.9-4.6l-3.5-4.3h1.7l2.6,3.3l2.7-3.3h1.4L50.1,15.8z"/>
		<path class="st1" d="M42.5,12.9c-0.3-0.2-1.1-0.4-1.4-0.4c-1,0-1.9,0.5-1.9,1.7c0,0.9,0.3,1.7,1.1,1.8c0,0-1.3,0.1-1.1,1.9
			c0.1,1.1,0.8,1.6,1.7,1.7c0.6,0.1,1.4,0,1.9-0.4v1.2c-0.5,0.3-1.2,0.3-1.8,0.3c-2,0-3.1-1.1-3.1-2.7c0-0.8,0.4-1.7,1.3-2
			c-0.7-0.4-1.1-1.1-1.1-2.1c0-1.3,1.2-2.4,3-2.3c0.7,0,1.3,0.1,1.6,0.3V12.9z"/>
	</g>
</g>
</svg>
