<svg width="24" height="16" viewBox="0 0 24 16" fill="none" xmlns="http://www.w3.org/2000/svg">
<path d="M18.0528 0.352951C17.9315 0.149344 17.7123 0.0133544 17.462 0.0133544C17.0804 0.0133544 16.771 0.329534 16.771 0.719727C16.771 0.92531 16.857 1.11039 16.9942 1.23951L22.2035 7.69477L17.0521 14.0274H16.4904H14.8266L19.695 8.23713C19.6981 8.23356 19.701 8.22998 19.704 8.22641C19.8406 8.07443 19.901 7.8964 19.8978 7.72092C19.901 7.54552 19.8406 7.36749 19.705 7.21514L19.704 7.21542C19.701 7.21185 19.6981 7.20828 19.695 7.2048L13.8816 0.364143C13.8803 0.362544 13.879 0.360945 13.8776 0.359346C13.7573 0.152165 13.5361 0.0133544 13.2834 0.0133544H9.20047C8.81883 0.0133544 8.50942 0.329534 8.50942 0.719727C8.50942 0.83813 8.52524 0.961235 8.58854 1.04785L13.9992 7.74715L9.38779 13.4024C9.36037 13.4304 8.963 14.0092 8.26432 14.0092H2.75683C2.00782 14.0092 1.38669 13.4118 1.38669 12.6181V2.81496C1.38669 2.1241 2.00782 1.41453 2.77376 1.41453H6.2001C6.604 1.41453 6.89115 1.13259 6.89115 0.719727C6.89115 0.306869 6.604 0 6.2001 0L2.74017 0.0140127C1.10111 0.0140127 0 1.39582 0 2.80057V12.6181C0 14.1307 1.30453 15.419 2.74017 15.419H8.2461C8.52377 15.419 8.7778 15.3774 9.00652 15.3108C9.03918 15.3013 9.07138 15.2913 9.10294 15.2808C9.86207 15.0294 10.3203 14.5127 10.4089 14.4032L15.5987 8.22067C15.8442 7.936 15.8769 7.52314 15.6028 7.21514L15.6018 7.21542C15.5987 7.21185 15.5959 7.20828 15.5929 7.2048L10.6838 1.41453H12.3882H12.9499L18.0801 7.72101L12.6816 14.3774C12.6798 14.3794 12.6831 14.3851 12.6908 14.3941C12.6403 14.4922 12.6116 14.6037 12.6116 14.7222C12.6116 15.1123 12.921 15.4286 13.3026 15.4286H17.3855C17.6383 15.4286 17.8593 15.2896 17.9798 15.0825C17.9811 15.0809 17.9824 15.0793 17.9837 15.0778L23.7972 8.23713C23.8002 8.23356 23.8031 8.22998 23.8061 8.22641C24.0811 7.91869 24.0485 7.50583 23.8031 7.22116L18.0528 0.352951Z" fill="#141413"/>
</svg>
