<?xml version="1.0" encoding="utf-8"?>
<!-- Generator: Adobe Illustrator 24.3.0, SVG Export Plug-In . SVG Version: 6.00 Build 0)  -->
<svg version="1.1" id="Layer_1" xmlns="http://www.w3.org/2000/svg" xmlns:xlink="http://www.w3.org/1999/xlink" x="0px" y="0px"
	 viewBox="0 0 56 34" style="enable-background:new 0 0 56 34;" xml:space="preserve">
<style type="text/css">
	.st0{clip-path:url(#SVGID_2_);}
	.st1{fill:#FFFFFF;}
	.st2{fill:#E31F28;}
</style>
<g>
	<defs>
		<path id="SVGID_1_" d="M0,2c0-1.1,0.9-2,2-2h52c1.1,0,2,0.9,2,2v29.6c0,1.1-0.9,2-2,2H2c-1.1,0-2-0.9-2-2V2z"/>
	</defs>
	<clipPath id="SVGID_2_">
		<use xlink:href="#SVGID_1_"  style="overflow:visible;"/>
	</clipPath>
	<g class="st0">
		<path class="st1" d="M16.7,0.3C7.7,0.3,0.3,7.7,0.3,16.8c0,9.1,7.4,16.5,16.4,16.5h22.1c9,0,16.4-7.4,16.4-16.5
			c0-9.1-7.4-16.5-16.4-16.5H16.7z"/>
		<path class="st1" d="M38.8,33.6H16.7C7.5,33.6,0,26.1,0,16.8C0,7.5,7.5,0,16.7,0h22.1c9.2,0,16.7,7.5,16.7,16.8
			C55.6,26.1,48.1,33.6,38.8,33.6z M16.7,0.3C7.7,0.3,0.3,7.7,0.3,16.8c0,9.1,7.4,16.5,16.4,16.5h22.1c9,0,16.4-7.4,16.4-16.5
			c0-9.1-7.4-16.5-16.4-16.5H16.7z"/>
		<path class="st2" d="M42.7,15.8l7.3,8.8c1.5-2.2,2.4-4.9,2.4-7.8c0-3-1-5.9-2.7-8.1L42.7,15.8z"/>
		<path class="st2" d="M21.9,7.9c5.5,0,9.6,1.4,10,6l5.8-6h11.5C46.7,5,43,3.1,38.8,3.1H16.7C12.6,3.1,8.9,5,6.4,7.9H21.9z"/>
		<path class="st2" d="M12.8,13.8l-2,5.4h7.9c2.3,0,3-1,3.6-2.8c0.5-1.9-0.8-2.6-2.4-2.6H12.8z"/>
		<path class="st2" d="M37.7,25.3l-6.1-7.7c-1.1,5.3-4.8,7.7-11.8,7.7H6.1c2.5,3.2,6.4,5.2,10.7,5.2h22.1c4.3,0,8.2-2,10.7-5.2H37.7
			z"/>
	</g>
</g>
</svg>
