<svg width="46" height="24" viewBox="0 0 46 24" fill="none" xmlns="http://www.w3.org/2000/svg">
<g clip-path="url(#clip0_205_3)">
<path d="M33.102 0H11.982C5.382 0 -0.0180054 5.4 -0.0180054 12C-0.0180054 18.6 5.382 24 11.982 24H33.102C39.702 24 45.102 18.6 45.102 12C45.102 5.4 39.702 0 33.102 0Z" fill="white"/>
<path d="M33.102 0.972C34.584 0.972 36.024 1.266 37.38 1.842C38.694 2.4 39.87 3.198 40.89 4.212C41.904 5.226 42.702 6.408 43.26 7.722C43.836 9.078 44.13 10.518 44.13 12C44.13 13.482 43.836 14.922 43.26 16.278C42.702 17.592 41.904 18.768 40.89 19.788C39.876 20.802 38.694 21.6 37.38 22.158C36.024 22.734 34.584 23.028 33.102 23.028H11.982C10.5 23.028 9.05999 22.734 7.70399 22.158C6.38999 21.6 5.21399 20.802 4.19399 19.788C3.17999 18.774 2.38199 17.592 1.82399 16.278C1.24799 14.922 0.953994 13.482 0.953994 12C0.953994 10.518 1.24799 9.078 1.82399 7.722C2.38199 6.408 3.17999 5.232 4.19399 4.212C5.20799 3.198 6.38999 2.4 7.70399 1.842C9.05999 1.266 10.5 0.972 11.982 0.972H33.102ZM33.102 0H11.982C5.382 0 -0.0180054 5.4 -0.0180054 12C-0.0180054 18.6 5.382 24 11.982 24H33.102C39.702 24 45.102 18.6 45.102 12C45.102 5.4 39.702 0 33.102 0Z" fill="#3C4043"/>
<path d="M21.498 12.852V16.482H20.346V7.51797H23.4001C24.1741 7.51797 24.8341 7.77598 25.3741 8.29198C25.9261 8.80798 26.2021 9.43798 26.2021 10.182C26.2021 10.944 25.9261 11.574 25.3741 12.084C24.8401 12.594 24.1801 12.846 23.4001 12.846H21.498V12.852ZM21.498 8.62198V11.748H23.4241C23.8801 11.748 24.2641 11.592 24.5641 11.286C24.8701 10.98 25.0261 10.608 25.0261 10.188C25.0261 9.77397 24.8701 9.40798 24.5641 9.10198C24.2641 8.78398 23.8861 8.62797 23.4241 8.62797H21.498V8.62198Z" fill="#3C4043"/>
<path d="M29.2141 10.1459C30.0661 10.1459 30.7381 10.3739 31.2301 10.8299C31.7221 11.2859 31.9681 11.9099 31.9681 12.7019V16.4819H30.8701V15.6299H30.8221C30.3481 16.3319 29.7121 16.6799 28.9201 16.6799C28.2421 16.6799 27.6781 16.4819 27.2221 16.0799C26.7661 15.6779 26.5381 15.1799 26.5381 14.5799C26.5381 13.9439 26.7781 13.4399 27.2581 13.0679C27.7381 12.6899 28.3801 12.5039 29.1781 12.5039C29.8621 12.5039 30.4261 12.6299 30.8641 12.8819V12.6179C30.8641 12.2159 30.7081 11.8799 30.3901 11.5979C30.0721 11.3159 29.7001 11.1779 29.2741 11.1779C28.6321 11.1779 28.1221 11.4479 27.7501 11.9939L26.7361 11.3579C27.2941 10.5479 28.1221 10.1459 29.2141 10.1459ZM27.7261 14.5979C27.7261 14.8979 27.8521 15.1499 28.1101 15.3479C28.3621 15.5459 28.6621 15.6479 29.0041 15.6479C29.4901 15.6479 29.9221 15.4679 30.3001 15.1079C30.6781 14.7479 30.8701 14.3279 30.8701 13.8419C30.5101 13.5599 30.0121 13.4159 29.3701 13.4159C28.9021 13.4159 28.5121 13.5299 28.2001 13.7519C27.8821 13.9859 27.7261 14.2679 27.7261 14.5979Z" fill="#3C4043"/>
<path d="M38.232 10.344L34.392 19.176H33.204L34.632 16.086L32.1 10.344H33.354L35.178 14.748H35.202L36.978 10.344H38.232Z" fill="#3C4043"/>
<path d="M16.9158 12.12C16.9158 11.7444 16.8822 11.385 16.8198 11.0394H11.991V13.0194L14.772 13.02C14.6592 13.6788 14.2962 14.2404 13.74 14.6148V15.8994H15.3954C16.362 15.0048 16.9158 13.6824 16.9158 12.12Z" fill="#4285F4"/>
<path d="M13.7406 14.6148C13.2798 14.9256 12.6864 15.1074 11.9922 15.1074C10.6512 15.1074 9.51362 14.2038 9.10622 12.9858H7.39862V14.3106C8.24462 15.9894 9.98342 17.1414 11.9922 17.1414C13.3806 17.1414 14.547 16.6848 15.396 15.8988L13.7406 14.6148Z" fill="#34A853"/>
<path d="M8.94541 12.003C8.94541 11.661 9.00241 11.3304 9.10621 11.0196V9.69479H7.39862C7.04882 10.389 6.85202 11.1726 6.85202 12.003C6.85202 12.8334 7.04942 13.617 7.39862 14.3112L9.10621 12.9864C9.00241 12.6756 8.94541 12.345 8.94541 12.003Z" fill="#FABB05"/>
<path d="M11.9922 8.89799C12.75 8.89799 13.4286 9.15899 13.9644 9.66899L15.4314 8.20319C14.5404 7.37338 13.3788 6.86398 11.9922 6.86398C9.98402 6.86398 8.24462 8.01598 7.39862 9.69479L9.10622 11.0196C9.51362 9.80159 10.6512 8.89799 11.9922 8.89799Z" fill="#E94235"/>
</g>
<defs>
<clipPath id="clip0_205_3">
<rect width="45.12" height="24" fill="white"/>
</clipPath>
</defs>
</svg>
