<?xml version="1.0" encoding="utf-8"?>
<!-- Generator: Adobe Illustrator 24.3.0, SVG Export Plug-In . SVG Version: 6.00 Build 0)  -->
<svg version="1.1" id="Layer_1" xmlns="http://www.w3.org/2000/svg" xmlns:xlink="http://www.w3.org/1999/xlink" x="0px" y="0px"
	 viewBox="0 0 56 33" style="enable-background:new 0 0 56 33;" xml:space="preserve">
<style type="text/css">
	.st0{clip-path:url(#SVGID_2_);}
	.st1{fill-rule:evenodd;clip-rule:evenodd;fill:#E3000B;}
</style>
<g>
	<defs>
		<rect id="SVGID_1_" x="7" y="6.6" width="42" height="21"/>
	</defs>
	<clipPath id="SVGID_2_">
		<use xlink:href="#SVGID_1_"  style="overflow:visible;"/>
	</clipPath>
	<g class="st0">
		<path class="st1" d="M37.2,6.6L49,27.2h-6L41.8,25h-5.9l2.1-3.6h1.8l-2.4-4.3l-2.6,4.5c-0.4,0.7-0.8,1.3-1.2,1.8
			c-2,2.6-5.1,4.2-8.6,4.2c-5.9,0-10.7-4.7-10.7-10.4S19,6.8,24.9,6.8c2,0,3.8,0.5,5.4,1.4l-2.5,4.4c-0.9-0.5-1.9-0.8-2.9-0.8
			c-3,0-5.5,2.4-5.5,5.3c0,2.9,2.4,5.3,5.5,5.3c1.6,0,3-0.7,4-1.7c0.4-0.4,0.9-1.1,1.1-1.4L37.2,6.6z M7,27.2V7.2h5.2v20.1L7,27.2
			L7,27.2z"/>
	</g>
</g>
</svg>
