<svg width="24" height="24" viewBox="0 0 24 24" fill="none" xmlns="http://www.w3.org/2000/svg">
	<path d="M21.1177 5H2.8823C2.39502 5 2 5.49161 2 6.09804V17.902C2 18.5084 2.39502 19 2.8823 19H21.1177C21.605 19 22 18.5084 22 17.902V6.09804C22 5.49161 21.605 5 21.1177 5Z" fill="#EE7023"/>
	<path d="M4.65923 14.3733H3.78344C3.71737 14.3733 3.66382 14.4268 3.66382 14.4929V15.2106C3.66382 15.2767 3.71737 15.3302 3.78344 15.3302H4.65923C4.72529 15.3302 4.77885 15.2767 4.77885 15.2106V14.4929C4.77885 14.4268 4.72529 14.3733 4.65923 14.3733Z" fill="#FCE4A1"/>
	<path d="M11.7212 14.3733H10.8454C10.7794 14.3733 10.7258 14.4268 10.7258 14.4929V15.2106C10.7258 15.2767 10.7794 15.3302 10.8454 15.3302H11.7212C11.7873 15.3302 11.8409 15.2767 11.8409 15.2106V14.4929C11.8409 14.4268 11.7873 14.3733 11.7212 14.3733Z" fill="#FCE4A1"/>
	<path d="M12.4645 14.3733H12.1462C12.0802 14.3733 12.0266 14.4268 12.0266 14.4929V15.2106C12.0266 15.2767 12.0802 15.3302 12.1462 15.3302H12.4645C12.5306 15.3302 12.5841 15.2767 12.5841 15.2106V14.4929C12.5841 14.4268 12.5306 14.3733 12.4645 14.3733Z" fill="#FCE4A1"/>
	<path d="M6.70361 14.3733H5.08446C5.0184 14.3733 4.96484 14.4268 4.96484 14.4929V15.2106C4.96484 15.2767 5.0184 15.3302 5.08446 15.3302H6.70361C6.76967 15.3302 6.82322 15.2767 6.82322 15.2106V14.4929C6.82322 14.4268 6.76967 14.3733 6.70361 14.3733Z" fill="#FCE4A1"/>
	<path d="M10.4202 14.3733H7.68602C7.61996 14.3733 7.56641 14.4268 7.56641 14.4929V15.2106C7.56641 15.2767 7.61996 15.3302 7.68602 15.3302H10.4202C10.4863 15.3302 10.5398 15.2767 10.5398 15.2106V14.4929C10.5398 14.4268 10.4863 14.3733 10.4202 14.3733Z" fill="#FCE4A1"/>
	<path d="M14.8805 14.3733H12.8896C12.8236 14.3733 12.77 14.4268 12.77 14.4929V15.2106C12.77 15.2767 12.8236 15.3302 12.8896 15.3302H14.8805C14.9465 15.3302 15.0001 15.2767 15.0001 15.2106V14.4929C15.0001 14.4268 14.9465 14.3733 14.8805 14.3733Z" fill="#FCE4A1"/>
	<path d="M3.66382 10.0176C3.66382 9.75326 3.87804 9.53906 4.14229 9.53906H5.38516V10.5415H3.66382V10.0176Z" fill="#fdc92a"/>
	<path d="M7.27856 9.53906H8.52142C8.78567 9.53906 8.99989 9.75326 8.99989 10.0176V10.5415H7.27856V9.53906Z" fill="#fdc92a"/>
	<path d="M3.66382 11.8782H5.38516V12.8806H4.14229C3.87804 12.8806 3.66382 12.6664 3.66382 12.4021V11.8782Z" fill="#fdc92a"/>
	<path d="M7.27856 11.8782H8.99989V12.4021C8.99989 12.6664 8.78567 12.8806 8.52142 12.8806H7.27856V11.8782Z" fill="#fdc92a"/>
	<path d="M5.38515 10.7087H3.66382V11.7111H5.38515V10.7087Z" fill="#fdc92a"/>
	<path d="M7.27872 10.7087H5.38525V11.7111H7.27872V10.7087Z" fill="#fdc92a"/>
	<path d="M7.10657 9.53906H5.55737V10.5414H7.10657V9.53906Z" fill="#fdc92a"/>
	<path d="M7.10657 11.8782H5.55737V12.8805H7.10657V11.8782Z" fill="#fdc92a"/>
	<path d="M8.99989 10.7087H7.27856V11.7111H8.99989V10.7087Z" fill="#fdc92a"/>
</svg>
