<?xml version="1.0" encoding="utf-8"?>
<!-- Generator: Adobe Illustrator 24.3.0, SVG Export Plug-In . SVG Version: 6.00 Build 0)  -->
<svg version="1.1" id="Layer_1" xmlns="http://www.w3.org/2000/svg" xmlns:xlink="http://www.w3.org/1999/xlink" x="0px" y="0px"
	 viewBox="0 0 56 32" style="enable-background:new 0 0 56 32;" xml:space="preserve">
<style type="text/css">
	.st0{fill:#1A1F71;}
</style>
<path class="st0" d="M23.2,10.2L18,22.7h-3.4l-2.6-10c-0.2-0.6-0.3-0.8-0.8-1.1c-0.8-0.4-2.1-0.8-3.2-1.1l0.1-0.4h5.5
	c0.4,0,0.7,0.1,1,0.4c0.3,0.2,0.5,0.6,0.5,0.9l1.4,7.2l3.4-8.5L23.2,10.2z M36.6,18.6c0-3.3-4.6-3.5-4.5-5c0-0.4,0.4-0.9,1.4-1
	c1.1-0.1,2.2,0.1,3.2,0.6l0.6-2.7c-1-0.4-2-0.6-3-0.6c-3.2,0-5.4,1.7-5.5,4.1c0,1.8,1.6,2.8,2.8,3.4c1.3,0.6,1.7,1,1.7,1.6
	c0,0.8-1,1.2-1.9,1.2c-1.6,0-2.6-0.4-3.3-0.8l-0.6,2.7c0.8,0.3,2.1,0.6,3.6,0.7C34.3,22.9,36.6,21.2,36.6,18.6L36.6,18.6z M45,22.7
	h3l-2.6-12.5h-2.8c-0.3,0-0.6,0.1-0.8,0.2c-0.2,0.2-0.4,0.4-0.5,0.7l-4.8,11.6h3.4l0.7-1.9h4.1L45,22.7z M41.4,18.3l1.7-4.7l1,4.7
	L41.4,18.3z M27.8,10.2l-2.7,12.5h-3.2l2.7-12.5H27.8z"/>
</svg>
