<?xml version="1.0" encoding="utf-8"?>
<!-- Generator: Adobe Illustrator 24.3.0, SVG Export Plug-In . SVG Version: 6.00 Build 0)  -->
<svg version="1.1" id="Layer_1" xmlns="http://www.w3.org/2000/svg" xmlns:xlink="http://www.w3.org/1999/xlink" x="0px" y="0px"
	 viewBox="0 0 56 33" style="enable-background:new 0 0 56 33;" xml:space="preserve">
<style type="text/css">
	.st0{clip-path:url(#SVGID_2_);}
	.st1{fill:#551488;}
</style>
<g>
	<defs>
		<path id="SVGID_1_" d="M0,2.6c0-1.1,0.9-2,2-2h52c1.1,0,2,0.9,2,2v28c0,1.1-0.9,2-2,2H2c-1.1,0-2-0.9-2-2V2.6z"/>
	</defs>
	<clipPath id="SVGID_2_">
		<use xlink:href="#SVGID_1_"  style="overflow:visible;"/>
	</clipPath>
	<g class="st0">
		<path class="st1" d="M13.5,8.9c0,3.7-2.2,5.4-4.4,5.4c-1.3,0-2.4-0.6-3.1-1.7v1.5H3.6V0.6H6v5c0.5-0.9,1.6-1.8,3.3-1.8
			C11.2,3.8,13.5,5.4,13.5,8.9z M6,9c0,2.1,1.2,3.1,2.5,3.1c1.2,0,2.5-1,2.5-3.1c0-2.1-1.3-3.1-2.5-3.1C7.2,5.9,6,6.9,6,9z"/>
		<path class="st1" d="M14.8,9c0-3.5,2.2-5.2,4.5-5.2c1.2,0,2.2,0.5,3,1.6V4.1h2.4v10h-2.4v-1.4c-0.7,0.9-1.8,1.7-3.3,1.7
			C17,14.3,14.8,12.6,14.8,9z M17.2,9.1c0,2.1,1.3,3.1,2.5,3.1c1.3,0,2.5-0.9,2.5-3.1c0-2.1-1.2-3.1-2.5-3.1
			C18.5,5.9,17.2,6.9,17.2,9.1z"/>
		<path class="st1" d="M29.5,8.4v5.7h-2.4v-10h2.4v1.5c0.7-1.3,2-1.8,3.1-1.8c1.7,0,3.4,0.9,3.4,3.6v6.7h-2.4V8.3
			c0-1.7-0.8-2.3-1.9-2.3C30.4,6,29.5,6.8,29.5,8.4z"/>
		<path class="st1" d="M38.3,0.6h2.4v8.1l3.5-4.6H47l-3.5,4.2l4,5.9h-2.7L42.1,10l-1.4,1.7v2.5h-2.4V0.6z"/>
		<path class="st1" d="M3,22.3c0-3.5,2.2-5.2,4.5-5.2c1.2,0,2.2,0.5,3,1.6v-1.3h2.4v10h-2.4V26c-0.7,0.9-1.8,1.7-3.3,1.7
			C5.2,27.6,3,25.9,3,22.3z M5.5,22.4c0,2.1,1.3,3.1,2.5,3.1c1.3,0,2.5-0.9,2.5-3.1c0-2.1-1.2-3.1-2.5-3.1
			C6.8,19.2,5.5,20.2,5.5,22.4z"/>
		<path class="st1" d="M20.8,26.7l-1.4-1.4c-0.2-0.2-0.3-0.3-0.5-0.3c-0.2,0-0.3,0.1-0.6,0.3l-3.2,3.4c-0.3,0.3-0.8,0.7-1.3,0.7
			s-0.9-0.4-0.9-0.9c0-0.4,0.3-0.8,0.7-1.2l3.3-3.5c0.9-0.9,1.5-1.1,2-1.1c0.5,0,1.1,0.1,2.1,1.1l1.3,1.4c0.3,0.4,0.7,0.8,0.7,1.3
			c0,0.5-0.3,0.9-0.9,0.9C21.6,27.4,21.2,27.2,20.8,26.7z M16.9,18l1.4,1.4c0.2,0.2,0.3,0.3,0.5,0.3c0.2,0,0.3-0.1,0.6-0.3l3.2-3.4
			c0.3-0.3,0.8-0.7,1.3-0.7c0.5,0,0.9,0.4,0.9,0.9c0,0.4-0.3,0.8-0.7,1.2l-3.3,3.5c-0.9,0.9-1.5,1.1-2,1.1c-0.5,0-1.1-0.1-2.1-1.1
			l-1.3-1.4c-0.3-0.4-0.7-0.8-0.7-1.3s0.3-0.9,0.9-0.9C16.1,17.3,16.4,17.5,16.9,18z"/>
		<path class="st1" d="M26.4,22.9c0.2,1.6,1.1,2.6,2.7,2.6c1.5,0,2.1-0.6,2.3-1.6l2.2,0.3c-0.4,2.3-2.6,3.4-4.4,3.4
			c-3,0-5.2-2-5.2-5.3c0-3.2,2.2-5.3,5-5.3c2.7,0,4.6,2.1,4.6,5v0.8H26.4z M26.5,21.1h4.7c-0.2-1.4-1.2-2-2.3-2
			C27.6,19.1,26.8,19.8,26.5,21.1z"/>
		<path class="st1" d="M37.8,17.4v1.4c0.7-0.9,1.7-1.7,3.3-1.7c1.9,0,4.2,1.6,4.2,5.1c0,3.7-2.2,5.4-4.4,5.4c-1.2,0-2.3-0.5-3.1-1.6
			v4.8h-2.4V17.4H37.8z M37.8,22.3c0,2.1,1.2,3.1,2.5,3.1c1.2,0,2.5-1,2.5-3.1c0-2.1-1.3-3.1-2.5-3.1C39,19.2,37.8,20.2,37.8,22.3z"
			/>
		<path class="st1" d="M47.9,17.4V15l2.4-0.3v2.8h2.5v2h-2.5v4.9c0,0.7,0.2,1.1,1,1.1c0.5,0,0.9-0.1,1.3-0.2l0.3,1.9
			c-0.6,0.3-1.5,0.5-2.4,0.5c-2.1,0-2.7-1.2-2.7-2.7v-5.5h-1.7v-2H47.9z"/>
	</g>
</g>
</svg>
