<svg width="24" height="24" viewBox="0 0 24 24" fill="none" xmlns="http://www.w3.org/2000/svg">
<path d="M15.6934 5.66455C20.8321 5.66455 23 8.5443 23 12.0823C23 15.6202 20.8321 18.5 15.6934 18.5H13.6058V5.66455H15.6934Z" fill="#2F2424"/>
<path d="M6.45989 5.5C4.77376 5.5 3.40877 6.89876 3.40877 8.6266C3.40877 10.3545 4.77376 11.7531 6.45989 11.7531C8.14602 11.7531 9.51093 10.3545 9.51093 8.6266C9.51093 6.89876 8.14602 5.5 6.45989 5.5ZM6.45989 12.905C3.64967 12.905 1.32117 14.5506 1 18.5H12C11.6789 14.5506 9.3504 12.905 6.45989 12.905Z" fill="#2F2424"/>
</svg>
