<svg width="24" height="24" viewBox="0 0 24 24" fill="none" xmlns="http://www.w3.org/2000/svg">
<path d="M3.30975 22H20.6903C22.4675 22 23.5755 20.0362 22.6868 18.4721L13.9966 3.17301C13.1079 1.609 10.8921 1.609 10.0034 3.17301L1.31319 18.4721C0.424541 20.0362 1.53246 22 3.30975 22Z" fill="#EE7023"/>
<path fill-rule="evenodd" clip-rule="evenodd" d="M12.0056 18.0858C11.6472 18.0858 11.34 17.9613 11.084 17.7125C10.828 17.4636 10.7 17.1649 10.7 16.8165C10.7 16.468 10.828 16.1693 11.084 15.9205C11.34 15.6716 11.6472 15.5471 12.0056 15.5471C12.364 15.5471 12.6712 15.6716 12.9272 15.9205C13.1832 16.1693 13.3112 16.468 13.3112 16.8165C13.3112 17.1649 13.1832 17.4636 12.9272 17.7125C12.6712 17.9613 12.364 18.0858 12.0056 18.0858Z" fill="white"/>
<path fill-rule="evenodd" clip-rule="evenodd" d="M11.5158 14.2333L10.8438 9.94121V7.69995H13.1478V9.94121L12.4758 14.2333H11.5158Z" fill="white"/>
</svg>
