<?xml version="1.0" encoding="utf-8"?>
<!-- Generator: Adobe Illustrator 24.2.3, SVG Export Plug-In . SVG Version: 6.00 Build 0)  -->
<svg version="1.1" id="Lager_1" xmlns="http://www.w3.org/2000/svg" xmlns:xlink="http://www.w3.org/1999/xlink" x="0px" y="0px"
	 viewBox="0 0 24 24" style="enable-background:new 0 0 24 24;" xml:space="preserve">
<style type="text/css">
	.st0{fill:#512B2B;}
	.st1{fill:#00A5C3;}
</style>
<g>
	<path class="st0" d="M7.6,12.5l1-6.3c-0.4,0-1.1,0-1.1,0C7,6.2,6.4,5.9,6.2,5.4C6.1,5.2,6,4.6,6.8,4c0.3-0.2,0.5-0.4,0.5-0.6
		c0-0.2,0-0.3-0.1-0.5C7,2.8,6.7,2.7,6.2,2.7c-0.8,0-1.3,0.4-1.4,0.8C4.8,3.7,5,3.9,5.2,4c0.5,0.4,0.6,0.9,0.3,1.4
		c-0.3,0.5-1,0.8-1.7,0.8c0,0-0.7,0-1.1,0C2.6,6.8,1.1,16.2,1,17h5.9C7,16.6,7.3,14.9,7.6,12.5L7.6,12.5L7.6,12.5z"/>
	<path class="st1" d="M15.5,0.6h-6L8.7,5.8h1c0.6,0,1.1-0.3,1.3-0.6c0.1-0.1,0.1-0.2,0.1-0.3c0-0.2-0.1-0.4-0.3-0.5
		c-0.4-0.3-0.5-0.6-0.5-0.8c0,0,0-0.1,0-0.1c0.1-0.5,0.8-1.1,1.8-1.1c0.6,0,1,0.1,1.3,0.4c0.2,0.2,0.3,0.5,0.3,0.9
		c-0.1,0.4-0.5,0.7-0.7,0.9c-0.6,0.4-0.5,0.8-0.5,0.9c0.1,0.3,0.6,0.5,0.9,0.5h1.6c0,0,0,0,0,0c2.1,0,3.3,1,2.9,3.3
		c-0.3,2.1-2,3-3.9,3L13.3,17h1.1c4.8,0,8.7-3.1,9.5-7.9C24.8,3.1,21,0.6,15.5,0.6z"/>
	<path class="st0" d="M15.5,0.6h-6L8.7,5.8h1c0.6,0,1.1-0.3,1.3-0.6c0.1-0.1,0.1-0.2,0.1-0.3c0-0.2-0.1-0.4-0.3-0.5
		c-0.4-0.3-0.5-0.6-0.5-0.8c0,0,0-0.1,0-0.1c0.1-0.5,0.8-1.1,1.8-1.1c0.6,0,1,0.1,1.3,0.4c0.2,0.2,0.3,0.5,0.3,0.9
		c-0.1,0.4-0.5,0.7-0.7,0.9c-0.6,0.4-0.5,0.8-0.5,0.9c0.1,0.3,0.6,0.5,0.9,0.5h1.6c0,0,0,0,0,0c2.1,0,3.3,1,2.9,3.3
		c-0.3,2.1-2,3-3.9,3L13.3,17h1.1c4.8,0,8.7-3.1,9.5-7.9C24.8,3.1,21,0.6,15.5,0.6z"/>
	<g>
		<path class="st0" d="M0.7,19.2h2.4c1,0,1.3,0.5,1.2,1C4.2,20.5,4,20.8,3.5,21c0.6,0.2,0.8,0.6,0.7,1.1c-0.1,0.7-0.7,1.2-1.5,1.2H0
			L0.7,19.2z M2.3,20.9c0.5,0,0.7-0.3,0.7-0.5c0-0.3-0.1-0.5-0.6-0.5H2l-0.2,1.1H2.3z M2,22.7c0.5,0,0.8-0.2,0.8-0.6
			c0.1-0.3-0.1-0.6-0.6-0.6H1.8l-0.2,1.2L2,22.7L2,22.7z"/>
		<path class="st0" d="M7.6,23.3c-0.6,0-0.9,0-1.1-0.3c-0.3,0.2-0.7,0.3-1.1,0.3c-0.7,0-1-0.4-0.9-0.8c0-0.2,0.1-0.4,0.3-0.5
			c0.4-0.3,1.4-0.4,1.7-0.6c0-0.3-0.1-0.4-0.4-0.4c-0.4,0-0.8,0.1-1.4,0.5L5,20.6C5.5,20.2,6,20,6.6,20c0.7,0,1.4,0.3,1.3,1.1
			l-0.1,0.9c-0.1,0.3,0,0.4,0.3,0.4L7.6,23.3z M6.5,21.9c-0.3,0.2-1,0.2-1,0.6c0,0.2,0.1,0.4,0.3,0.4c0.2,0,0.4-0.1,0.6-0.2
			c0-0.1,0-0.2,0-0.3L6.5,21.9z"/>
		<path class="st0" d="M8.8,20.1h1.3L10,20.5c0.4-0.3,0.7-0.5,1.1-0.5c0.7,0,1,0.4,0.9,1.1l-0.3,2.1h-1.3l0.3-1.8
			c0.1-0.3,0-0.5-0.3-0.5c-0.2,0-0.4,0.1-0.6,0.3l-0.3,1.9H8.3L8.8,20.1z"/>
		<path class="st0" d="M13,19.2h1.3l-0.3,2l1.2-1.1h1.6l-1.5,1.4l1.2,1.8h-1.6l-1-1.5h0l-0.2,1.5h-1.3L13,19.2z"/>
	</g>
	<g>
		<path class="st0" d="M17.5,19.2h1.5l-0.6,4.1h-1.5L17.5,19.2z"/>
		<path class="st0" d="M19.6,19.2h2.1c1.6,0,2.1,1.2,1.9,2.1c-0.1,0.9-0.9,2-2.3,2H19L19.6,19.2z M21,22.3c0.7,0,1.1-0.3,1.2-1.1
			c0.1-0.5-0.1-1.1-0.9-1.1h-0.4l-0.3,2.2H21z"/>
	</g>
</g>
</svg>
