<?xml version="1.0" encoding="UTF-8"?>
<svg
    xmlns="http://www.w3.org/2000/svg" viewBox="0 0 290 75" width="290" height="75" preserveAspectRatio="xMidYMid meet">
    <defs>
        <clipPath id="animationMask_XsaCf6WLnR">
            <rect width="290" height="75" x="0" y="0" />
        </clipPath>
    </defs>
    <g clip-path="url(#animationMask_XsaCf6WLnR)">
        <g transform="matrix(1,0,0,1,0,0)" opacity="1" style="display: block;">
            <g opacity="1" transform="matrix(1,0,0,1,27,28.959999084472656)">
                <path fill="rgb(253,91,36)" fill-opacity="1" d=" M12.329999923706055,-26.632999420166016 C12.329999923706055,-26.632999420166016 0.04899999871850014,9.277999877929688 0.04899999871850014,9.277999877929688 C0.04899999871850014,9.277999877929688 -12.331000328063965,-26.631999969482422 -12.331000328063965,-26.631999969482422 C-12.331000328063965,-26.631999969482422 -26.753000259399414,-26.631999969482422 -26.753000259399414,-26.631999969482422 C-26.753000259399414,-26.631999969482422 -5.349999904632568,26.632999420166016 -5.349999904632568,26.632999420166016 C-5.349999904632568,26.632999420166016 5.349999904632568,26.632999420166016 5.349999904632568,26.632999420166016 C5.349999904632568,26.632999420166016 26.753000259399414,-26.632999420166016 26.753000259399414,-26.632999420166016 C26.753000259399414,-26.632999420166016 12.329999923706055,-26.632999420166016 12.329999923706055,-26.632999420166016z" />
            </g>
            <g opacity="1" transform="matrix(1,0,0,1,150.3979949951172,37.5)">
                <path fill="rgb(253,91,36)" fill-opacity="1" d=" M-150.3979949951172,-37.5 C-150.3979949951172,-37.5 139.6020050048828,-37.5 139.6020050048828,-37.5 C139.6020050048828,-37.5 139.6020050048828,37.5 139.6020050048828,37.5 C139.6020050048828,37.5 -150.3979949951172,37.5 -150.3979949951172,37.5 C-150.3979949951172,37.5 -150.3979949951172,-37.5 -150.3979949951172,-37.5z M-150.3979949951172,37.5 C-150.3979949951172,37.5 139.6020050048828,37.5 139.6020050048828,37.5 C139.6020050048828,37.5 139.6020050048828,-37.5 139.6020050048828,-37.5 C139.6020050048828,-37.5 -150.3979949951172,-37.5 -150.3979949951172,-37.5 C-150.3979949951172,-37.5 -150.3979949951172,37.5 -150.3979949951172,37.5z M4.046999931335449,-36.55699920654297 C-4.236000061035156,-36.55699920654297 -9.90999984741211,-32.770999908447266 -13.539999961853027,-27.785999298095703 C-13.539999961853027,-27.785999298095703 -13.539999961853027,-35.08000183105469 -13.539999961853027,-35.08000183105469 C-13.539999961853027,-35.08000183105469 -26.65999984741211,-35.08000183105469 -26.65999984741211,-35.08000183105469 C-26.65999984741211,-35.08000183105469 -26.65999984741211,36.55699920654297 -26.65999984741211,36.55699920654297 C-26.65999984741211,36.55699920654297 -13.539999961853027,36.55699920654297 -13.539999961853027,36.55699920654297 C-13.539999961853027,36.55699920654297 -13.539999961853027,11.07699966430664 -13.539999961853027,11.07699966430664 C-9.166000366210938,16.986000061035156 -3.490999937057495,19.479999542236328 2.928999900817871,19.479999542236328 C14.935999870300293,19.479999542236328 26.65999984741211,10.062000274658203 26.65999984741211,-9.324000358581543 C26.65999984741211,-27.8799991607666 14.468999862670898,-36.55699920654297 4.046999931335449,-36.55699920654297z M-0.13899999856948853,7.940999984741211 C-7.211999893188477,7.940999984741211 -13.539999961853027,2.2160000801086426 -13.539999961853027,-8.678000450134277 C-13.539999961853027,-20.033000946044922 -7.211999893188477,-25.108999252319336 -0.04699999839067459,-25.108999252319336 C6.559000015258789,-25.108999252319336 13.446999549865723,-19.756000518798828 13.446999549865723,-8.678000450134277 C13.446999549865723,2.5859999656677246 6.559000015258789,7.940999984741211 -0.13899999856948853,7.940999984741211z" />
                <g opacity="1" transform="matrix(1,0,0,1,0,0)" /></g>
            <g opacity="1" transform="matrix(1,0,0,1,213.3990020751953,37.5)">
                <path fill="rgb(253,91,36)" fill-opacity="1" d=" M-213.3990020751953,-37.5 C-213.3990020751953,-37.5 76.60099792480469,-37.5 76.60099792480469,-37.5 C76.60099792480469,-37.5 76.60099792480469,37.5 76.60099792480469,37.5 C76.60099792480469,37.5 -213.3990020751953,37.5 -213.3990020751953,37.5 C-213.3990020751953,37.5 -213.3990020751953,-37.5 -213.3990020751953,-37.5z M-213.3990020751953,37.5 C-213.3990020751953,37.5 76.60099792480469,37.5 76.60099792480469,37.5 C76.60099792480469,37.5 76.60099792480469,-37.5 76.60099792480469,-37.5 C76.60099792480469,-37.5 -213.3990020751953,-37.5 -213.3990020751953,-37.5 C-213.3990020751953,-37.5 -213.3990020751953,37.5 -213.3990020751953,37.5z M4.046999931335449,-36.55699920654297 C-4.236000061035156,-36.55699920654297 -9.90999984741211,-32.770999908447266 -13.538999557495117,-27.785999298095703 C-13.538999557495117,-27.785999298095703 -13.538999557495117,-35.08000183105469 -13.538999557495117,-35.08000183105469 C-13.538999557495117,-35.08000183105469 -13.539999961853027,-35.08000183105469 -13.539999961853027,-35.08000183105469 C-13.539999961853027,-35.08000183105469 -26.65999984741211,-35.08000183105469 -26.65999984741211,-35.08000183105469 C-26.65999984741211,-35.08000183105469 -26.65999984741211,36.55699920654297 -26.65999984741211,36.55699920654297 C-26.65999984741211,36.55699920654297 -13.539999961853027,36.55699920654297 -13.539999961853027,36.55699920654297 C-13.539999961853027,36.55699920654297 -13.539999961853027,11.07699966430664 -13.539999961853027,11.07699966430664 C-9.166000366210938,16.986000061035156 -3.490999937057495,19.479999542236328 2.928999900817871,19.479999542236328 C14.9350004196167,19.479999542236328 26.65999984741211,10.062000274658203 26.65999984741211,-9.324000358581543 C26.65999984741211,-27.8799991607666 14.468999862670898,-36.55699920654297 4.046999931335449,-36.55699920654297z M-0.13899999856948853,7.940999984741211 C-7.211999893188477,7.940999984741211 -13.538999557495117,2.2160000801086426 -13.538999557495117,-8.678000450134277 C-13.538999557495117,-8.678000450134277 -13.539999961853027,-8.678000450134277 -13.539999961853027,-8.678000450134277 C-13.539999961853027,-20.033000946044922 -7.211999893188477,-25.108999252319336 -0.04699999839067459,-25.108999252319336 C6.559999942779541,-25.108999252319336 13.446000099182129,-19.756000518798828 13.446000099182129,-8.678000450134277 C13.446000099182129,2.5859999656677246 6.559999942779541,7.940999984741211 -0.13899999856948853,7.940999984741211z" />
                <g opacity="1" transform="matrix(1,0,0,1,0,0)" /></g>
            <g opacity="1" transform="matrix(1,0,0,1,267.60699462890625,28.961999893188477)">
                <path fill="rgb(253,91,36)" fill-opacity="1" d=" M-267.60699462890625,-28.961999893188477 C-267.60699462890625,-28.961999893188477 22.39299964904785,-28.961999893188477 22.39299964904785,-28.961999893188477 C22.39299964904785,-28.961999893188477 22.39299964904785,46.03799819946289 22.39299964904785,46.03799819946289 C22.39299964904785,46.03799819946289 -267.60699462890625,46.03799819946289 -267.60699462890625,46.03799819946289 C-267.60699462890625,46.03799819946289 -267.60699462890625,-28.961999893188477 -267.60699462890625,-28.961999893188477z M-267.60699462890625,46.03799819946289 C-267.60699462890625,46.03799819946289 22.39299964904785,46.03799819946289 22.39299964904785,46.03799819946289 C22.39299964904785,46.03799819946289 22.39299964904785,-28.961999893188477 22.39299964904785,-28.961999893188477 C22.39299964904785,-28.961999893188477 -267.60699462890625,-28.961999893188477 -267.60699462890625,-28.961999893188477 C-267.60699462890625,-28.961999893188477 -267.60699462890625,46.03799819946289 -267.60699462890625,46.03799819946289z M8.465999603271484,-4.480000019073486 C8.465999603271484,-4.480000019073486 -0.5590000152587891,-6.139999866485596 -0.5590000152587891,-6.139999866485596 C-5.585999965667725,-7.063000202178955 -7.258999824523926,-9.555999755859375 -7.258999824523926,-11.956000328063965 C-7.258999824523926,-15.003000259399414 -4.002999782562256,-16.940000534057617 0.46399998664855957,-16.940000534057617 C6.140999794006348,-16.940000534057617 10.142000198364258,-15.003000259399414 10.32800006866455,-8.633000373840332 C10.32800006866455,-8.633000373840332 22.14699935913086,-10.479000091552734 22.14699935913086,-10.479000091552734 C18.88800048828125,-23.03499984741211 10.980999946594238,-28.018999099731445 0.1850000023841858,-28.018999099731445 C-8.562000274658203,-28.018999099731445 -19.541000366210938,-23.03499984741211 -19.541000366210938,-11.032999992370605 C-19.541000366210938,-3.2790000438690186 -14.23900032043457,2.815000057220459 -5.585999965667725,4.385000228881836 C-5.585999965667725,4.385000228881836 2.6040000915527344,5.861000061035156 2.6040000915527344,5.861000061035156 C8.187999725341797,6.875999927520752 9.770999908447266,9 9.770999908447266,11.862000465393066 C9.770999908447266,15.093000411987305 6.326000213623047,16.93899917602539 1.2079999446868896,16.93899917602539 C-5.491000175476074,16.93899917602539 -9.678999900817871,14.538999557495117 -10.331000328063965,7.798999786376953 C-10.331000328063965,7.798999786376953 -22.14699935913086,9.645999908447266 -22.14699935913086,9.645999908447266 C-20.28700065612793,22.66200065612793 -8.75,28.018999099731445 1.6720000505447388,28.018999099731445 C11.536999702453613,28.018999099731445 22.052000045776367,22.292999267578125 22.052000045776367,10.753999710083008 C22.052000045776367,2.9059998989105225 17.305999755859375,-2.815999984741211 8.465999603271484,-4.480000019073486z" />
                <g opacity="1" transform="matrix(1,0,0,1,0,0)" /></g>
        </g>
        <g transform="matrix(1,0,0,1,0,0)" opacity="1" style="display: block;">
            <g opacity="1" transform="matrix(1,0,0,1,84.35099792480469,50.02899932861328)">
                <path stroke-linecap="round" stroke-linejoin="miter" fill-opacity="0" stroke-miterlimit="10" stroke="rgb(253,91,36)" stroke-opacity="1" stroke-width="11" d=" M-25.767000198364258,-15.041999816894531 C-18.350000381469727,-2.2709999084472656 5.150000095367432,15.041000366210938 25.767000198364258,-12.020999908447266" />
            </g>
        </g>
        <g transform="matrix(1,0,0,1,0,0)" opacity="1" style="display: block;">
            <g opacity="1" transform="matrix(1,0,0,1,95.25900268554688,17.559999465942383)">
                <path fill="rgb(253,91,36)" fill-opacity="1" d=" M-95.25900268554688,-17.559999465942383 C-95.25900268554688,-17.559999465942383 194.74099731445312,-17.559999465942383 194.74099731445312,-17.559999465942383 C194.74099731445312,-17.559999465942383 194.74099731445312,57.439998626708984 194.74099731445312,57.439998626708984 C194.74099731445312,57.439998626708984 -95.25900268554688,57.439998626708984 -95.25900268554688,57.439998626708984 C-95.25900268554688,57.439998626708984 -95.25900268554688,-17.559999465942383 -95.25900268554688,-17.559999465942383z M-95.25900268554688,57.439998626708984 C-95.25900268554688,57.439998626708984 194.74099731445312,57.439998626708984 194.74099731445312,57.439998626708984 C194.74099731445312,57.439998626708984 194.74099731445312,-17.559999465942383 194.74099731445312,-17.559999465942383 C194.74099731445312,-17.559999465942383 -95.25900268554688,-17.559999465942383 -95.25900268554688,-17.559999465942383 C-95.25900268554688,-17.559999465942383 -95.25900268554688,57.439998626708984 -95.25900268554688,57.439998626708984z M7.257999897003174,0 C7.257999897003174,4.245999813079834 3.9079999923706055,7.199999809265137 -0.0010000000474974513,7.199999809265137 C-3.9089999198913574,7.199999809265137 -7.257999897003174,4.245999813079834 -7.257999897003174,0 C-7.257999897003174,-4.247000217437744 -3.9089999198913574,-7.199999809265137 -0.0010000000474974513,-7.199999809265137 C3.9079999923706055,-7.199999809265137 7.258999824523926,-4.247000217437744 7.258999824523926,0" />
                <g opacity="1" transform="matrix(1,0,0,1,0,0)" /></g>
        </g>
    </g>
</svg>
