<?xml version="1.0" encoding="utf-8"?>
<!-- Generator: Adobe Illustrator 24.3.0, SVG Export Plug-In . SVG Version: 6.00 Build 0)  -->
<svg version="1.1" id="Layer_1" xmlns="http://www.w3.org/2000/svg" xmlns:xlink="http://www.w3.org/1999/xlink" x="0px" y="0px"
	 viewBox="0 0 56 33" style="enable-background:new 0 0 56 33;" xml:space="preserve">
<style type="text/css">
	.st0{clip-path:url(#SVGID_2_);}
	.st1{fill:#E41617;}
</style>
<g>
	<defs>
		<path id="SVGID_1_" d="M0,2.6c0-1.1,0.9-2,2-2h52c1.1,0,2,0.9,2,2v28c0,1.1-0.9,2-2,2H2c-1.1,0-2-0.9-2-2V2.6z"/>
	</defs>
	<clipPath id="SVGID_2_">
		<use xlink:href="#SVGID_1_"  style="overflow:visible;"/>
	</clipPath>
	<g class="st0">
		<path class="st1" d="M34.9,32.2l-3.3-3.7l-1,1v2.7h-1.3V20.4h1.3v7.3l4.2-3.9h1.7l-3.9,3.7l4,4.6H34.9z"/>
		<path class="st1" d="M26.7,32.2v-4.8c0-1.3-0.3-2.7-2.1-2.7c-2.2,0-2.6,1.6-2.6,3.3v4.2h-1.3v-8.1h0.8l0.3,0.6
			c0.2-0.2,0.5-0.4,0.8-0.5c0.8-0.4,1.4-0.6,2.3-0.6c2.2,0,3.1,1.2,3.1,3.2v5.5L26.7,32.2L26.7,32.2z"/>
		<path class="st1" d="M50.3,32.2v-4.8c0-1.3-0.3-2.7-2.1-2.7c-2.2,0-2.6,1.6-2.6,3.3v4.2h-1.3v-8.1h0.8l0.3,0.6
			c0.2-0.2,0.5-0.4,0.8-0.5c0.8-0.4,1.4-0.6,2.3-0.6c2.2,0,3.1,1.2,3.1,3.2v5.5L50.3,32.2L50.3,32.2z"/>
		<path class="st1" d="M40.6,31.4c-2,0-3.1-1.2-3.1-3.3h5.8c0-0.3,0-0.5,0-0.8c0-2.2-1.2-3.6-3.1-3.6c-2.6,0-4.2,1.7-4.2,4.3
			c0,2.6,1.4,4.6,4.1,4.6c1,0,2-0.2,2.9-0.7l0.1-1.2C42.3,31.2,41.5,31.4,40.6,31.4z M39.9,24.7c1.5,0,2,1,2,2.4l-4.4,0.1
			C37.6,25.7,38.4,24.7,39.9,24.7z"/>
		<path class="st1" d="M19.4,30.2v-3.8c0-2.1-1.3-2.7-3.2-2.7c-0.9,0-1.8,0.1-2.6,0.5l-0.1,1.2c0.8-0.4,1.6-0.6,2.4-0.6
			c1.4,0,2.1,0.3,2.1,1.9v0.5l-2.6,0.3c-1.5,0.2-2.8,0.7-2.8,2.5c0,1.7,1.1,2.4,2.7,2.4c1,0,2.1-0.2,2.7-1.2l0.4,1h1
			C19.5,31.6,19.4,30.9,19.4,30.2z M18.2,29.2c0,1.4-1,2.2-2.3,2.2c-0.9,0-1.7-0.3-1.7-1.3c0-1.2,1-1.5,2.1-1.7
			c0.6-0.1,1.2-0.2,1.9-0.3L18.2,29.2L18.2,29.2z"/>
		<path class="st1" d="M6.4,31.5c0.6,1,1.8,1.1,2.2,1.1c2.7,0,4.1-2.1,4.1-4.7c0-2.2-1.2-3.9-3.7-3.9c-0.4,0-0.8,0-1.2,0.2
			c-0.3,0.1-0.9,0.3-1.3,0.7v-4.3H5.1v9.9c0,0.7,0,1.4-0.1,2.1h1L6.4,31.5z M6.4,28.2c0-1.5,0.5-3.1,2.3-3.1c1.9,0,2.6,1.5,2.6,3.1
			c0,1.7-0.5,3.3-2.7,3.3C8.5,31.5,6.4,31.5,6.4,28.2z"/>
		<path class="st1" d="M16.4,1.2h-4.1v16.3h4.1V1.2z"/>
		<path class="st1" d="M18.4,6.7C19,5,20.3,3.2,22,2.2c1.8-1.1,4.1-1.6,6.3-1c0.8,0.2,1.5,0.4,2.3,0.9c0,0,0,0,0.1,0.1l-2,3.6
			c-0.9-0.5-2-0.8-3-0.5c-0.7,0.1-1.3,0.4-1.9,0.8c-1,0.9-1.5,2-1.6,3.2c0,0.9,0.2,1.7,0.6,2.4c0.9,1.5,2.6,2.3,4.4,2.1
			c1.2-0.2,2.4-1,3-2.1l0.5-0.8L36,0.6l9.3,16.9h-4.7c-0.3-0.6-1-1.8-1-1.8H35l1.6-3l1.4,0l-1.9-3.5L35.6,10L34,12.9
			c-0.8,1.6-2.4,3.3-4.1,4.1c-1.8,0.9-4.4,1.1-6.3,0.3c-1.4-0.5-2.8-1.4-3.7-2.6c-1.5-1.9-2.1-3.9-1.8-6.5
			C18.2,7.8,18.3,7.1,18.4,6.7z"/>
	</g>
</g>
</svg>
