<?xml version="1.0" encoding="utf-8"?>
<!-- Generator: Adobe Illustrator 24.3.0, SVG Export Plug-In . SVG Version: 6.00 Build 0)  -->
<svg version="1.1" id="Layer_1" xmlns="http://www.w3.org/2000/svg" xmlns:xlink="http://www.w3.org/1999/xlink" x="0px" y="0px"
	 viewBox="0 0 56 33" style="enable-background:new 0 0 56 33;" xml:space="preserve">
<style type="text/css">
	.st0{clip-path:url(#SVGID_2_);}
	.st1{fill:#006FCF;}
</style>
<g>
	<defs>
		<path id="SVGID_1_" d="M0,2.6c0-1.1,0.9-2,2-2h52c1.1,0,2,0.9,2,2v28c0,1.1-0.9,2-2,2H2c-1.1,0-2-0.9-2-2V2.6z"/>
	</defs>
	<clipPath id="SVGID_2_">
		<use xlink:href="#SVGID_1_"  style="overflow:visible;"/>
	</clipPath>
	<g class="st0">
		<path class="st1" d="M44,33v-5.1h-3.9l-2-2.2l-2,2.2H23.4V17.7h-4.1l5.1-11.5h4.9l1.8,4v-4h6.1l1.1,3l1.1-3H44V1H12v32H44z
			 M40.8,26.6H44l-4.2-4.5l4.2-4.5h-3.2l-2.6,2.9l-2.6-2.9h-3.2l4.2,4.5l-4.2,4.5h3.1l2.6-2.9L40.8,26.6L40.8,26.6z M41.5,22.1
			l2.5,2.6v-5.2L41.5,22.1z M27.2,24.6v-1.4h5.1v-2h-5.1v-1.4h5.2v-2.1h-7.6v9h7.6v-2.1H27.2z M41.6,16.4H44v-9h-3.8l-2,5.6l-2-5.6
			h-3.8v9h2.4v-6.3l2.3,6.3h2.1l2.3-6.3L41.6,16.4L41.6,16.4z M29.7,16.4h2.8l-4-9h-3.1l-4,9H24l0.7-1.8h4.1L29.7,16.4L29.7,16.4z
			 M28.1,12.6h-2.4l1.2-2.9L28.1,12.6L28.1,12.6z"/>
	</g>
</g>
</svg>
