<?xml version="1.0" encoding="utf-8"?>
<!-- Generator: Adobe Illustrator 24.2.3, SVG Export Plug-In . SVG Version: 6.00 Build 0)  -->
<svg version="1.1" id="Lager_1" xmlns="http://www.w3.org/2000/svg" xmlns:xlink="http://www.w3.org/1999/xlink" x="0px" y="0px"
	 viewBox="0 0 24 24" style="enable-background:new 0 0 24 24;" xml:space="preserve">
<style type="text/css">
	.st0{fill:#512B2B;}
	.st1{fill:#00A5C3;}
</style>
<g>
	<g>
		<path class="st0" d="M5.5,6.5H1.1C0.5,6.5,0,6,0,5.5l0,0c0-0.6,0.5-1.1,1.1-1.1h4.4c0.6,0,1.1,0.5,1.1,1.1l0,0
			C6.5,6,6,6.5,5.5,6.5z"/>
		<path class="st0" d="M5.5,15.3H1.1c-0.6,0-1.1-0.5-1.1-1.1l0,0c0-0.6,0.5-1.1,1.1-1.1h4.4c0.6,0,1.1,0.5,1.1,1.1l0,0
			C6.5,14.8,6,15.3,5.5,15.3z"/>
		<path class="st0" d="M5.5,19.6H1.1c-0.6,0-1.1-0.5-1.1-1.1l0,0c0-0.6,0.5-1.1,1.1-1.1h4.4c0.6,0,1.1,0.5,1.1,1.1l0,0
			C6.5,19.1,6,19.6,5.5,19.6z"/>
		<path class="st0" d="M14.2,10.9H9.8c-0.6,0-1.1-0.5-1.1-1.1l0,0c0-0.6,0.5-1.1,1.1-1.1h4.4c0.6,0,1.1,0.5,1.1,1.1l0,0
			C15.3,10.4,14.8,10.9,14.2,10.9z"/>
		<path class="st0" d="M14.2,15.3H9.8c-0.6,0-1.1-0.5-1.1-1.1l0,0c0-0.6,0.5-1.1,1.1-1.1h4.4c0.6,0,1.1,0.5,1.1,1.1l0,0
			C15.3,14.8,14.8,15.3,14.2,15.3z"/>
		<path class="st0" d="M22.9,6.5h-4.4c-0.6,0-1.1-0.5-1.1-1.1l0,0c0-0.6,0.5-1.1,1.1-1.1h4.4c0.6,0,1.1,0.5,1.1,1.1l0,0
			C24,6,23.5,6.5,22.9,6.5z"/>
		<path class="st0" d="M22.9,10.9h-4.4c-0.6,0-1.1-0.5-1.1-1.1l0,0c0-0.6,0.5-1.1,1.1-1.1h4.4c0.6,0,1.1,0.5,1.1,1.1l0,0
			C24,10.4,23.5,10.9,22.9,10.9z"/>
		<path class="st0" d="M22.9,19.6h-4.4c-0.6,0-1.1-0.5-1.1-1.1l0,0c0-0.6,0.5-1.1,1.1-1.1h4.4c0.6,0,1.1,0.5,1.1,1.1l0,0
			C24,19.1,23.5,19.6,22.9,19.6z"/>
	</g>
</g>
</svg>
