<svg width="1232" height="1232" viewBox="0 0 1232 1232" fill="none" xmlns="http://www.w3.org/2000/svg">
<circle cx="616.441" cy="616.306" r="615.475" fill="#2A9D3F"/>
<path d="M489.991 660.446V664.526C489.991 693.916 481.791 705.286 471.931 705.286C464.571 705.286 461.441 701.066 461.441 680.286V605.526C461.441 583.676 460.441 567.226 447.741 554.086C436.311 542.486 412.671 535.826 388.031 535.756H387.632C345.951 535.756 319.822 557.236 319.822 581.996C319.822 595.996 329.991 605.746 344.561 605.746H344.952C358.082 605.746 368.311 597.386 368.311 586.746C368.311 574.936 356.881 569.286 350.061 565.906C348.981 565.356 347.681 564.706 346.681 564.136C348.851 558.386 360.861 548.766 383.561 548.766C411.641 548.766 421.202 560.406 421.202 590.316V606.846C340.882 617.306 302.781 639.306 302.781 675.146C302.781 702.346 323.782 718.976 360.602 718.976C390.182 718.976 411.282 706.796 423.661 682.976C426.721 712.106 444.882 718.576 458.922 718.576C494.532 718.576 502.792 699.366 502.792 667.276V660.436L489.991 660.446ZM421.202 636.506C421.202 677.016 403.271 703.586 374.621 703.586C357.111 703.586 348.362 692.976 348.362 676.806C348.362 643.876 369.362 626.326 421.202 619.806V636.506Z" fill="white"/>
<path d="M604.021 542.826V552.486L606.021 552.576C627.791 553.716 637.151 556.516 637.151 568.496C637.151 575.596 634.301 583.226 630.721 590.496C630.721 590.496 601.481 650.606 593.401 667.336C589.921 659.846 551.141 575.756 551.141 575.756C548.281 569.356 546.611 566.756 546.611 562.816C546.611 555.296 552.111 552.986 575.861 552.566H577.951V542.856H463.661V552.606H465.741C495.341 552.986 500.611 565.606 509.881 585.836L569.991 714.456C562.061 731.626 558.301 738.856 551.321 749.876C539.141 769.396 527.441 779.356 512.441 779.356C508.441 779.356 507.131 778.696 506.751 778.466C507.576 777.435 508.468 776.46 509.421 775.546C513.341 771.676 519.281 765.776 519.281 755.976C519.281 741.246 508.281 730.976 492.541 730.976C475.461 730.976 463.091 742.976 463.091 759.476C463.091 780.066 480.371 793.906 506.091 793.906C528.991 793.906 547.991 780.986 563.831 754.726C565.831 751.416 567.701 747.886 569.561 744.126L645.561 591.486C657.751 567.486 673.451 555.486 696.381 552.556L698.241 552.306V542.806L604.021 542.826Z" fill="white"/>
<path d="M211.721 608.986C283.051 608.986 323.271 579.986 323.271 536.456C323.271 501.636 297.141 457.566 207.371 457.566H85.9714V466.776H87.9014C129.481 467.136 134.301 474.096 134.301 508.176V659.686C134.301 693.756 129.481 700.686 87.9014 701.066H85.9714V710.306H232.101V701.046H230.101C185.411 701.046 180.551 694.486 180.551 659.666V608.966L211.721 608.986ZM180.561 497.306C180.561 472.216 176.971 470.736 208.561 470.736C258.711 470.736 275.241 494.666 275.241 538.536C275.241 579.456 256.711 595.866 204.541 595.866H180.541V497.306H180.561Z" fill="white"/>
<path d="M889.841 552.836V457.566H663.521V466.696H665.411C705.001 467.046 709.411 474.026 709.411 508.126V659.726C709.411 693.826 705.021 700.816 665.411 701.176H663.521V710.306H892.721V606.306H883.721C877.391 672.126 846.311 696.586 783.581 696.906C753.071 697.056 755.581 694.026 755.581 662.006V586.146C756.681 586.146 760.181 585.846 760.181 585.846C798.871 585.846 814.711 601.736 817.701 643.736H826.271V519.976H817.751C815.401 560.106 798.321 573.196 757.541 573.196H755.541V501.696C755.541 473.746 755.251 470.626 780.081 470.626C851.081 470.626 872.401 498.276 881.751 552.836H889.841Z" fill="white"/>
<path d="M1142.74 700.306C1123.23 700.306 1113.86 693.306 1098.93 677.556C1098.93 677.556 1049.03 627.156 1033.51 611.236L1034.79 609.976C1036.86 607.976 1066.34 577.686 1108.39 536.366C1118.84 548.856 1125.39 565.746 1129.39 587.656H1138.67V494.656H1045.63V503.946C1068.16 508.046 1085.37 514.856 1097.94 525.786C1057.69 565.436 1026.94 597.036 1024.79 599.116L1023.44 600.306L1020.92 597.586C1017.99 594.586 990.032 566.046 990.032 566.046C989.933 565.962 989.84 565.872 989.752 565.776C986.062 561.936 983.422 559.156 983.422 556.226C983.422 551.426 999.992 552.846 1006.34 552.846H1008.63V542.826H901.042V552.826L903.292 552.876C925.552 553.266 926.402 559.136 937.482 570.586C937.482 570.586 980.952 614.336 990.682 624.196L993.982 627.466C978.122 642.706 914.842 703.466 907.682 710.316H928.852C935.472 703.996 989.032 652.916 1004.4 638.076C1014.4 648.606 1043.19 678.076 1043.19 678.076C1050.05 685.136 1054 689.956 1054 693.816C1054 699.206 1046.27 700.296 1028 700.296H1022.62V710.296H1145.44V700.306H1142.74Z" fill="white"/>
</svg>
